{"glyphs":{"0":{"ha":451,"x_min":53,"x_max":397,"o":"m 225 7 l 225 7 q 164 7 126 -36 q 87 -80 70 -162 q 53 -244 53 -359 l 53 -359 q 53 -471 69 -553 q 85 -635 123 -679 q 160 -724 225 -724 l 225 -724 q 292 -724 329 -679 q 366 -634 382 -552 q 397 -470 397 -360 l 397 -360 q 397 -272 388 -203 q 378 -135 358 -88 q 338 -41 305 -17 q 272 7 225 7 z m 225 -19 l 225 -19 q 266 -19 294 -42 q 321 -66 338 -110 q 355 -155 363 -218 q 370 -281 370 -359 l 370 -359 q 370 -433 364 -495 q 357 -557 340 -602 q 323 -648 296 -673 q 268 -698 225 -698 l 225 -698 q 183 -698 155 -673 q 127 -649 111 -603 q 94 -558 87 -496 q 79 -434 79 -359 l 79 -359 q 79 -282 87 -219 q 95 -156 113 -111 q 130 -67 158 -43 q 185 -19 225 -19 z"},"1":{"ha":451,"x_min":78,"x_max":271,"o":"m 271 -714 l 271 0 l 245 0 l 245 -567 q 245 -602 245 -628 q 245 -654 246 -684 l 246 -684 q 235 -671 225 -660 q 215 -650 202 -638 l 202 -638 l 96 -540 l 78 -559 l 248 -714 l 271 -714 z"},"2":{"ha":451,"x_min":44,"x_max":390,"o":"m 390 0 l 44 0 l 44 -22 l 216 -256 q 255 -308 284 -353 q 312 -398 328 -443 q 343 -489 343 -542 l 343 -542 q 343 -595 324 -629 q 305 -664 273 -681 q 240 -698 199 -698 l 199 -698 q 159 -698 127 -684 q 94 -671 66 -652 l 66 -652 l 51 -673 q 73 -689 97 -700 q 121 -711 148 -717 q 174 -724 202 -724 l 202 -724 q 250 -724 288 -703 q 325 -682 348 -642 q 370 -602 370 -543 l 370 -543 q 370 -484 353 -434 q 335 -385 306 -338 q 276 -292 238 -241 l 238 -241 l 80 -27 l 80 -26 l 389 -26 l 390 0 z"},"3":{"ha":451,"x_min":29,"x_max":381,"o":"m 184 10 l 184 10 q 145 10 104 3 q 63 -4 29 -19 l 29 -19 l 29 -47 q 60 -34 98 -25 q 136 -16 183 -16 l 183 -16 q 266 -16 310 -61 q 354 -107 354 -192 l 354 -192 q 354 -253 329 -289 q 304 -325 261 -341 q 217 -358 162 -358 l 162 -358 l 112 -358 l 112 -384 l 166 -384 q 217 -384 257 -405 q 296 -426 319 -463 q 341 -501 341 -551 l 341 -551 q 341 -626 303 -662 q 264 -698 199 -698 l 199 -698 q 153 -698 116 -682 q 78 -666 45 -642 l 45 -642 l 31 -664 q 70 -693 111 -708 q 152 -724 200 -724 l 200 -724 q 251 -724 289 -704 q 326 -685 347 -647 q 368 -609 368 -555 l 368 -555 q 368 -502 350 -465 q 331 -428 301 -405 q 271 -382 236 -372 l 236 -372 l 236 -370 q 303 -359 342 -314 q 381 -270 381 -190 l 381 -190 q 381 -130 359 -85 q 336 -40 293 -15 q 249 10 184 10 z"},"4":{"ha":451,"x_min":22,"x_max":432,"o":"m 334 0 l 308 0 l 308 -181 l 22 -181 l 22 -206 l 306 -718 l 334 -718 l 334 -207 l 432 -207 l 432 -181 l 334 -181 l 334 0 z m 259 -578 l 52 -207 l 308 -207 l 308 -584 q 308 -606 308 -620 q 308 -634 309 -646 q 309 -659 309 -674 l 309 -674 l 308 -674 q 296 -649 284 -625 q 272 -602 259 -578 l 259 -578 z"},"5":{"ha":451,"x_min":54,"x_max":397,"o":"m 188 9 l 188 9 q 147 9 114 2 q 80 -6 54 -17 l 54 -17 l 54 -47 q 79 -34 111 -25 q 143 -17 188 -17 l 188 -17 q 250 -17 290 -42 q 330 -68 350 -114 q 370 -160 370 -220 l 370 -220 q 370 -302 332 -351 q 293 -400 207 -400 l 207 -400 q 172 -400 140 -394 q 108 -388 84 -379 l 84 -379 l 67 -394 l 92 -714 l 357 -714 l 357 -688 l 117 -688 l 95 -409 q 116 -416 145 -421 q 174 -426 210 -426 l 210 -426 q 274 -426 315 -400 q 356 -375 377 -328 q 397 -282 397 -220 l 397 -220 q 397 -153 374 -101 q 350 -49 304 -20 q 257 9 188 9 z"},"6":{"ha":451,"x_min":58,"x_max":402,"o":"m 235 10 l 235 10 q 187 10 153 -11 q 119 -33 98 -74 q 77 -115 68 -174 q 58 -234 58 -309 l 58 -309 q 58 -403 70 -472 q 81 -542 103 -590 q 125 -639 155 -668 q 184 -697 221 -711 q 257 -725 297 -725 l 297 -725 q 316 -725 334 -722 q 352 -720 369 -716 l 369 -716 l 369 -689 q 353 -694 334 -696 q 315 -699 296 -699 l 296 -699 q 231 -699 184 -659 q 137 -619 112 -538 q 86 -457 84 -334 l 84 -334 l 85 -334 q 94 -358 113 -382 q 132 -406 163 -423 q 194 -440 239 -440 l 239 -440 q 294 -440 330 -414 q 366 -388 384 -339 q 402 -290 402 -222 l 402 -222 q 402 -150 382 -97 q 362 -45 325 -17 q 287 10 235 10 z m 234 -16 l 234 -16 q 303 -16 339 -70 q 375 -124 375 -223 l 375 -223 q 375 -309 343 -361 q 311 -414 238 -414 l 238 -414 q 193 -414 159 -392 q 124 -370 106 -333 q 87 -296 87 -251 l 87 -251 q 87 -219 93 -179 q 99 -139 115 -101 q 130 -64 159 -40 q 188 -16 234 -16 z"},"7":{"ha":451,"x_min":35,"x_max":405,"o":"m 149 0 l 120 0 l 376 -688 l 35 -688 l 35 -714 l 405 -714 l 405 -693 l 149 0 z"},"8":{"ha":451,"x_min":47,"x_max":403,"o":"m 226 10 l 226 10 q 171 10 131 -13 q 91 -36 69 -76 q 47 -117 47 -171 l 47 -171 q 47 -225 67 -263 q 87 -302 122 -330 q 156 -358 198 -380 l 198 -380 q 161 -402 131 -427 q 101 -453 84 -486 q 66 -520 66 -563 l 66 -563 q 66 -611 86 -647 q 106 -683 143 -703 q 179 -723 228 -723 l 228 -723 q 278 -723 314 -703 q 349 -684 368 -648 q 386 -613 386 -565 l 386 -565 q 386 -516 369 -483 q 351 -450 321 -425 q 291 -401 250 -379 l 250 -379 q 296 -354 330 -325 q 364 -297 384 -261 q 403 -225 403 -175 l 403 -175 q 403 -120 381 -78 q 359 -37 320 -13 q 280 10 226 10 z m 225 -16 l 225 -16 q 294 -16 335 -58 q 376 -101 376 -173 l 376 -173 q 376 -210 363 -242 q 349 -274 320 -302 q 290 -331 242 -356 l 242 -356 l 223 -366 q 182 -347 148 -320 q 114 -294 94 -258 q 74 -222 74 -171 l 74 -171 q 74 -97 117 -56 q 159 -16 225 -16 z m 226 -392 l 226 -392 q 266 -414 296 -436 q 326 -459 343 -489 q 359 -520 359 -564 l 359 -564 q 359 -628 325 -662 q 291 -697 228 -697 l 228 -697 q 166 -697 130 -661 q 93 -626 93 -562 l 93 -562 q 93 -524 109 -494 q 125 -464 155 -439 q 184 -415 226 -392 z"},"9":{"ha":451,"x_min":49,"x_max":393,"o":"m 155 10 l 155 10 q 137 10 117 8 q 96 6 81 1 l 81 1 l 81 -26 q 95 -21 115 -18 q 135 -16 155 -16 l 155 -16 q 205 -16 244 -38 q 283 -60 310 -105 q 337 -150 352 -219 q 367 -288 367 -381 l 367 -381 l 366 -381 q 358 -357 339 -332 q 320 -308 289 -291 q 257 -275 212 -275 l 212 -275 q 157 -275 121 -301 q 85 -327 67 -376 q 49 -425 49 -492 l 49 -492 q 49 -566 69 -618 q 89 -670 126 -697 q 163 -725 215 -725 l 215 -725 q 264 -725 298 -703 q 332 -681 353 -640 q 374 -599 384 -540 q 393 -481 393 -406 l 393 -406 q 393 -311 382 -241 q 370 -171 349 -123 q 328 -75 298 -45 q 268 -16 232 -3 q 196 10 155 10 z m 212 -301 l 212 -301 q 259 -301 293 -322 q 326 -344 345 -381 q 364 -418 364 -464 l 364 -464 q 364 -496 358 -536 q 352 -576 337 -613 q 321 -651 292 -675 q 263 -699 217 -699 l 217 -699 q 148 -699 112 -645 q 76 -591 76 -491 l 76 -491 q 76 -405 108 -353 q 140 -301 212 -301 z"},"\r":{"ha":247,"x_min":0,"x_max":0,"o":""}," ":{"ha":247,"x_min":0,"x_max":0,"o":""},"ഀ":{"ha":0,"x_min":-389,"x_max":-168,"o":"m -389 -728 l -389 -728 q -389 -791 -358 -827 q -328 -864 -279 -864 l -279 -864 q -230 -864 -199 -828 q -168 -792 -168 -728 l -168 -728 q -168 -664 -199 -628 q -230 -592 -278 -592 l -278 -592 q -328 -592 -358 -628 q -389 -665 -389 -728 z m -362 -729 l -362 -729 q -362 -677 -340 -647 q -319 -617 -279 -617 l -279 -617 q -239 -617 -217 -647 q -195 -677 -195 -729 l -195 -729 q -195 -780 -217 -809 q -239 -839 -279 -839 l -279 -839 q -318 -839 -340 -809 q -362 -780 -362 -729 z"},"ഁ":{"ha":0,"x_min":-403,"x_max":-153,"o":"m -279 -672 l -279 -672 q -334 -672 -368 -703 q -403 -735 -403 -807 l -403 -807 q -403 -817 -401 -831 q -400 -846 -397 -858 l -397 -858 l -372 -853 q -374 -843 -375 -830 q -377 -817 -377 -807 l -377 -807 q -377 -769 -366 -744 q -355 -720 -333 -709 q -311 -698 -279 -698 l -279 -698 q -244 -698 -222 -710 q -200 -723 -189 -747 q -179 -772 -179 -807 l -179 -807 q -179 -818 -180 -831 q -181 -844 -184 -854 l -184 -854 l -158 -859 q -155 -846 -154 -832 q -153 -819 -153 -807 l -153 -807 q -153 -736 -189 -704 q -225 -672 -279 -672 z m -278 -779 l -278 -779 q -294 -779 -299 -788 q -304 -797 -304 -810 l -304 -810 q -304 -822 -299 -831 q -294 -841 -278 -841 l -278 -841 q -261 -841 -256 -831 q -252 -822 -252 -810 l -252 -810 q -252 -797 -256 -788 q -261 -779 -278 -779 z"},"ം":{"ha":349,"x_min":37,"x_max":312,"o":"m 174 12 l 174 12 q 131 12 101 -9 q 70 -30 54 -69 q 37 -109 37 -166 l 37 -166 q 37 -223 54 -262 q 70 -302 101 -323 q 132 -344 175 -344 l 175 -344 q 217 -344 248 -323 q 278 -303 295 -264 q 312 -225 312 -167 l 312 -167 q 312 -110 296 -70 q 279 -30 248 -9 q 217 12 174 12 z m 175 -318 l 175 -318 q 123 -318 94 -279 q 64 -241 64 -166 l 64 -166 q 64 -91 93 -52 q 122 -14 174 -14 l 174 -14 q 226 -14 256 -52 q 285 -91 285 -167 l 285 -167 q 285 -242 256 -280 q 227 -318 175 -318 z"},"ഃ":{"ha":267,"x_min":35,"x_max":232,"o":"m 35 -434 l 35 -434 q 35 -492 62 -525 q 89 -558 133 -558 l 133 -558 q 178 -558 205 -525 q 232 -492 232 -434 l 232 -434 q 232 -376 205 -343 q 178 -310 133 -310 l 133 -310 q 89 -310 62 -343 q 35 -376 35 -434 z m 62 -435 l 62 -435 q 62 -387 81 -361 q 100 -335 133 -335 l 133 -335 q 167 -335 186 -361 q 205 -387 205 -435 l 205 -435 q 205 -481 186 -507 q 167 -533 133 -533 l 133 -533 q 100 -533 81 -507 q 62 -481 62 -435 z m 35 -112 l 35 -112 q 35 -170 62 -203 q 89 -236 133 -236 l 133 -236 q 178 -236 205 -203 q 232 -170 232 -112 l 232 -112 q 232 -54 205 -21 q 178 12 133 12 l 133 12 q 89 12 62 -21 q 35 -54 35 -112 z m 62 -113 l 62 -113 q 62 -65 81 -39 q 100 -13 133 -13 l 133 -13 q 167 -13 186 -39 q 205 -65 205 -113 l 205 -113 q 205 -159 186 -185 q 167 -211 133 -211 l 133 -211 q 100 -211 81 -185 q 62 -159 62 -113 z"},"ഄ":{"ha":464,"x_min":41,"x_max":423,"o":"m 54 -303 l 54 -303 l 80 -298 q 74 -272 71 -248 q 68 -224 68 -198 l 68 -198 q 68 -113 104 -65 q 140 -17 231 -17 l 231 -17 q 323 -17 360 -65 q 396 -113 396 -198 l 396 -198 q 396 -223 393 -247 q 390 -272 384 -298 l 384 -298 l 410 -303 q 415 -281 419 -253 q 423 -226 423 -197 l 423 -197 q 423 -135 404 -88 q 385 -42 343 -16 q 300 9 231 9 l 231 9 q 163 9 121 -16 q 79 -42 60 -88 q 41 -135 41 -197 l 41 -197 q 41 -226 45 -253 q 48 -281 54 -303 z m 219 -158 l 219 -390 l 245 -390 l 245 -158 l 219 -158 z"},"അ":{"ha":1150,"x_min":43,"x_max":1107,"o":"m 295 -558 l 295 -558 q 328 -558 362 -552 q 395 -547 425 -533 l 425 -533 q 428 -532 430 -530 q 432 -529 435 -527 l 435 -527 q 464 -514 487 -492 q 509 -471 522 -441 q 534 -411 534 -373 l 534 -373 q 534 -338 523 -310 q 511 -283 484 -266 q 457 -250 410 -245 l 410 -245 l 411 -254 q 475 -250 509 -216 q 543 -182 543 -122 l 543 -122 q 543 -80 528 -50 q 512 -20 483 -4 q 454 12 414 12 l 414 12 q 360 12 324 -15 q 287 -43 269 -97 q 250 -151 250 -228 l 250 -228 q 250 -286 265 -341 q 280 -397 311 -443 q 341 -490 389 -518 l 389 -518 q 392 -520 395 -523 q 397 -526 400 -528 l 400 -528 q 426 -542 455 -550 q 483 -558 516 -558 l 516 -558 q 579 -558 619 -535 q 658 -512 677 -471 q 696 -430 698 -376 l 698 -376 l 706 -298 l 706 0 l 680 0 l 680 -306 q 680 -381 669 -423 q 658 -466 632 -491 l 632 -491 q 612 -511 583 -521 q 554 -532 513 -532 l 513 -532 q 487 -532 466 -527 q 444 -522 425 -513 l 425 -513 q 388 -496 360 -465 q 332 -435 314 -396 q 295 -357 286 -314 q 277 -272 277 -229 l 277 -229 q 277 -126 310 -70 q 342 -14 414 -14 l 414 -14 q 462 -14 489 -40 q 516 -67 516 -122 l 516 -122 q 516 -170 487 -203 q 457 -237 393 -237 l 393 -237 l 381 -237 l 381 -263 l 389 -263 q 453 -263 480 -294 q 507 -325 507 -373 l 507 -373 q 507 -429 477 -464 q 447 -499 404 -514 l 404 -514 q 378 -525 351 -528 q 323 -532 295 -532 l 295 -532 q 215 -532 166 -498 q 116 -465 93 -409 q 70 -353 70 -287 l 70 -287 q 70 -220 85 -169 q 99 -119 126 -81 q 152 -43 184 -12 l 184 -12 l 166 7 q 138 -21 110 -59 q 81 -98 62 -153 q 43 -209 43 -286 l 43 -286 q 43 -344 59 -393 q 75 -443 107 -479 q 138 -516 185 -537 q 232 -558 295 -558 z m 963 12 l 963 12 q 915 12 885 -12 q 854 -37 840 -82 q 826 -128 826 -188 l 826 -188 q 826 -286 866 -333 q 905 -380 967 -380 l 967 -380 q 1002 -380 1027 -366 q 1052 -353 1071 -331 q 1089 -309 1101 -284 l 1101 -284 l 1094 -263 q 1081 -287 1064 -307 q 1047 -328 1024 -341 q 1001 -354 969 -354 l 969 -354 q 910 -354 882 -311 q 853 -269 853 -188 l 853 -188 q 853 -136 864 -96 q 874 -57 899 -35 q 923 -14 964 -14 l 964 -14 q 1001 -14 1027 -35 q 1052 -56 1067 -105 q 1081 -155 1081 -238 l 1081 -238 q 1081 -254 1081 -271 q 1080 -289 1078 -296 l 1078 -296 q 1079 -298 1080 -300 q 1080 -303 1079 -307 l 1079 -307 q 1070 -365 1047 -416 q 1024 -468 980 -500 q 936 -532 865 -532 l 865 -532 q 830 -532 805 -523 q 780 -514 761 -498 l 761 -498 q 744 -483 732 -460 q 719 -437 713 -404 q 706 -372 706 -324 l 706 -324 l 706 -262 l 686 -374 q 690 -436 713 -476 q 735 -517 774 -537 q 813 -558 865 -558 l 865 -558 q 925 -558 971 -535 q 1016 -512 1046 -469 q 1076 -426 1092 -367 q 1107 -309 1107 -238 l 1107 -238 q 1107 -143 1089 -88 q 1070 -34 1038 -11 q 1006 12 963 12 z"},"ആ":{"ha":1259,"x_min":43,"x_max":1231,"o":"m 295 -558 l 295 -558 q 328 -558 362 -552 q 395 -547 425 -533 l 425 -533 q 428 -532 430 -530 q 432 -529 435 -527 l 435 -527 q 464 -514 487 -492 q 509 -471 522 -441 q 534 -411 534 -373 l 534 -373 q 534 -338 523 -310 q 511 -283 484 -266 q 457 -250 410 -245 l 410 -245 l 411 -254 q 475 -250 509 -216 q 543 -182 543 -122 l 543 -122 q 543 -80 528 -50 q 512 -20 483 -4 q 454 12 414 12 l 414 12 q 360 12 324 -15 q 287 -43 269 -97 q 250 -151 250 -228 l 250 -228 q 250 -286 265 -341 q 280 -397 311 -443 q 341 -490 389 -518 l 389 -518 q 392 -520 395 -523 q 397 -526 400 -528 l 400 -528 q 426 -542 455 -550 q 483 -558 516 -558 l 516 -558 q 579 -558 619 -535 q 658 -512 677 -471 q 696 -430 698 -376 l 698 -376 l 706 -298 l 706 0 l 680 0 l 680 -306 q 680 -381 669 -423 q 658 -466 632 -491 l 632 -491 q 612 -511 583 -521 q 554 -532 513 -532 l 513 -532 q 487 -532 466 -527 q 444 -522 425 -513 l 425 -513 q 388 -496 360 -465 q 332 -435 314 -396 q 295 -357 286 -314 q 277 -272 277 -229 l 277 -229 q 277 -126 310 -70 q 342 -14 414 -14 l 414 -14 q 462 -14 489 -40 q 516 -67 516 -122 l 516 -122 q 516 -170 487 -203 q 457 -237 393 -237 l 393 -237 l 381 -237 l 381 -263 l 389 -263 q 453 -263 480 -294 q 507 -325 507 -373 l 507 -373 q 507 -429 477 -464 q 447 -499 404 -514 l 404 -514 q 378 -525 351 -528 q 323 -532 295 -532 l 295 -532 q 215 -532 166 -498 q 116 -465 93 -409 q 70 -353 70 -287 l 70 -287 q 70 -220 85 -169 q 99 -119 126 -81 q 152 -43 184 -12 l 184 -12 l 166 7 q 138 -21 110 -59 q 81 -98 62 -153 q 43 -209 43 -286 l 43 -286 q 43 -344 59 -393 q 75 -443 107 -479 q 138 -516 185 -537 q 232 -558 295 -558 z m 863 -558 l 863 -558 q 931 -558 976 -527 q 1020 -496 1047 -445 q 1073 -395 1083 -335 l 1083 -335 q 1088 -308 1090 -279 q 1092 -250 1092 -223 l 1092 -223 q 1092 -137 1073 -85 q 1053 -34 1020 -11 q 986 12 946 12 l 946 12 q 898 12 869 -12 q 840 -37 828 -76 q 816 -116 816 -160 l 816 -160 q 816 -256 869 -306 q 921 -357 1010 -357 l 1010 -357 q 1023 -357 1036 -355 q 1048 -354 1060 -351 l 1060 -351 l 1074 -349 q 1129 -334 1164 -293 q 1199 -253 1215 -198 q 1231 -143 1231 -83 l 1231 -83 q 1231 -14 1215 39 q 1199 92 1168 128 q 1136 164 1092 183 q 1047 201 990 201 l 990 201 q 957 201 928 196 q 899 191 872 182 l 872 182 l 881 157 q 903 165 930 170 q 957 175 989 175 l 989 175 q 1044 175 1085 157 q 1126 139 1153 106 q 1179 72 1192 25 q 1204 -23 1204 -84 l 1204 -84 q 1204 -135 1191 -184 q 1177 -233 1149 -270 q 1121 -307 1076 -322 l 1076 -322 l 1063 -325 q 1051 -328 1039 -329 q 1026 -331 1012 -331 l 1012 -331 q 963 -331 925 -314 q 886 -297 865 -259 q 843 -222 843 -160 l 843 -160 q 843 -123 852 -89 q 860 -56 883 -35 q 905 -14 946 -14 l 946 -14 q 1006 -14 1036 -67 q 1065 -121 1065 -224 l 1065 -224 q 1065 -250 1064 -278 q 1062 -306 1056 -334 l 1056 -334 l 1054 -345 q 1044 -394 1022 -436 q 1000 -479 961 -505 q 922 -532 862 -532 l 862 -532 q 830 -532 805 -523 q 779 -514 760 -498 l 760 -498 q 743 -483 731 -460 q 719 -437 713 -404 q 706 -372 706 -324 l 706 -324 l 706 -243 l 687 -375 q 691 -436 714 -477 q 736 -518 775 -538 q 813 -558 863 -558 z"},"ഇ":{"ha":750,"x_min":42,"x_max":707,"o":"m 248 -558 l 248 -558 q 299 -558 333 -541 q 366 -524 387 -491 q 407 -458 414 -409 l 414 -409 l 406 -415 q 418 -491 453 -524 q 488 -558 542 -558 l 542 -558 q 584 -558 615 -537 q 646 -517 667 -481 q 687 -446 697 -400 q 707 -354 707 -304 l 707 -304 q 707 -222 688 -159 q 668 -97 623 -59 l 623 -59 q 598 -38 567 -25 q 536 -12 493 -6 q 449 0 385 0 l 385 0 l 227 0 q 176 0 145 6 q 114 11 96 30 l 96 30 q 87 40 82 54 q 77 68 77 86 l 77 86 q 77 108 85 124 q 92 139 105 150 l 105 150 q 122 163 150 169 q 177 175 223 175 l 223 175 l 694 175 l 694 201 l 216 201 q 171 201 142 194 q 112 187 89 170 l 89 170 q 70 156 60 135 q 50 114 50 86 l 50 86 q 50 63 57 45 q 64 26 77 13 l 77 13 q 91 -1 110 -9 q 128 -18 156 -22 q 183 -26 224 -26 l 224 -26 l 385 -26 q 448 -26 489 -32 q 530 -38 558 -49 q 586 -60 607 -79 l 607 -79 q 646 -112 663 -170 q 680 -228 680 -303 l 680 -303 q 680 -363 666 -415 q 651 -468 621 -500 q 590 -532 541 -532 l 541 -532 q 517 -532 499 -524 q 481 -517 467 -503 l 467 -503 q 443 -476 433 -434 q 423 -392 423 -330 l 423 -330 l 423 -109 l 397 -109 l 397 -324 q 397 -392 386 -434 q 374 -477 344 -503 l 344 -503 q 326 -518 304 -525 q 281 -532 247 -532 l 247 -532 q 203 -532 171 -514 q 138 -496 117 -467 q 95 -438 84 -404 q 72 -370 69 -337 l 69 -337 q 68 -335 68 -331 q 68 -328 68 -326 l 68 -326 q 68 -322 68 -315 q 68 -308 68 -301 l 68 -301 q 68 -218 90 -173 q 112 -128 165 -128 l 165 -128 q 207 -128 228 -160 q 249 -192 249 -248 l 249 -248 q 249 -278 241 -303 q 233 -328 215 -343 q 197 -359 165 -359 l 165 -359 q 133 -359 106 -343 q 78 -327 54 -299 l 54 -299 l 47 -322 q 62 -341 80 -355 q 97 -369 119 -377 q 140 -385 165 -385 l 165 -385 q 204 -385 228 -366 q 252 -347 264 -316 q 276 -286 276 -249 l 276 -249 q 276 -204 263 -171 q 250 -138 226 -120 q 201 -102 166 -102 l 166 -102 q 126 -102 98 -124 q 70 -146 56 -190 q 42 -235 42 -302 l 42 -302 q 42 -369 66 -427 q 89 -486 135 -522 q 180 -558 248 -558 z"},"ഈ":{"ha":1334,"x_min":42,"x_max":1289,"o":"m 248 -558 l 248 -558 q 299 -558 333 -541 q 366 -524 387 -491 q 407 -458 414 -409 l 414 -409 l 406 -415 q 418 -491 453 -524 q 488 -558 542 -558 l 542 -558 q 584 -558 615 -537 q 646 -517 667 -481 q 687 -446 697 -400 q 707 -354 707 -304 l 707 -304 q 707 -222 688 -159 q 668 -97 623 -59 l 623 -59 q 598 -38 567 -25 q 536 -12 493 -6 q 449 0 385 0 l 385 0 l 227 0 q 176 0 145 6 q 114 11 96 30 l 96 30 q 87 40 82 54 q 77 68 77 86 l 77 86 q 77 108 85 124 q 92 139 105 150 l 105 150 q 122 163 150 169 q 177 175 223 175 l 223 175 l 694 175 l 694 201 l 216 201 q 171 201 142 194 q 112 187 89 170 l 89 170 q 70 156 60 135 q 50 114 50 86 l 50 86 q 50 63 57 45 q 64 26 77 13 l 77 13 q 91 -1 110 -9 q 128 -18 156 -22 q 183 -26 224 -26 l 224 -26 l 385 -26 q 448 -26 489 -32 q 530 -38 558 -49 q 586 -60 607 -79 l 607 -79 q 646 -112 663 -170 q 680 -228 680 -303 l 680 -303 q 680 -363 666 -415 q 651 -468 621 -500 q 590 -532 541 -532 l 541 -532 q 517 -532 499 -524 q 481 -517 467 -503 l 467 -503 q 443 -476 433 -434 q 423 -392 423 -330 l 423 -330 l 423 -109 l 397 -109 l 397 -324 q 397 -392 386 -434 q 374 -477 344 -503 l 344 -503 q 326 -518 304 -525 q 281 -532 247 -532 l 247 -532 q 203 -532 171 -514 q 138 -496 117 -467 q 95 -438 84 -404 q 72 -370 69 -337 l 69 -337 q 68 -335 68 -331 q 68 -328 68 -326 l 68 -326 q 68 -322 68 -315 q 68 -308 68 -301 l 68 -301 q 68 -218 90 -173 q 112 -128 165 -128 l 165 -128 q 207 -128 228 -160 q 249 -192 249 -248 l 249 -248 q 249 -278 241 -303 q 233 -328 215 -343 q 197 -359 165 -359 l 165 -359 q 133 -359 106 -343 q 78 -327 54 -299 l 54 -299 l 47 -322 q 62 -341 80 -355 q 97 -369 119 -377 q 140 -385 165 -385 l 165 -385 q 204 -385 228 -366 q 252 -347 264 -316 q 276 -286 276 -249 l 276 -249 q 276 -204 263 -171 q 250 -138 226 -120 q 201 -102 166 -102 l 166 -102 q 126 -102 98 -124 q 70 -146 56 -190 q 42 -235 42 -302 l 42 -302 q 42 -369 66 -427 q 89 -486 135 -522 q 180 -558 248 -558 z m 1147 -558 l 1147 -558 q 1192 -558 1224 -528 q 1255 -498 1272 -441 q 1289 -384 1289 -301 l 1289 -301 q 1289 -197 1268 -127 q 1247 -58 1200 -23 q 1152 12 1072 12 l 1072 12 q 1033 12 998 5 q 962 -3 924 -22 l 924 -22 l 936 -45 q 972 -28 1002 -21 q 1032 -14 1072 -14 l 1072 -14 q 1147 -14 1188 -46 q 1229 -79 1246 -143 q 1262 -207 1262 -301 l 1262 -301 q 1262 -417 1231 -474 q 1200 -532 1146 -532 l 1146 -532 q 1122 -532 1106 -522 q 1090 -513 1079 -497 l 1079 -497 q 1060 -469 1054 -430 q 1048 -391 1048 -348 l 1048 -348 l 1048 -255 l 1022 -255 l 1022 -351 q 1022 -405 1015 -440 q 1008 -476 991 -498 l 991 -498 q 979 -514 962 -523 q 945 -532 922 -532 l 922 -532 q 870 -532 844 -491 q 817 -450 817 -388 l 817 -388 q 817 -354 822 -322 q 826 -290 834 -257 l 834 -257 l 809 -252 q 801 -284 796 -317 q 790 -351 790 -390 l 790 -390 q 790 -438 806 -476 q 821 -514 851 -536 q 880 -558 922 -558 l 922 -558 q 966 -558 998 -529 q 1029 -501 1039 -430 l 1039 -430 l 1032 -429 q 1040 -496 1071 -527 q 1102 -558 1147 -558 z"},"ഉ":{"ha":530,"x_min":42,"x_max":487,"o":"m 267 -558 l 267 -558 q 319 -558 360 -538 q 400 -519 429 -483 q 457 -447 472 -396 q 487 -346 487 -285 l 487 -285 q 487 -204 471 -149 q 454 -94 414 -59 l 414 -59 q 392 -39 364 -26 q 336 -13 300 -6 q 264 0 215 0 l 215 0 l 209 0 q 172 1 143 6 q 114 11 96 30 l 96 30 q 87 40 82 54 q 77 68 77 86 l 77 86 q 77 108 85 124 q 92 139 105 150 l 105 150 q 122 163 150 169 q 177 175 223 175 l 223 175 l 472 175 l 472 201 l 216 201 q 171 201 142 194 q 112 187 89 170 l 89 170 q 70 156 60 135 q 50 114 50 86 l 50 86 q 50 63 57 45 q 64 26 77 13 l 77 13 q 98 -8 130 -16 q 161 -25 213 -26 l 213 -26 l 217 -26 q 264 -27 297 -32 q 330 -38 354 -49 q 378 -61 396 -77 l 396 -77 q 433 -109 447 -161 q 460 -214 460 -284 l 460 -284 q 460 -340 447 -385 q 434 -430 410 -463 q 386 -497 350 -514 q 314 -532 268 -532 l 268 -532 q 216 -532 180 -514 q 143 -496 120 -467 q 96 -438 84 -403 q 72 -369 69 -337 l 69 -337 q 68 -335 68 -331 q 68 -328 68 -326 l 68 -326 q 68 -322 68 -315 q 68 -308 68 -301 l 68 -301 q 68 -218 90 -173 q 112 -128 165 -128 l 165 -128 q 207 -128 228 -160 q 249 -192 249 -248 l 249 -248 q 249 -278 241 -303 q 233 -328 215 -343 q 197 -359 165 -359 l 165 -359 q 133 -359 106 -343 q 78 -327 54 -299 l 54 -299 l 47 -322 q 62 -341 80 -355 q 97 -369 119 -377 q 140 -385 165 -385 l 165 -385 q 204 -385 228 -366 q 252 -347 264 -316 q 276 -286 276 -249 l 276 -249 q 276 -204 263 -171 q 250 -138 226 -120 q 201 -102 166 -102 l 166 -102 q 126 -102 98 -124 q 70 -146 56 -190 q 42 -235 42 -302 l 42 -302 q 42 -352 56 -398 q 69 -444 97 -480 q 125 -516 168 -537 q 210 -558 267 -558 z"},"ഊ":{"ha":1113,"x_min":42,"x_max":1068,"o":"m 267 -558 l 267 -558 q 319 -558 360 -538 q 400 -519 429 -483 q 457 -447 472 -396 q 487 -346 487 -285 l 487 -285 q 487 -204 471 -149 q 454 -94 414 -59 l 414 -59 q 392 -39 364 -26 q 336 -13 300 -6 q 264 0 215 0 l 215 0 l 209 0 q 172 1 143 6 q 114 11 96 30 l 96 30 q 87 40 82 54 q 77 68 77 86 l 77 86 q 77 108 85 124 q 92 139 105 150 l 105 150 q 122 163 150 169 q 177 175 223 175 l 223 175 l 472 175 l 472 201 l 216 201 q 171 201 142 194 q 112 187 89 170 l 89 170 q 70 156 60 135 q 50 114 50 86 l 50 86 q 50 63 57 45 q 64 26 77 13 l 77 13 q 98 -8 130 -16 q 161 -25 213 -26 l 213 -26 l 217 -26 q 264 -27 297 -32 q 330 -38 354 -49 q 378 -61 396 -77 l 396 -77 q 433 -109 447 -161 q 460 -214 460 -284 l 460 -284 q 460 -340 447 -385 q 434 -430 410 -463 q 386 -497 350 -514 q 314 -532 268 -532 l 268 -532 q 216 -532 180 -514 q 143 -496 120 -467 q 96 -438 84 -403 q 72 -369 69 -337 l 69 -337 q 68 -335 68 -331 q 68 -328 68 -326 l 68 -326 q 68 -322 68 -315 q 68 -308 68 -301 l 68 -301 q 68 -218 90 -173 q 112 -128 165 -128 l 165 -128 q 207 -128 228 -160 q 249 -192 249 -248 l 249 -248 q 249 -278 241 -303 q 233 -328 215 -343 q 197 -359 165 -359 l 165 -359 q 133 -359 106 -343 q 78 -327 54 -299 l 54 -299 l 47 -322 q 62 -341 80 -355 q 97 -369 119 -377 q 140 -385 165 -385 l 165 -385 q 204 -385 228 -366 q 252 -347 264 -316 q 276 -286 276 -249 l 276 -249 q 276 -204 263 -171 q 250 -138 226 -120 q 201 -102 166 -102 l 166 -102 q 126 -102 98 -124 q 70 -146 56 -190 q 42 -235 42 -302 l 42 -302 q 42 -352 56 -398 q 69 -444 97 -480 q 125 -516 168 -537 q 210 -558 267 -558 z m 926 -558 l 926 -558 q 971 -558 1003 -528 q 1034 -498 1051 -441 q 1068 -384 1068 -301 l 1068 -301 q 1068 -197 1047 -127 q 1026 -58 979 -23 q 931 12 851 12 l 851 12 q 812 12 777 5 q 741 -3 703 -22 l 703 -22 l 715 -45 q 751 -28 781 -21 q 811 -14 851 -14 l 851 -14 q 926 -14 967 -46 q 1008 -79 1025 -143 q 1041 -207 1041 -301 l 1041 -301 q 1041 -417 1010 -474 q 979 -532 925 -532 l 925 -532 q 901 -532 885 -522 q 869 -513 858 -497 l 858 -497 q 839 -469 833 -430 q 827 -391 827 -348 l 827 -348 l 827 -255 l 801 -255 l 801 -351 q 801 -405 794 -440 q 787 -476 770 -498 l 770 -498 q 758 -514 741 -523 q 724 -532 701 -532 l 701 -532 q 649 -532 623 -491 q 596 -450 596 -388 l 596 -388 q 596 -354 601 -322 q 605 -290 613 -257 l 613 -257 l 588 -252 q 580 -284 575 -317 q 569 -351 569 -390 l 569 -390 q 569 -438 585 -476 q 600 -514 630 -536 q 659 -558 701 -558 l 701 -558 q 745 -558 777 -529 q 808 -501 818 -430 l 818 -430 l 811 -429 q 819 -496 850 -527 q 881 -558 926 -558 z"},"ഋ":{"ha":675,"x_min":40,"x_max":634,"o":"m 502 -558 l 502 -558 q 565 -558 600 -507 q 634 -457 634 -364 l 634 -364 q 634 -308 621 -265 q 607 -223 582 -193 l 582 -193 q 546 -150 491 -128 q 435 -107 362 -107 l 362 -107 l 312 -107 q 264 -107 223 -116 q 182 -126 149 -145 q 116 -164 93 -193 l 93 -193 q 68 -223 54 -265 q 40 -308 40 -363 l 40 -363 q 40 -424 56 -467 q 72 -511 103 -534 q 133 -558 175 -558 l 175 -558 q 211 -558 237 -539 q 262 -521 275 -489 q 288 -458 288 -416 l 288 -416 q 288 -374 275 -342 q 261 -311 234 -293 q 206 -276 167 -276 l 167 -276 q 142 -276 121 -283 q 100 -291 82 -304 q 64 -318 48 -335 l 48 -335 l 56 -360 q 69 -344 85 -330 q 101 -317 121 -309 q 141 -302 166 -302 l 166 -302 q 213 -302 237 -331 q 261 -360 261 -417 l 261 -417 q 261 -469 239 -500 q 217 -532 175 -532 l 175 -532 q 138 -532 114 -510 q 89 -488 78 -450 q 66 -412 66 -362 l 66 -362 q 66 -355 67 -347 q 67 -340 67 -332 l 67 -332 l 68 -322 q 74 -269 96 -231 q 118 -193 153 -169 q 188 -146 234 -134 q 279 -123 333 -123 l 333 -123 l 340 -123 q 395 -123 441 -134 q 487 -146 522 -169 q 557 -193 579 -231 q 601 -269 607 -322 l 607 -322 l 607 -332 q 608 -340 609 -348 q 609 -356 609 -364 l 609 -364 q 609 -414 598 -452 q 587 -490 564 -511 q 540 -532 502 -532 l 502 -532 q 458 -532 436 -498 q 413 -465 413 -413 l 413 -413 q 413 -358 437 -330 q 460 -302 506 -302 l 506 -302 q 533 -302 553 -309 q 573 -317 589 -330 q 605 -344 618 -360 l 618 -360 l 626 -335 q 611 -318 593 -304 q 575 -291 553 -283 q 531 -276 505 -276 l 505 -276 q 466 -276 440 -293 q 413 -311 400 -342 q 386 -373 386 -413 l 386 -413 q 386 -455 400 -487 q 414 -520 440 -539 q 466 -558 502 -558 z m 336 203 l 336 203 q 241 203 181 185 q 121 166 93 130 q 65 93 65 40 l 65 40 q 65 -4 84 -33 q 102 -62 134 -80 q 166 -99 210 -106 q 253 -114 303 -114 l 303 -114 l 371 -114 q 422 -114 465 -106 q 508 -99 541 -81 q 573 -63 592 -33 q 610 -4 610 39 l 610 39 q 610 91 582 128 q 554 165 494 184 q 434 203 336 203 z m 337 177 l 337 177 q 425 177 479 162 q 533 146 558 116 q 583 85 583 39 l 583 39 q 583 5 569 -20 q 554 -46 524 -63 q 493 -81 447 -89 q 401 -98 339 -98 l 339 -98 l 335 -98 q 252 -98 198 -82 q 144 -67 118 -36 q 92 -6 92 39 l 92 39 q 92 85 116 116 q 140 146 194 162 q 248 177 337 177 z"},"ഌ":{"ha":885,"x_min":45,"x_max":842,"o":"m 270 -558 l 270 -558 q 343 -558 383 -518 q 423 -479 433 -406 l 433 -406 l 435 -369 l 442 -290 l 442 0 l 416 0 l 416 -321 q 416 -393 404 -435 q 391 -477 362 -502 l 362 -502 q 345 -517 323 -524 q 301 -532 270 -532 l 270 -532 q 210 -532 165 -494 q 120 -457 96 -390 q 71 -324 71 -236 l 71 -236 l 71 -223 q 71 -147 85 -101 q 98 -55 123 -34 q 148 -14 183 -14 l 183 -14 q 207 -14 227 -26 q 247 -38 259 -68 q 271 -98 271 -150 l 271 -150 q 271 -208 249 -242 q 226 -276 178 -276 l 178 -276 q 141 -276 111 -257 q 81 -238 58 -209 l 58 -209 l 50 -233 q 82 -271 114 -286 q 146 -302 179 -302 l 179 -302 q 212 -302 239 -286 q 266 -270 282 -236 q 298 -203 298 -150 l 298 -150 q 298 -91 283 -55 q 267 -20 241 -4 q 215 12 183 12 l 183 12 q 144 12 113 -9 q 81 -31 63 -82 q 45 -134 45 -225 l 45 -225 q 45 -330 74 -404 q 102 -479 153 -518 q 204 -558 270 -558 z m 699 12 l 699 12 q 651 12 621 -12 q 590 -37 576 -82 q 561 -128 561 -188 l 561 -188 q 561 -286 601 -333 q 640 -380 703 -380 l 703 -380 q 737 -380 763 -366 q 788 -353 807 -331 q 825 -309 836 -284 l 836 -284 l 829 -263 q 816 -287 800 -307 q 783 -328 760 -341 q 737 -354 705 -354 l 705 -354 q 646 -354 617 -311 q 588 -269 588 -188 l 588 -188 q 588 -136 599 -96 q 610 -57 635 -35 q 659 -14 700 -14 l 700 -14 q 736 -14 762 -35 q 788 -56 802 -105 q 816 -155 816 -238 l 816 -238 q 816 -254 816 -271 q 815 -289 814 -296 l 814 -296 q 815 -298 816 -300 q 816 -303 815 -307 l 815 -307 q 806 -365 783 -416 q 759 -468 716 -500 q 672 -532 601 -532 l 601 -532 q 566 -532 541 -523 q 515 -514 496 -498 l 496 -498 q 479 -483 467 -460 q 455 -437 449 -404 q 442 -372 442 -324 l 442 -324 l 442 -262 l 421 -374 q 425 -436 448 -476 q 471 -517 510 -537 q 549 -558 601 -558 l 601 -558 q 661 -558 706 -535 q 751 -512 782 -469 q 812 -426 827 -367 q 842 -309 842 -238 l 842 -238 q 842 -143 824 -88 q 805 -34 773 -11 q 741 12 699 12 z"},"എ":{"ha":955,"x_min":35,"x_max":909,"o":"m 172 -327 l 172 -327 q 212 -327 243 -308 q 274 -290 291 -254 q 308 -218 308 -167 l 308 -167 q 308 -120 292 -79 q 275 -39 246 -10 l 246 -10 l 251 -26 l 665 -26 l 666 0 l 239 0 l 226 -20 q 253 -51 267 -88 q 281 -125 281 -166 l 281 -166 q 281 -234 251 -267 q 221 -301 172 -301 l 172 -301 q 137 -301 113 -284 q 88 -267 75 -237 q 62 -208 62 -168 l 62 -168 q 62 -116 81 -78 q 100 -40 128 -10 l 128 -10 l 109 8 q 77 -28 56 -69 q 35 -111 35 -169 l 35 -169 q 35 -216 53 -251 q 70 -287 101 -307 q 131 -327 172 -327 z m 680 -558 l 680 -558 q 740 -558 784 -530 q 827 -503 855 -453 q 883 -404 896 -336 q 909 -269 909 -189 l 909 -189 q 909 -100 894 -25 q 878 50 849 113 q 819 176 778 228 l 778 228 l 757 213 q 796 163 824 103 q 852 42 867 -30 q 882 -102 882 -187 l 882 -187 q 882 -260 871 -322 q 860 -385 836 -432 q 812 -480 774 -506 q 735 -532 679 -532 l 679 -532 q 615 -532 567 -488 q 519 -444 493 -357 q 467 -271 467 -143 l 467 -143 q 467 -109 468 -78 q 469 -47 471 -20 l 471 -20 q 471 -18 472 -14 q 472 -11 472 -9 l 472 -9 q 479 67 495 114 q 510 160 534 181 q 557 202 589 202 l 589 202 q 613 202 628 190 l 628 190 q 643 178 649 154 q 655 129 655 88 l 655 88 l 655 -415 l 681 -415 l 681 94 q 681 140 673 168 q 664 195 643 211 l 643 211 q 633 218 619 223 q 605 228 589 228 l 589 228 q 544 228 511 194 q 477 160 459 79 q 440 -3 440 -143 l 440 -143 q 440 -247 458 -325 q 475 -403 507 -455 q 538 -507 582 -532 q 626 -558 680 -558 z"},"ഏ":{"ha":953,"x_min":35,"x_max":919,"o":"m 172 -327 l 172 -327 q 212 -327 243 -308 q 274 -290 291 -254 q 308 -218 308 -167 l 308 -167 q 308 -120 292 -79 q 275 -39 246 -10 l 246 -10 l 251 -26 l 665 -26 l 666 0 l 239 0 l 226 -20 q 253 -51 267 -88 q 281 -125 281 -166 l 281 -166 q 281 -234 251 -267 q 221 -301 172 -301 l 172 -301 q 137 -301 113 -284 q 88 -267 75 -237 q 62 -208 62 -168 l 62 -168 q 62 -116 81 -78 q 100 -40 128 -10 l 128 -10 l 109 8 q 77 -28 56 -69 q 35 -111 35 -169 l 35 -169 q 35 -216 53 -251 q 70 -287 101 -307 q 131 -327 172 -327 z m 712 -558 l 712 -558 q 761 -558 799 -541 q 836 -524 862 -494 q 887 -464 899 -425 q 911 -386 911 -340 l 911 -340 q 911 -284 895 -242 q 879 -200 846 -173 q 813 -146 764 -132 l 764 -132 l 763 -143 q 831 -135 875 -88 q 919 -42 919 45 l 919 45 q 919 112 901 152 q 883 192 851 210 q 819 228 778 228 l 778 228 q 760 228 745 227 q 729 225 715 221 l 715 221 l 721 196 q 733 199 748 201 q 762 202 777 202 l 777 202 q 812 202 838 188 q 863 174 878 140 q 892 106 892 45 l 892 45 q 892 -30 855 -74 q 817 -118 748 -122 l 748 -122 l 748 -148 q 788 -161 819 -183 q 850 -206 867 -244 q 884 -282 884 -340 l 884 -340 q 884 -393 866 -436 q 848 -480 810 -506 q 772 -532 712 -532 l 712 -532 q 632 -532 578 -487 q 523 -442 495 -355 q 467 -269 467 -143 l 467 -143 q 467 -109 468 -78 q 469 -47 471 -20 l 471 -20 q 471 -18 472 -14 q 472 -11 472 -9 l 472 -9 q 479 67 495 114 q 510 160 534 181 q 557 202 589 202 l 589 202 q 613 202 628 190 l 628 190 q 644 178 650 154 q 655 129 655 88 l 655 88 l 655 -415 l 681 -415 l 681 94 q 681 140 673 168 q 664 195 643 211 l 643 211 q 633 218 619 223 q 605 228 589 228 l 589 228 q 544 228 511 194 q 477 160 459 79 q 440 -3 440 -143 l 440 -143 q 440 -245 459 -322 q 477 -400 512 -452 q 547 -505 598 -531 q 648 -558 712 -558 z"},"ഐ":{"ha":1501,"x_min":43,"x_max":1455,"o":"m 181 12 l 181 12 q 142 12 111 -9 q 79 -30 61 -82 q 43 -135 43 -228 l 43 -228 q 43 -308 62 -369 q 81 -431 114 -473 q 147 -515 191 -536 q 235 -558 284 -558 l 284 -558 q 337 -558 378 -537 q 419 -517 447 -481 q 475 -445 489 -395 q 503 -346 503 -287 l 503 -287 q 503 -210 485 -154 q 466 -99 437 -60 q 408 -21 377 8 l 377 8 l 360 -11 q 388 -38 415 -74 q 441 -111 459 -162 q 476 -214 476 -287 l 476 -287 q 476 -357 455 -412 q 434 -468 392 -500 q 350 -532 284 -532 l 284 -532 q 223 -532 175 -496 q 126 -460 98 -392 q 69 -324 69 -228 l 69 -228 q 69 -149 82 -102 q 95 -55 121 -34 q 146 -14 181 -14 l 181 -14 q 205 -14 225 -26 q 245 -38 257 -68 q 269 -98 269 -150 l 269 -150 q 269 -208 246 -242 q 223 -276 176 -276 l 176 -276 q 138 -276 109 -257 q 79 -238 56 -209 l 56 -209 l 48 -233 q 80 -271 112 -286 q 143 -302 176 -302 l 176 -302 q 209 -302 237 -286 q 264 -270 280 -236 q 296 -203 296 -150 l 296 -150 q 296 -91 280 -55 q 264 -20 239 -4 q 213 12 181 12 z m 718 -327 l 718 -327 q 758 -327 789 -308 q 820 -290 837 -254 q 854 -218 854 -167 l 854 -167 q 854 -120 838 -79 q 821 -39 792 -10 l 792 -10 l 797 -26 l 1211 -26 l 1212 0 l 785 0 l 772 -20 q 799 -51 813 -88 q 827 -125 827 -166 l 827 -166 q 827 -234 797 -267 q 767 -301 718 -301 l 718 -301 q 683 -301 659 -284 q 634 -267 621 -237 q 608 -208 608 -168 l 608 -168 q 608 -116 627 -78 q 646 -40 674 -10 l 674 -10 l 655 8 q 623 -28 602 -69 q 581 -111 581 -169 l 581 -169 q 581 -216 599 -251 q 616 -287 647 -307 q 677 -327 718 -327 z m 1226 -558 l 1226 -558 q 1286 -558 1330 -530 q 1373 -503 1401 -453 q 1429 -404 1442 -336 q 1455 -269 1455 -189 l 1455 -189 q 1455 -100 1440 -25 q 1424 50 1395 113 q 1365 176 1324 228 l 1324 228 l 1303 213 q 1342 163 1370 103 q 1398 42 1413 -30 q 1428 -102 1428 -187 l 1428 -187 q 1428 -260 1417 -322 q 1406 -385 1382 -432 q 1358 -480 1320 -506 q 1281 -532 1225 -532 l 1225 -532 q 1161 -532 1113 -488 q 1065 -444 1039 -357 q 1013 -271 1013 -143 l 1013 -143 q 1013 -109 1014 -78 q 1015 -47 1017 -20 l 1017 -20 q 1017 -18 1018 -14 q 1018 -11 1018 -9 l 1018 -9 q 1025 67 1041 114 q 1056 160 1080 181 q 1103 202 1135 202 l 1135 202 q 1159 202 1174 190 l 1174 190 q 1189 178 1195 154 q 1201 129 1201 88 l 1201 88 l 1201 -415 l 1227 -415 l 1227 94 q 1227 140 1219 168 q 1210 195 1189 211 l 1189 211 q 1179 218 1165 223 q 1151 228 1135 228 l 1135 228 q 1090 228 1057 194 q 1023 160 1005 79 q 986 -3 986 -143 l 986 -143 q 986 -247 1004 -325 q 1021 -403 1053 -455 q 1084 -507 1128 -532 q 1172 -558 1226 -558 z"},"ഒ":{"ha":579,"x_min":42,"x_max":541,"o":"m 347 -558 l 347 -558 q 411 -558 452 -537 q 493 -516 513 -480 q 532 -444 532 -401 l 532 -401 q 532 -365 519 -336 q 506 -307 478 -288 q 449 -270 400 -266 l 400 -266 l 401 -274 q 465 -269 503 -232 q 541 -196 541 -130 l 541 -130 q 541 -63 507 -26 q 472 10 406 10 l 406 10 q 388 10 370 7 q 351 4 335 0 l 335 0 l 341 -25 q 358 -21 375 -18 q 391 -16 406 -16 l 406 -16 q 459 -16 487 -42 q 514 -68 514 -130 l 514 -130 q 514 -164 503 -187 q 492 -211 472 -227 l 472 -227 q 452 -242 427 -249 q 401 -257 364 -257 l 364 -257 l 357 -257 l 357 -283 l 365 -283 q 403 -283 430 -291 q 456 -299 473 -315 l 473 -315 q 489 -330 497 -352 q 505 -374 505 -402 l 505 -402 q 505 -463 464 -497 q 423 -532 347 -532 l 347 -532 q 277 -532 225 -507 q 173 -482 138 -439 q 103 -396 86 -341 q 68 -286 68 -227 l 68 -227 l 68 -217 q 68 -144 81 -99 q 94 -54 120 -34 q 145 -14 180 -14 l 180 -14 q 204 -14 224 -26 q 244 -38 256 -68 q 268 -98 268 -150 l 268 -150 q 268 -208 245 -242 q 222 -276 175 -276 l 175 -276 q 137 -276 108 -257 q 78 -238 55 -209 l 55 -209 l 47 -233 q 79 -271 111 -286 q 142 -302 175 -302 l 175 -302 q 208 -302 235 -286 q 262 -270 279 -236 q 295 -203 295 -150 l 295 -150 q 295 -91 279 -55 q 263 -20 238 -4 q 212 12 180 12 l 180 12 q 140 12 109 -9 q 78 -30 60 -80 q 42 -131 42 -218 l 42 -218 q 42 -288 62 -349 q 81 -411 120 -457 q 158 -504 215 -531 q 272 -558 347 -558 z"},"ഓ":{"ha":965,"x_min":42,"x_max":920,"o":"m 347 -558 l 347 -558 q 411 -558 452 -537 q 493 -516 513 -480 q 532 -444 532 -401 l 532 -401 q 532 -365 519 -336 q 506 -307 478 -288 q 449 -270 400 -266 l 400 -266 l 401 -274 q 465 -269 503 -232 q 541 -196 541 -130 l 541 -130 q 541 -63 507 -26 q 472 10 406 10 l 406 10 q 388 10 370 7 q 351 4 335 0 l 335 0 l 341 -25 q 358 -21 375 -18 q 391 -16 406 -16 l 406 -16 q 459 -16 487 -42 q 514 -68 514 -130 l 514 -130 q 514 -164 503 -187 q 492 -211 472 -227 l 472 -227 q 452 -242 427 -249 q 401 -257 364 -257 l 364 -257 l 357 -257 l 357 -283 l 365 -283 q 403 -283 430 -291 q 456 -299 473 -315 l 473 -315 q 489 -330 497 -352 q 505 -374 505 -402 l 505 -402 q 505 -463 464 -497 q 423 -532 347 -532 l 347 -532 q 277 -532 225 -507 q 173 -482 138 -439 q 103 -396 86 -341 q 68 -286 68 -227 l 68 -227 l 68 -217 q 68 -144 81 -99 q 94 -54 120 -34 q 145 -14 180 -14 l 180 -14 q 204 -14 224 -26 q 244 -38 256 -68 q 268 -98 268 -150 l 268 -150 q 268 -208 245 -242 q 222 -276 175 -276 l 175 -276 q 137 -276 108 -257 q 78 -238 55 -209 l 55 -209 l 47 -233 q 79 -271 111 -286 q 142 -302 175 -302 l 175 -302 q 208 -302 235 -286 q 262 -270 279 -236 q 295 -203 295 -150 l 295 -150 q 295 -91 279 -55 q 263 -20 238 -4 q 212 12 180 12 l 180 12 q 140 12 109 -9 q 78 -30 60 -80 q 42 -131 42 -218 l 42 -218 q 42 -288 62 -349 q 81 -411 120 -457 q 158 -504 215 -531 q 272 -558 347 -558 z m 920 -275 l 920 -275 q 920 -207 911 -153 q 901 -100 882 -63 q 862 -26 832 -7 q 802 12 760 12 l 760 12 q 724 12 699 -1 q 673 -14 655 -37 q 636 -61 624 -92 q 612 -124 604 -161 l 604 -161 l 630 -166 q 640 -122 655 -87 q 670 -53 695 -33 q 720 -14 759 -14 l 759 -14 q 807 -14 837 -44 q 866 -74 880 -132 q 893 -191 893 -275 l 893 -275 q 893 -358 879 -415 q 865 -472 837 -502 q 808 -532 761 -532 l 761 -532 q 724 -532 699 -512 q 673 -492 658 -458 q 643 -425 633 -382 l 633 -382 l 607 -387 q 615 -423 628 -454 q 640 -485 659 -508 q 677 -532 703 -545 q 728 -558 762 -558 l 762 -558 q 803 -558 833 -538 q 863 -518 882 -481 q 901 -445 911 -392 q 920 -340 920 -275 z"},"ഔ":{"ha":1160,"x_min":42,"x_max":1114,"o":"m 347 -558 l 347 -558 q 411 -558 452 -537 q 493 -516 513 -480 q 532 -444 532 -401 l 532 -401 q 532 -365 519 -336 q 506 -307 478 -288 q 449 -270 400 -266 l 400 -266 l 401 -274 q 465 -269 503 -232 q 541 -196 541 -130 l 541 -130 q 541 -63 507 -26 q 472 10 406 10 l 406 10 q 388 10 370 7 q 351 4 335 0 l 335 0 l 341 -25 q 358 -21 375 -18 q 391 -16 406 -16 l 406 -16 q 459 -16 487 -42 q 514 -68 514 -130 l 514 -130 q 514 -164 503 -187 q 492 -211 472 -227 l 472 -227 q 452 -242 427 -249 q 401 -257 364 -257 l 364 -257 l 357 -257 l 357 -283 l 365 -283 q 403 -283 430 -291 q 456 -299 473 -315 l 473 -315 q 489 -330 497 -352 q 505 -374 505 -402 l 505 -402 q 505 -463 464 -497 q 423 -532 347 -532 l 347 -532 q 277 -532 225 -507 q 173 -482 138 -439 q 103 -396 86 -341 q 68 -286 68 -227 l 68 -227 l 68 -217 q 68 -144 81 -99 q 94 -54 120 -34 q 145 -14 180 -14 l 180 -14 q 204 -14 224 -26 q 244 -38 256 -68 q 268 -98 268 -150 l 268 -150 q 268 -208 245 -242 q 222 -276 175 -276 l 175 -276 q 137 -276 108 -257 q 78 -238 55 -209 l 55 -209 l 47 -233 q 79 -271 111 -286 q 142 -302 175 -302 l 175 -302 q 208 -302 235 -286 q 262 -270 279 -236 q 295 -203 295 -150 l 295 -150 q 295 -91 279 -55 q 263 -20 238 -4 q 212 12 180 12 l 180 12 q 140 12 109 -9 q 78 -30 60 -80 q 42 -131 42 -218 l 42 -218 q 42 -288 62 -349 q 81 -411 120 -457 q 158 -504 215 -531 q 272 -558 347 -558 z m 973 -558 l 973 -558 q 1018 -558 1050 -528 q 1081 -498 1098 -441 q 1115 -384 1115 -301 l 1115 -301 q 1115 -197 1094 -127 q 1073 -58 1026 -23 q 978 12 898 12 l 898 12 q 859 12 824 5 q 788 -3 750 -22 l 750 -22 l 762 -45 q 798 -28 828 -21 q 858 -14 898 -14 l 898 -14 q 973 -14 1014 -46 q 1055 -79 1072 -143 q 1088 -207 1088 -301 l 1088 -301 q 1088 -417 1057 -474 q 1026 -532 972 -532 l 972 -532 q 948 -532 932 -522 q 916 -513 905 -497 l 905 -497 q 886 -469 880 -430 q 874 -391 874 -348 l 874 -348 l 874 -255 l 848 -255 l 848 -351 q 848 -405 841 -440 q 834 -476 817 -498 l 817 -498 q 805 -514 788 -523 q 771 -532 748 -532 l 748 -532 q 696 -532 670 -491 q 643 -450 643 -388 l 643 -388 q 643 -354 648 -322 q 652 -290 660 -257 l 660 -257 l 635 -252 q 627 -284 622 -317 q 616 -351 616 -390 l 616 -390 q 616 -438 632 -476 q 647 -514 677 -536 q 706 -558 748 -558 l 748 -558 q 792 -558 824 -529 q 855 -501 865 -430 l 865 -430 l 858 -429 q 866 -496 897 -527 q 928 -558 973 -558 z"},"ക":{"ha":807,"x_min":35,"x_max":771,"o":"m 172 12 l 172 12 q 112 12 74 -26 q 35 -64 35 -141 l 35 -141 q 35 -177 48 -205 q 61 -233 86 -254 l 86 -254 q 108 -272 136 -282 q 163 -293 198 -297 q 233 -302 278 -302 l 278 -302 l 533 -302 q 600 -302 643 -292 q 686 -283 718 -259 l 718 -259 q 744 -240 758 -210 q 771 -180 771 -139 l 771 -139 q 771 -70 737 -29 q 702 12 634 12 l 634 12 q 620 12 602 10 q 583 7 563 2 l 563 2 l 570 -23 q 587 -19 603 -16 q 619 -14 635 -14 l 635 -14 q 693 -14 719 -47 q 744 -80 744 -138 l 744 -138 q 744 -175 733 -200 q 721 -225 700 -241 l 700 -241 q 672 -262 633 -269 q 594 -276 532 -276 l 532 -276 l 277 -276 q 215 -276 173 -267 q 131 -258 103 -235 l 103 -235 q 82 -217 72 -194 q 62 -171 62 -140 l 62 -140 q 62 -91 78 -63 q 94 -36 120 -25 q 146 -14 174 -14 l 174 -14 q 207 -14 236 -24 q 265 -35 301 -65 l 301 -65 l 317 -44 q 293 -25 272 -12 q 250 0 227 6 q 203 12 172 12 z m 405 -558 l 405 -558 q 461 -558 497 -526 q 533 -494 550 -431 q 567 -369 567 -276 l 567 -276 q 567 -168 547 -105 q 526 -42 489 -15 q 452 12 404 12 l 404 12 q 366 12 339 -2 q 311 -17 292 -43 l 292 -43 q 264 -82 253 -142 q 241 -202 241 -274 l 241 -274 q 241 -417 283 -487 q 325 -558 405 -558 z m 405 -532 l 405 -532 q 337 -532 302 -470 q 267 -409 267 -274 l 267 -274 q 267 -178 284 -121 q 300 -64 331 -39 q 361 -14 403 -14 l 403 -14 q 447 -14 478 -38 q 508 -63 525 -121 q 541 -179 541 -276 l 541 -276 q 541 -369 526 -425 q 510 -481 480 -506 q 449 -532 405 -532 z"},"ഖ":{"ha":775,"x_min":43,"x_max":706,"o":"m 287 -558 l 287 -558 q 340 -558 381 -538 q 421 -518 449 -481 q 476 -445 490 -395 q 504 -346 504 -288 l 504 -288 q 504 -210 485 -155 q 466 -101 441 -66 q 416 -32 394 -13 l 394 -13 l 402 0 l 381 0 l 370 -21 q 393 -43 418 -77 q 442 -112 460 -163 q 477 -215 477 -287 l 477 -287 q 477 -357 456 -412 q 435 -468 393 -500 q 351 -532 287 -532 l 287 -532 q 220 -532 171 -493 q 121 -454 95 -385 q 69 -317 69 -230 l 69 -230 l 69 -218 q 69 -144 83 -99 q 96 -54 121 -34 q 146 -14 181 -14 l 181 -14 q 205 -14 225 -26 q 245 -38 257 -68 q 269 -98 269 -150 l 269 -150 q 269 -208 247 -242 q 224 -276 176 -276 l 176 -276 q 139 -276 109 -257 q 79 -238 56 -209 l 56 -209 l 48 -233 q 80 -271 112 -286 q 144 -302 177 -302 l 177 -302 q 210 -302 237 -286 q 264 -270 280 -236 q 296 -203 296 -150 l 296 -150 q 296 -91 281 -55 q 265 -20 239 -4 q 213 12 181 12 l 181 12 q 142 12 111 -9 q 79 -31 61 -81 q 43 -132 43 -221 l 43 -221 q 43 -325 74 -400 q 104 -476 160 -517 q 215 -558 287 -558 z m 680 -546 l 706 -546 l 706 0 l 390 0 l 386 -26 l 680 -26 l 680 -546 z"},"ഗ":{"ha":683,"x_min":43,"x_max":640,"o":"m 471 -558 l 471 -558 q 524 -558 562 -526 q 600 -494 620 -436 q 640 -378 640 -298 l 640 -298 q 640 -220 623 -165 q 606 -110 579 -69 q 551 -28 521 7 l 521 7 l 502 -11 q 534 -46 559 -86 q 584 -126 599 -178 q 613 -230 613 -299 l 613 -299 q 613 -368 597 -420 q 581 -473 550 -502 q 519 -532 472 -532 l 472 -532 q 444 -532 425 -523 q 406 -515 392 -499 l 392 -499 q 370 -473 362 -429 q 354 -386 354 -317 l 354 -317 l 354 -218 q 354 -174 351 -139 q 348 -104 338 -77 q 328 -50 310 -29 l 310 -29 q 294 -10 270 1 q 245 12 212 12 l 212 12 q 158 12 120 -20 q 82 -52 63 -110 q 43 -169 43 -248 l 43 -248 q 43 -326 60 -381 q 77 -436 104 -477 q 131 -519 162 -553 l 162 -553 l 181 -535 q 150 -500 125 -460 q 99 -420 85 -368 q 70 -317 70 -247 l 70 -247 q 70 -178 86 -125 q 102 -73 134 -43 q 165 -14 211 -14 l 211 -14 q 239 -14 258 -22 q 277 -31 291 -47 l 291 -47 q 313 -73 321 -115 q 328 -158 328 -229 l 328 -229 l 328 -326 q 328 -393 337 -439 q 345 -486 373 -517 l 373 -517 q 389 -536 414 -547 q 438 -558 471 -558 z"},"ഘ":{"ha":1002,"x_min":33,"x_max":933,"o":"m 169 -558 l 169 -558 q 210 -558 241 -539 q 271 -521 289 -486 q 306 -451 306 -400 l 306 -400 q 306 -354 290 -314 q 274 -275 245 -246 l 245 -246 l 250 -262 l 416 -262 l 419 -236 l 238 -236 l 225 -256 q 251 -286 265 -322 q 279 -359 279 -399 l 279 -399 q 279 -467 249 -499 q 219 -532 169 -532 l 169 -532 q 135 -532 111 -515 q 86 -499 73 -469 q 60 -440 60 -401 l 60 -401 q 60 -350 79 -312 q 97 -275 124 -246 l 124 -246 l 106 -228 q 74 -263 54 -303 q 33 -344 33 -402 l 33 -402 q 33 -448 51 -483 q 68 -519 99 -538 q 129 -558 169 -558 z m 907 -546 l 933 -546 l 933 0 l 404 0 l 404 -335 q 404 -407 420 -452 q 435 -498 469 -524 l 469 -524 q 489 -541 516 -549 q 543 -558 576 -558 l 576 -558 q 607 -558 634 -550 q 660 -543 678 -527 l 678 -527 q 711 -502 727 -456 q 743 -410 743 -339 l 743 -339 l 743 -236 l 430 -236 l 430 -26 l 907 -26 l 907 -546 z m 575 -532 l 575 -532 q 503 -532 467 -486 q 430 -440 430 -334 l 430 -334 l 430 -262 l 717 -262 l 717 -332 q 717 -439 683 -485 q 648 -532 575 -532 z"},"ങ":{"ha":810,"x_min":45,"x_max":773,"o":"m 270 -558 l 270 -558 q 343 -558 384 -517 q 425 -477 433 -400 l 433 -400 l 434 -355 l 442 -266 l 442 0 l 416 0 l 416 -321 q 416 -393 404 -435 q 391 -477 362 -502 l 362 -502 q 345 -517 323 -524 q 301 -532 270 -532 l 270 -532 q 210 -532 165 -494 q 120 -457 96 -390 q 71 -324 71 -236 l 71 -236 l 71 -223 q 71 -147 85 -101 q 98 -55 123 -34 q 148 -14 183 -14 l 183 -14 q 207 -14 227 -26 q 247 -38 259 -68 q 271 -98 271 -150 l 271 -150 q 271 -208 249 -242 q 226 -276 178 -276 l 178 -276 q 141 -276 111 -257 q 81 -238 58 -209 l 58 -209 l 50 -233 q 82 -271 114 -286 q 146 -302 179 -302 l 179 -302 q 212 -302 239 -286 q 266 -270 282 -236 q 298 -203 298 -150 l 298 -150 q 298 -91 283 -55 q 267 -20 241 -4 q 215 12 183 12 l 183 12 q 144 12 113 -9 q 81 -31 63 -82 q 45 -134 45 -225 l 45 -225 q 45 -330 74 -404 q 102 -479 153 -518 q 204 -558 270 -558 z m 613 -558 l 613 -558 q 660 -558 694 -539 q 727 -521 746 -488 q 764 -455 764 -411 l 764 -411 q 764 -371 751 -340 q 738 -309 709 -290 q 680 -271 631 -267 l 631 -267 l 632 -274 q 697 -269 735 -232 q 773 -196 773 -130 l 773 -130 q 773 -63 739 -26 q 704 10 638 10 l 638 10 q 620 10 602 7 q 583 4 566 0 l 566 0 l 572 -25 q 590 -21 606 -18 q 622 -16 638 -16 l 638 -16 q 690 -16 718 -42 q 746 -68 746 -130 l 746 -130 q 746 -164 735 -187 q 723 -211 703 -227 l 703 -227 q 683 -242 657 -249 q 631 -257 590 -257 l 590 -257 l 581 -257 l 581 -283 l 591 -283 q 632 -283 659 -291 q 686 -299 703 -316 l 703 -316 q 719 -331 728 -353 q 737 -376 737 -410 l 737 -410 q 737 -468 704 -500 q 670 -532 614 -532 l 614 -532 q 577 -532 549 -520 q 521 -509 500 -488 l 500 -488 q 481 -470 468 -443 q 455 -417 449 -383 q 442 -349 442 -304 l 442 -304 l 442 -235 l 425 -239 l 422 -326 l 426 -371 q 432 -432 457 -474 q 482 -516 523 -537 q 563 -558 613 -558 z"},"ച":{"ha":717,"x_min":16,"x_max":648,"o":"m 622 -546 l 648 -546 l 648 0 l 16 0 l 16 -26 l 314 -26 l 297 -14 q 326 -47 347 -90 q 368 -133 368 -188 l 368 -188 q 368 -252 341 -285 q 313 -318 265 -318 l 265 -318 q 216 -318 189 -285 q 162 -252 162 -192 l 162 -192 q 162 -179 163 -164 q 164 -150 167 -136 l 167 -136 l 141 -133 q 139 -147 137 -162 q 135 -177 135 -192 l 135 -192 q 135 -266 173 -305 q 210 -344 265 -344 l 265 -344 q 295 -344 319 -333 q 343 -322 360 -302 q 376 -282 386 -253 q 395 -224 395 -188 l 395 -188 q 395 -148 385 -116 q 375 -84 360 -59 q 345 -34 330 -15 l 330 -15 l 319 -26 l 622 -26 l 622 -546 z"},"ഛ":{"ha":1038,"x_min":16,"x_max":995,"o":"m 265 -344 l 265 -344 q 295 -344 319 -333 q 343 -322 360 -302 q 376 -282 386 -253 q 395 -224 395 -188 l 395 -188 q 395 -148 385 -116 q 375 -84 360 -59 q 345 -34 330 -15 l 330 -15 l 319 -26 l 635 -26 l 634 0 l 16 0 l 16 -26 l 314 -26 l 297 -14 q 326 -47 347 -90 q 368 -133 368 -188 l 368 -188 q 368 -252 341 -285 q 313 -318 265 -318 l 265 -318 q 216 -318 189 -285 q 162 -252 162 -192 l 162 -192 q 162 -179 163 -164 q 164 -150 167 -136 l 167 -136 l 141 -133 q 139 -147 137 -162 q 135 -177 135 -192 l 135 -192 q 135 -266 173 -305 q 210 -344 265 -344 z m 754 -558 l 754 -558 q 814 -558 859 -535 q 904 -512 935 -469 q 965 -426 980 -367 q 995 -309 995 -238 l 995 -238 q 995 -143 977 -88 q 958 -34 926 -11 q 894 12 852 12 l 852 12 q 804 12 774 -12 q 743 -37 729 -82 q 714 -128 714 -188 l 714 -188 q 714 -286 754 -333 q 793 -380 856 -380 l 856 -380 q 890 -380 916 -366 q 941 -353 960 -331 q 978 -309 989 -284 l 989 -284 l 982 -263 q 969 -287 952 -307 q 935 -328 912 -341 q 889 -354 857 -354 l 857 -354 q 798 -354 770 -311 q 741 -269 741 -188 l 741 -188 q 741 -136 752 -96 q 763 -57 788 -35 q 812 -14 853 -14 l 853 -14 q 889 -14 915 -35 q 941 -56 955 -105 q 969 -155 969 -238 l 969 -238 q 969 -254 969 -271 q 968 -289 967 -296 l 967 -296 q 967 -298 968 -300 q 968 -303 967 -307 l 967 -307 q 959 -365 936 -416 q 912 -468 869 -500 q 825 -532 754 -532 l 754 -532 q 690 -532 644 -500 q 597 -468 573 -412 q 548 -357 548 -287 l 548 -287 q 548 -221 563 -171 q 577 -121 602 -84 q 626 -48 654 -21 l 654 -21 l 642 0 l 625 0 l 620 -21 q 602 -42 579 -75 q 555 -108 538 -159 q 521 -211 521 -287 l 521 -287 q 521 -343 536 -391 q 550 -440 580 -478 q 609 -516 653 -537 q 697 -558 754 -558 z"},"ജ":{"ha":724,"x_min":34,"x_max":683,"o":"m 229 -558 l 229 -558 q 274 -558 309 -543 q 343 -529 365 -497 q 387 -465 395 -413 l 395 -413 l 385 -400 q 393 -487 433 -522 q 473 -558 529 -558 l 529 -558 q 581 -558 615 -533 q 649 -508 666 -467 q 683 -427 683 -381 l 683 -381 q 683 -340 673 -307 q 662 -275 640 -251 q 617 -228 582 -214 l 582 -214 l 547 -208 l 513 -197 q 494 -193 470 -190 q 446 -187 409 -187 l 409 -187 l 205 -187 q 161 -187 133 -181 q 105 -176 86 -161 l 86 -161 q 74 -152 68 -137 q 61 -123 61 -103 l 61 -103 q 61 -71 73 -51 q 85 -32 107 -23 q 129 -14 155 -14 l 155 -14 q 186 -14 214 -21 q 242 -29 273 -46 q 303 -64 340 -94 l 340 -94 q 378 -122 402 -140 q 426 -159 443 -170 q 459 -181 473 -189 q 487 -197 505 -205 l 505 -205 q 513 -210 521 -213 q 529 -216 537 -218 q 545 -220 553 -221 q 560 -222 567 -222 l 567 -222 q 595 -222 617 -210 q 638 -198 651 -173 q 664 -149 664 -110 l 664 -110 q 664 -44 634 -16 q 603 12 560 12 l 560 12 q 523 12 501 -4 q 478 -21 468 -48 q 458 -76 458 -107 l 458 -107 q 458 -139 468 -161 q 478 -184 501 -212 l 501 -212 l 519 -210 q 509 -198 501 -183 q 493 -168 488 -149 q 483 -131 483 -108 l 483 -108 q 483 -64 502 -39 q 521 -14 560 -14 l 560 -14 q 597 -14 617 -36 q 637 -59 637 -110 l 637 -110 q 637 -147 626 -167 q 614 -187 597 -195 q 579 -203 560 -203 l 560 -203 q 544 -203 527 -196 q 509 -190 493 -176 l 493 -176 l 489 -180 q 478 -171 463 -158 q 448 -145 424 -125 q 400 -106 360 -76 l 360 -76 q 317 -44 285 -24 q 253 -5 223 4 q 192 12 154 12 l 154 12 q 125 12 97 1 q 69 -11 52 -36 q 34 -62 34 -103 l 34 -103 q 34 -128 43 -146 q 51 -165 66 -178 l 66 -178 q 88 -198 119 -205 q 150 -213 201 -213 l 201 -213 l 425 -213 q 472 -213 506 -217 q 540 -222 564 -231 q 588 -240 606 -254 l 606 -254 q 631 -275 644 -306 q 656 -337 656 -380 l 656 -380 q 656 -417 643 -451 q 630 -486 603 -509 q 575 -532 529 -532 l 529 -532 q 501 -532 482 -524 q 463 -517 449 -504 l 449 -504 q 424 -478 415 -438 q 405 -399 405 -338 l 405 -338 l 405 -258 l 379 -258 l 379 -335 q 379 -398 367 -438 q 355 -479 326 -503 l 326 -503 q 307 -518 284 -525 q 260 -532 228 -532 l 228 -532 q 173 -532 134 -508 q 95 -485 77 -442 l 77 -442 q 76 -439 76 -436 q 75 -433 74 -430 l 74 -430 q 71 -419 69 -406 q 67 -394 67 -381 l 67 -381 q 67 -320 91 -296 q 115 -272 148 -272 l 148 -272 q 177 -272 193 -285 q 209 -298 216 -319 q 222 -340 222 -364 l 222 -364 q 222 -406 204 -428 q 185 -450 148 -450 l 148 -450 q 122 -450 99 -438 q 75 -426 51 -400 l 51 -400 l 55 -430 q 73 -449 98 -462 q 123 -475 149 -475 l 149 -475 q 183 -475 206 -460 q 228 -445 240 -420 q 251 -396 251 -367 l 251 -367 q 251 -331 239 -303 q 226 -276 203 -261 q 180 -246 148 -246 l 148 -246 q 99 -246 70 -280 q 41 -315 41 -381 l 41 -381 q 41 -430 63 -470 q 84 -510 126 -534 q 168 -558 229 -558 z"},"ഝ":{"ha":1273,"x_min":43,"x_max":1230,"o":"m 508 -558 l 508 -558 q 542 -558 571 -548 q 599 -538 620 -520 l 620 -520 q 654 -489 668 -441 q 681 -394 681 -311 l 681 -311 l 681 -220 q 681 -150 689 -110 q 697 -71 718 -46 l 718 -46 q 732 -31 751 -22 q 770 -14 797 -14 l 797 -14 q 821 -14 839 -21 q 856 -28 869 -41 l 869 -41 q 892 -65 901 -107 q 910 -150 910 -212 l 910 -212 l 910 -546 l 936 -546 l 936 -218 q 936 -153 946 -111 q 956 -70 981 -44 l 981 -44 q 995 -30 1013 -22 q 1031 -14 1060 -14 l 1060 -14 q 1108 -14 1140 -46 q 1171 -78 1187 -131 q 1203 -185 1203 -247 l 1203 -247 q 1203 -316 1189 -368 q 1174 -420 1149 -460 q 1124 -500 1092 -535 l 1092 -535 l 1111 -552 q 1142 -517 1169 -476 q 1196 -436 1213 -381 q 1230 -326 1230 -247 l 1230 -247 q 1230 -173 1210 -114 q 1190 -56 1151 -22 q 1112 12 1058 12 l 1058 12 q 1000 12 966 -23 q 932 -58 920 -130 l 920 -130 l 927 -136 q 923 -85 907 -52 q 890 -19 862 -3 q 834 12 797 12 l 797 12 q 764 12 740 1 q 715 -11 699 -29 l 699 -29 q 682 -49 673 -72 q 663 -95 659 -127 q 655 -160 655 -207 l 655 -207 l 655 -301 q 655 -354 650 -392 q 645 -430 634 -456 q 622 -483 602 -500 l 602 -500 q 585 -516 562 -524 q 539 -532 508 -532 l 508 -532 q 476 -532 450 -522 q 423 -512 400 -495 l 400 -495 l 391 -488 q 352 -456 327 -407 q 301 -359 289 -305 q 277 -252 277 -204 l 277 -204 q 277 -132 291 -90 q 305 -49 330 -31 q 355 -14 388 -14 l 388 -14 q 421 -14 446 -32 q 471 -50 485 -92 q 499 -134 499 -205 l 499 -205 q 499 -253 487 -307 q 474 -361 449 -409 q 423 -458 383 -490 l 383 -490 l 376 -496 q 352 -515 325 -523 q 298 -532 266 -532 l 266 -532 q 199 -532 156 -498 q 112 -465 91 -409 q 70 -353 70 -287 l 70 -287 q 70 -220 85 -169 q 99 -119 126 -81 q 152 -43 184 -12 l 184 -12 l 166 7 q 138 -21 110 -59 q 81 -98 62 -153 q 43 -209 43 -286 l 43 -286 q 43 -344 58 -393 q 72 -443 101 -480 q 130 -517 172 -537 q 213 -558 267 -558 l 267 -558 q 305 -558 336 -546 q 367 -534 396 -511 l 396 -511 l 405 -504 q 463 -453 495 -372 q 526 -292 526 -205 l 526 -205 q 526 -125 508 -77 q 490 -30 459 -9 q 427 12 388 12 l 388 12 q 349 12 318 -8 q 286 -29 268 -76 q 250 -124 250 -204 l 250 -204 q 250 -259 263 -314 q 276 -370 304 -419 q 331 -469 372 -504 l 372 -504 l 379 -510 q 408 -533 440 -545 q 472 -558 508 -558 z"},"ഞ":{"ha":1099,"x_min":45,"x_max":1056,"o":"m 270 -558 l 270 -558 q 343 -558 384 -517 q 425 -477 433 -400 l 433 -400 l 434 -355 l 442 -248 l 442 0 l 416 0 l 416 -321 q 416 -393 404 -435 q 391 -477 362 -502 l 362 -502 q 345 -517 323 -524 q 301 -532 270 -532 l 270 -532 q 210 -532 165 -494 q 120 -457 96 -390 q 71 -324 71 -236 l 71 -236 l 71 -223 q 71 -147 85 -101 q 98 -55 123 -34 q 148 -14 183 -14 l 183 -14 q 207 -14 227 -26 q 247 -38 259 -68 q 271 -98 271 -150 l 271 -150 q 271 -208 249 -242 q 226 -276 178 -276 l 178 -276 q 141 -276 111 -257 q 81 -238 58 -209 l 58 -209 l 50 -233 q 82 -271 114 -286 q 146 -302 179 -302 l 179 -302 q 212 -302 239 -286 q 266 -270 282 -236 q 298 -203 298 -150 l 298 -150 q 298 -91 283 -55 q 267 -20 241 -4 q 215 12 183 12 l 183 12 q 144 12 113 -9 q 81 -31 63 -82 q 45 -134 45 -225 l 45 -225 q 45 -330 74 -404 q 102 -479 153 -518 q 204 -558 270 -558 z m 590 -558 l 590 -558 q 627 -558 658 -546 q 689 -535 717 -512 l 717 -512 l 727 -504 q 785 -454 817 -373 q 848 -293 848 -205 l 848 -205 q 848 -125 830 -77 q 812 -30 781 -9 q 749 12 710 12 l 710 12 q 670 12 639 -8 q 607 -29 590 -76 q 572 -124 572 -204 l 572 -204 q 572 -259 586 -314 q 599 -370 627 -419 q 655 -469 696 -504 l 696 -504 l 703 -510 q 732 -533 766 -545 q 799 -558 839 -558 l 839 -558 q 891 -558 932 -537 q 972 -517 1000 -481 q 1027 -445 1042 -395 q 1056 -346 1056 -287 l 1056 -287 q 1056 -210 1037 -154 q 1018 -99 990 -60 q 961 -21 931 8 l 931 8 l 913 -11 q 941 -38 968 -74 q 994 -111 1012 -162 q 1029 -214 1029 -287 l 1029 -287 q 1029 -357 1008 -412 q 987 -468 945 -500 q 902 -532 839 -532 l 839 -532 q 804 -532 776 -522 q 747 -512 724 -495 l 724 -495 l 715 -488 q 676 -456 650 -407 q 624 -359 612 -305 q 599 -252 599 -204 l 599 -204 q 599 -132 613 -90 q 626 -49 651 -31 q 676 -14 710 -14 l 710 -14 q 743 -14 768 -32 q 793 -50 807 -92 q 821 -134 821 -205 l 821 -205 q 821 -254 809 -308 q 796 -362 770 -410 q 744 -459 705 -490 l 705 -490 l 697 -496 q 682 -509 665 -516 q 647 -524 629 -528 q 610 -532 589 -532 l 589 -532 q 560 -532 538 -524 q 515 -516 497 -501 l 497 -501 q 465 -475 454 -431 q 442 -387 442 -322 l 442 -322 l 442 -68 l 422 -68 l 424 -239 l 423 -387 q 428 -447 451 -484 q 474 -522 510 -540 q 546 -558 590 -558 z"},"ട":{"ha":419,"x_min":21,"x_max":391,"o":"m 214 -558 l 214 -558 q 265 -558 307 -548 q 348 -538 391 -518 l 391 -518 l 376 -496 q 334 -515 297 -523 q 259 -532 214 -532 l 214 -532 q 158 -532 124 -515 q 90 -498 75 -470 q 60 -442 60 -409 l 60 -409 q 60 -380 68 -359 q 76 -339 90 -326 l 90 -326 q 109 -306 139 -299 q 168 -293 210 -292 l 210 -292 l 213 -292 q 260 -291 292 -281 q 324 -271 347 -248 l 347 -248 q 366 -230 376 -205 q 385 -180 385 -143 l 385 -143 q 385 -99 366 -63 q 347 -28 307 -8 q 266 12 201 12 l 201 12 q 157 12 113 2 q 68 -8 21 -30 l 21 -30 l 35 -52 q 60 -41 86 -32 q 111 -24 140 -19 q 168 -14 201 -14 l 201 -14 q 261 -14 295 -31 q 329 -48 344 -78 q 358 -108 358 -144 l 358 -144 q 358 -173 351 -194 q 343 -215 329 -229 l 329 -229 q 311 -249 283 -257 q 254 -265 212 -266 l 212 -266 l 209 -266 q 157 -267 124 -277 q 90 -288 68 -310 l 68 -310 q 51 -329 42 -353 q 33 -378 33 -409 l 33 -409 q 33 -448 52 -482 q 71 -516 112 -537 q 152 -558 214 -558 z"},"ഠ":{"ha":507,"x_min":43,"x_max":464,"o":"m 254 -558 l 254 -558 q 320 -558 367 -525 q 414 -492 439 -428 q 464 -365 464 -273 l 464 -273 q 464 -184 439 -120 q 413 -56 365 -22 q 317 12 252 12 l 252 12 q 186 12 139 -21 q 92 -55 68 -119 q 43 -183 43 -274 l 43 -274 q 43 -364 69 -427 q 95 -491 143 -524 q 190 -558 254 -558 z m 252 -14 l 252 -14 q 313 -14 354 -46 q 395 -78 416 -136 q 437 -195 437 -273 l 437 -273 q 437 -358 416 -415 q 395 -473 355 -502 q 314 -532 254 -532 l 254 -532 q 167 -532 119 -464 q 70 -396 70 -273 l 70 -273 q 70 -147 117 -80 q 164 -14 252 -14 z"},"ഡ":{"ha":947,"x_min":43,"x_max":904,"o":"m 470 12 l 470 12 q 438 12 414 1 q 389 -11 373 -29 l 373 -29 q 356 -49 347 -72 q 337 -95 333 -127 q 328 -160 328 -207 l 328 -207 l 328 -317 q 328 -388 321 -430 q 313 -473 291 -499 l 291 -499 q 277 -515 258 -523 q 239 -532 211 -532 l 211 -532 q 165 -532 134 -502 q 102 -473 86 -420 q 70 -368 70 -299 l 70 -299 q 70 -230 85 -178 q 99 -126 125 -86 q 150 -46 181 -11 l 181 -11 l 162 7 q 131 -28 104 -69 q 77 -110 60 -165 q 43 -220 43 -298 l 43 -298 q 43 -378 63 -436 q 82 -494 120 -526 q 158 -558 212 -558 l 212 -558 q 245 -558 270 -547 q 294 -536 310 -517 l 310 -517 q 328 -496 338 -469 q 348 -442 351 -407 q 354 -373 354 -328 l 354 -328 l 354 -220 q 354 -150 363 -110 q 371 -71 392 -46 l 392 -46 q 405 -31 425 -22 q 444 -14 470 -14 l 470 -14 q 495 -14 513 -21 q 530 -28 543 -41 l 543 -41 q 566 -65 575 -107 q 584 -150 584 -212 l 584 -212 l 584 -546 l 610 -546 l 610 -218 q 610 -153 620 -111 q 630 -70 655 -44 l 655 -44 q 669 -30 687 -22 q 705 -14 734 -14 l 734 -14 q 782 -14 814 -46 q 845 -78 861 -131 q 877 -185 877 -247 l 877 -247 q 877 -316 863 -368 q 848 -420 823 -460 q 798 -500 766 -535 l 766 -535 l 785 -552 q 816 -517 843 -476 q 870 -436 887 -381 q 904 -326 904 -247 l 904 -247 q 904 -173 884 -114 q 863 -56 825 -22 q 786 12 732 12 l 732 12 q 673 12 639 -23 q 605 -58 594 -130 l 594 -130 l 601 -136 q 595 -58 561 -23 q 527 12 470 12 z"},"ഢ":{"ha":1026,"x_min":43,"x_max":981,"o":"m 470 12 l 470 12 q 438 12 414 1 q 389 -11 373 -29 l 373 -29 q 356 -49 347 -72 q 337 -95 333 -127 q 328 -160 328 -207 l 328 -207 l 328 -317 q 328 -388 321 -430 q 313 -473 291 -499 l 291 -499 q 277 -515 258 -523 q 239 -532 211 -532 l 211 -532 q 165 -532 134 -502 q 102 -473 86 -420 q 70 -368 70 -299 l 70 -299 q 70 -230 85 -178 q 99 -126 125 -86 q 150 -46 181 -11 l 181 -11 l 162 7 q 131 -28 104 -69 q 77 -110 60 -165 q 43 -220 43 -298 l 43 -298 q 43 -378 63 -436 q 82 -494 120 -526 q 158 -558 212 -558 l 212 -558 q 245 -558 270 -547 q 294 -536 310 -517 l 310 -517 q 328 -496 338 -469 q 348 -442 351 -407 q 354 -373 354 -328 l 354 -328 l 354 -220 q 354 -150 363 -110 q 371 -71 392 -46 l 392 -46 q 405 -31 425 -22 q 444 -14 470 -14 l 470 -14 q 495 -14 513 -21 q 530 -28 543 -41 l 543 -41 q 566 -65 575 -107 q 584 -150 584 -212 l 584 -212 l 584 -546 l 610 -546 l 610 -241 l 601 -136 q 595 -58 561 -23 q 527 12 470 12 z m 843 -558 l 843 -558 q 882 -558 913 -536 q 944 -515 963 -463 q 981 -412 981 -321 l 981 -321 q 981 -217 952 -142 q 923 -67 873 -27 q 822 12 755 12 l 755 12 q 683 12 642 -28 q 600 -69 593 -146 l 593 -146 l 591 -228 l 592 -520 l 610 -520 l 610 -225 q 610 -153 623 -111 q 635 -69 663 -44 l 663 -44 q 680 -29 702 -21 q 724 -14 756 -14 l 756 -14 q 817 -14 861 -51 q 905 -89 930 -156 q 955 -223 955 -310 l 955 -310 l 955 -323 q 955 -400 942 -445 q 928 -491 903 -511 q 878 -532 843 -532 l 843 -532 q 819 -532 799 -520 q 779 -508 767 -478 q 754 -449 754 -396 l 754 -396 q 754 -339 777 -304 q 800 -270 847 -270 l 847 -270 q 885 -270 915 -289 q 945 -308 968 -337 l 968 -337 l 976 -313 q 944 -275 912 -259 q 880 -244 847 -244 l 847 -244 q 814 -244 787 -260 q 760 -276 744 -309 q 727 -343 727 -396 l 727 -396 q 727 -455 743 -490 q 759 -526 786 -542 q 812 -558 843 -558 z"},"ണ":{"ha":1050,"x_min":45,"x_max":1007,"o":"m 270 -558 l 270 -558 q 343 -558 382 -519 q 421 -481 432 -408 l 432 -408 l 424 -409 q 433 -484 469 -521 q 504 -558 565 -558 l 565 -558 q 624 -558 661 -523 q 697 -488 704 -410 l 704 -410 l 697 -416 q 708 -488 742 -523 q 776 -558 835 -558 l 835 -558 q 889 -558 928 -524 q 966 -490 987 -431 q 1007 -373 1007 -299 l 1007 -299 q 1007 -220 990 -164 q 973 -109 946 -69 q 918 -29 888 6 l 888 6 l 869 -11 q 901 -46 926 -86 q 951 -127 966 -178 q 980 -230 980 -299 l 980 -299 q 980 -362 964 -415 q 947 -468 916 -500 q 884 -532 837 -532 l 837 -532 q 808 -532 790 -524 q 771 -517 757 -502 l 757 -502 q 733 -477 723 -435 q 713 -393 713 -328 l 713 -328 l 713 0 l 687 0 l 687 -328 q 687 -396 678 -436 q 669 -476 645 -500 l 645 -500 q 632 -515 612 -523 q 592 -532 564 -532 l 564 -532 q 537 -532 517 -523 q 497 -515 484 -500 l 484 -500 q 460 -476 451 -435 q 442 -395 442 -329 l 442 -329 l 442 0 l 416 0 l 416 -321 q 416 -393 404 -435 q 391 -477 362 -502 l 362 -502 q 345 -517 323 -524 q 301 -532 270 -532 l 270 -532 q 210 -532 165 -494 q 120 -457 96 -390 q 71 -324 71 -236 l 71 -236 l 71 -223 q 71 -147 85 -101 q 98 -55 123 -34 q 148 -14 183 -14 l 183 -14 q 207 -14 227 -26 q 247 -38 259 -68 q 271 -98 271 -150 l 271 -150 q 271 -208 249 -242 q 226 -276 178 -276 l 178 -276 q 141 -276 111 -257 q 81 -238 58 -209 l 58 -209 l 50 -233 q 82 -271 114 -286 q 146 -302 179 -302 l 179 -302 q 212 -302 239 -286 q 266 -270 282 -236 q 298 -203 298 -150 l 298 -150 q 298 -91 283 -55 q 267 -20 241 -4 q 215 12 183 12 l 183 12 q 144 12 113 -9 q 81 -31 63 -82 q 45 -134 45 -225 l 45 -225 q 45 -330 74 -404 q 102 -479 153 -518 q 204 -558 270 -558 z"},"ത":{"ha":777,"x_min":43,"x_max":734,"o":"m 388 12 l 388 12 q 349 12 318 -8 q 286 -29 268 -76 q 250 -124 250 -204 l 250 -204 q 250 -259 264 -314 q 278 -370 306 -419 q 333 -469 374 -504 l 374 -504 l 381 -510 q 410 -533 444 -545 q 477 -558 517 -558 l 517 -558 q 569 -558 610 -537 q 650 -517 678 -481 q 706 -445 720 -395 q 734 -346 734 -287 l 734 -287 q 734 -210 716 -154 q 697 -99 668 -60 q 639 -21 609 8 l 609 8 l 591 -11 q 619 -38 646 -74 q 673 -111 690 -162 q 707 -214 707 -287 l 707 -287 q 707 -357 686 -412 q 665 -468 623 -500 q 580 -532 517 -532 l 517 -532 q 482 -532 454 -522 q 426 -512 402 -495 l 402 -495 l 394 -488 q 354 -456 328 -407 q 302 -359 290 -305 q 277 -252 277 -204 l 277 -204 q 277 -132 291 -90 q 305 -49 330 -31 q 355 -14 388 -14 l 388 -14 q 421 -14 446 -32 q 471 -50 485 -92 q 499 -134 499 -205 l 499 -205 q 499 -253 487 -307 q 474 -361 449 -409 q 423 -458 383 -490 l 383 -490 l 376 -496 q 352 -515 325 -523 q 298 -532 266 -532 l 266 -532 q 199 -532 156 -498 q 112 -465 91 -409 q 70 -353 70 -287 l 70 -287 q 70 -220 85 -169 q 99 -119 126 -81 q 152 -43 184 -12 l 184 -12 l 166 7 q 138 -21 110 -59 q 81 -98 62 -153 q 43 -209 43 -286 l 43 -286 q 43 -344 58 -393 q 72 -443 101 -480 q 130 -517 172 -537 q 213 -558 267 -558 l 267 -558 q 305 -558 336 -546 q 367 -534 396 -511 l 396 -511 l 405 -504 q 463 -453 495 -372 q 526 -292 526 -205 l 526 -205 q 526 -125 508 -77 q 490 -30 459 -9 q 427 12 388 12 z"},"ഥ":{"ha":696,"x_min":69,"x_max":633,"o":"m 69 -546 l 95 -546 l 95 -26 l 300 -26 l 300 0 l 69 0 l 69 -546 z m 460 -558 l 460 -558 q 498 -558 527 -546 q 555 -534 574 -515 l 574 -515 q 610 -482 622 -435 q 633 -388 633 -321 l 633 -321 l 633 0 l 285 0 l 285 -329 q 285 -369 291 -403 q 296 -438 309 -465 q 321 -493 344 -515 l 344 -515 q 364 -534 393 -546 q 422 -558 460 -558 z m 460 -532 l 460 -532 q 428 -532 402 -522 q 375 -512 358 -494 l 358 -494 q 329 -464 320 -419 q 311 -374 311 -312 l 311 -312 l 311 -26 l 607 -26 l 607 -313 q 607 -373 598 -419 q 589 -466 559 -494 l 559 -494 q 542 -512 518 -522 q 493 -532 460 -532 z"},"ദ":{"ha":488,"x_min":49,"x_max":451,"o":"m 290 -558 l 290 -558 q 337 -558 371 -540 q 405 -522 424 -489 q 442 -456 442 -411 l 442 -411 q 442 -347 411 -310 q 379 -274 315 -268 l 315 -268 l 315 -274 q 378 -269 415 -231 q 451 -194 451 -129 l 451 -129 q 451 -62 414 -26 q 377 10 311 10 l 311 10 q 287 10 268 7 q 248 4 232 0 l 232 0 l 238 -26 q 255 -22 273 -19 q 290 -16 312 -16 l 312 -16 q 365 -16 395 -42 q 424 -68 424 -130 l 424 -130 q 424 -163 414 -186 q 403 -209 384 -225 l 384 -225 q 365 -241 338 -249 q 311 -257 267 -257 l 267 -257 l 245 -257 l 245 -283 l 266 -283 q 307 -283 334 -290 q 361 -298 379 -314 l 379 -314 q 396 -329 406 -352 q 415 -375 415 -410 l 415 -410 q 415 -471 381 -501 q 347 -532 290 -532 l 290 -532 q 220 -532 172 -491 q 124 -451 100 -380 q 76 -310 76 -221 l 76 -221 q 76 -158 84 -105 q 91 -52 102 0 l 102 0 l 76 5 q 65 -48 57 -105 q 49 -163 49 -220 l 49 -220 q 49 -321 78 -397 q 107 -473 161 -515 q 215 -558 290 -558 z"},"ധ":{"ha":700,"x_min":43,"x_max":657,"o":"m 483 12 l 483 12 q 445 12 417 -3 q 389 -18 372 -50 q 355 -82 347 -130 l 347 -130 l 353 -130 q 343 -58 309 -23 q 274 12 215 12 l 215 12 q 161 12 123 -22 q 84 -56 64 -114 q 43 -173 43 -247 l 43 -247 q 43 -326 60 -381 q 77 -437 104 -477 q 131 -517 162 -552 l 162 -552 l 181 -535 q 150 -500 125 -460 q 99 -420 85 -368 q 70 -316 70 -247 l 70 -247 q 70 -185 86 -131 q 102 -78 134 -46 q 166 -14 214 -14 l 214 -14 q 242 -14 260 -22 q 278 -30 292 -44 l 292 -44 q 317 -70 327 -111 q 337 -153 337 -218 l 337 -218 l 337 -546 l 363 -546 l 363 -218 q 363 -154 373 -112 q 383 -70 407 -44 l 407 -44 q 421 -30 439 -22 q 457 -14 483 -14 l 483 -14 q 532 -14 565 -45 q 597 -77 614 -131 q 630 -185 630 -247 l 630 -247 q 630 -317 616 -368 q 601 -420 576 -460 q 551 -500 519 -535 l 519 -535 l 539 -552 q 569 -517 597 -476 q 624 -436 641 -381 q 657 -326 657 -248 l 657 -248 q 657 -171 636 -112 q 615 -54 576 -21 q 536 12 483 12 z"},"ന":{"ha":700,"x_min":43,"x_max":657,"o":"m 217 -558 l 217 -558 q 255 -558 283 -543 q 311 -528 329 -496 q 346 -465 353 -416 l 353 -416 l 347 -416 q 358 -488 393 -523 q 427 -558 485 -558 l 485 -558 q 540 -558 579 -524 q 617 -490 637 -431 q 657 -373 657 -299 l 657 -299 q 657 -220 641 -164 q 624 -109 597 -69 q 569 -29 538 6 l 538 6 l 519 -11 q 551 -46 576 -86 q 601 -127 616 -178 q 630 -230 630 -299 l 630 -299 q 630 -362 614 -415 q 598 -468 566 -500 q 534 -532 487 -532 l 487 -532 q 459 -532 441 -524 q 422 -517 408 -502 l 408 -502 q 383 -477 373 -435 q 363 -393 363 -328 l 363 -328 l 363 0 l 337 0 l 337 -328 q 337 -392 327 -434 q 317 -476 293 -502 l 293 -502 q 279 -517 261 -524 q 243 -532 217 -532 l 217 -532 q 169 -532 136 -500 q 103 -469 87 -415 q 70 -362 70 -299 l 70 -299 q 70 -230 85 -178 q 99 -126 125 -86 q 150 -46 181 -11 l 181 -11 l 162 6 q 131 -29 104 -69 q 77 -110 60 -165 q 43 -220 43 -298 l 43 -298 q 43 -375 65 -433 q 86 -492 126 -525 q 165 -558 217 -558 z"},"ഩ":{"ha":779,"x_min":45,"x_max":736,"o":"m 270 -558 l 270 -558 q 343 -558 383 -519 q 422 -480 432 -410 l 432 -410 l 425 -417 q 437 -488 471 -523 q 505 -558 564 -558 l 564 -558 q 618 -558 657 -524 q 695 -490 716 -431 q 736 -373 736 -299 l 736 -299 q 736 -221 719 -165 q 702 -110 675 -69 q 648 -29 617 6 l 617 6 l 598 -11 q 630 -46 655 -86 q 680 -127 695 -178 q 709 -230 709 -299 l 709 -299 q 709 -362 693 -415 q 677 -468 645 -500 q 613 -532 565 -532 l 565 -532 q 537 -532 519 -524 q 501 -517 487 -502 l 487 -502 q 462 -477 452 -435 q 442 -393 442 -328 l 442 -328 l 442 0 l 416 0 l 416 -321 q 416 -393 404 -435 q 391 -477 362 -502 l 362 -502 q 345 -517 323 -524 q 301 -532 270 -532 l 270 -532 q 210 -532 165 -494 q 120 -457 96 -390 q 71 -324 71 -236 l 71 -236 l 71 -223 q 71 -147 85 -101 q 98 -55 123 -34 q 148 -14 183 -14 l 183 -14 q 207 -14 227 -26 q 247 -38 259 -68 q 271 -98 271 -150 l 271 -150 q 271 -208 249 -242 q 226 -276 178 -276 l 178 -276 q 141 -276 111 -257 q 81 -238 58 -209 l 58 -209 l 50 -233 q 82 -271 114 -286 q 146 -302 179 -302 l 179 -302 q 212 -302 239 -286 q 266 -270 282 -236 q 298 -203 298 -150 l 298 -150 q 298 -91 283 -55 q 267 -20 241 -4 q 215 12 183 12 l 183 12 q 144 12 113 -9 q 81 -31 63 -82 q 45 -134 45 -225 l 45 -225 q 45 -330 74 -404 q 102 -479 153 -518 q 204 -558 270 -558 z"},"പ":{"ha":687,"x_min":35,"x_max":618,"o":"m 172 -327 l 172 -327 q 212 -327 243 -308 q 274 -290 291 -254 q 308 -218 308 -167 l 308 -167 q 308 -120 292 -79 q 275 -39 246 -10 l 246 -10 l 251 -26 l 592 -26 l 592 -546 l 618 -546 l 618 0 l 239 0 l 226 -20 q 253 -51 267 -88 q 281 -125 281 -166 l 281 -166 q 281 -234 251 -267 q 221 -301 172 -301 l 172 -301 q 137 -301 113 -284 q 88 -267 75 -237 q 62 -208 62 -168 l 62 -168 q 62 -116 81 -78 q 100 -40 128 -10 l 128 -10 l 109 8 q 77 -28 56 -69 q 35 -111 35 -169 l 35 -169 q 35 -216 53 -251 q 70 -287 101 -307 q 131 -327 172 -327 z"},"ഫ":{"ha":873,"x_min":35,"x_max":810,"o":"m 172 -327 l 172 -327 q 212 -327 243 -308 q 274 -290 291 -254 q 308 -218 308 -167 l 308 -167 q 308 -120 292 -79 q 275 -39 246 -10 l 246 -10 l 251 -26 l 485 -26 l 485 0 l 239 0 l 226 -20 q 253 -51 267 -88 q 281 -125 281 -166 l 281 -166 q 281 -234 251 -267 q 221 -301 172 -301 l 172 -301 q 137 -301 113 -284 q 88 -267 75 -237 q 62 -208 62 -168 l 62 -168 q 62 -116 81 -78 q 100 -40 128 -10 l 128 -10 l 109 8 q 77 -28 56 -69 q 35 -111 35 -169 l 35 -169 q 35 -216 53 -251 q 70 -287 101 -307 q 131 -327 172 -327 z m 637 -558 l 637 -558 q 675 -558 704 -546 q 732 -534 752 -515 l 752 -515 q 787 -482 799 -435 q 810 -388 810 -321 l 810 -321 l 810 0 l 462 0 l 462 -329 q 462 -369 467 -403 q 472 -438 485 -465 q 498 -493 521 -515 l 521 -515 q 541 -534 570 -546 q 599 -558 637 -558 z m 637 -532 l 637 -532 q 605 -532 579 -522 q 552 -512 535 -494 l 535 -494 q 507 -464 498 -419 q 488 -374 488 -312 l 488 -312 l 488 -26 l 784 -26 l 784 -313 q 784 -373 775 -419 q 766 -466 736 -494 l 736 -494 q 719 -512 695 -522 q 670 -532 637 -532 z"},"ബ":{"ha":1008,"x_min":45,"x_max":939,"o":"m 270 -558 l 270 -558 q 343 -558 383 -519 q 422 -480 432 -410 l 432 -410 l 436 -368 l 442 -269 l 442 0 l 416 0 l 416 -321 q 416 -393 404 -435 q 391 -477 362 -502 l 362 -502 q 345 -517 323 -524 q 301 -532 270 -532 l 270 -532 q 210 -532 165 -494 q 120 -457 96 -390 q 71 -324 71 -236 l 71 -236 l 71 -223 q 71 -147 85 -101 q 98 -55 123 -34 q 148 -14 183 -14 l 183 -14 q 207 -14 227 -26 q 247 -38 259 -68 q 271 -98 271 -150 l 271 -150 q 271 -208 249 -242 q 226 -276 178 -276 l 178 -276 q 141 -276 111 -257 q 81 -238 58 -209 l 58 -209 l 50 -233 q 82 -271 114 -286 q 146 -302 179 -302 l 179 -302 q 212 -302 239 -286 q 266 -270 282 -236 q 298 -203 298 -150 l 298 -150 q 298 -91 283 -55 q 267 -20 241 -4 q 215 12 183 12 l 183 12 q 144 12 113 -9 q 81 -31 63 -82 q 45 -134 45 -225 l 45 -225 q 45 -330 74 -404 q 102 -479 153 -518 q 204 -558 270 -558 z m 913 -546 l 939 -546 l 939 0 l 620 0 l 609 -21 q 636 -55 659 -93 q 682 -131 696 -181 q 709 -231 709 -299 l 709 -299 q 709 -362 693 -415 q 677 -468 645 -500 q 613 -532 565 -532 l 565 -532 q 537 -532 519 -524 q 501 -517 487 -502 l 487 -502 q 462 -477 452 -435 q 442 -393 442 -328 l 442 -328 l 442 -10 l 418 -10 l 418 -274 l 424 -357 l 425 -416 q 437 -488 471 -523 q 505 -558 564 -558 l 564 -558 q 618 -558 657 -524 q 695 -490 716 -431 q 736 -373 736 -299 l 736 -299 q 736 -224 721 -171 q 705 -118 683 -81 q 660 -45 637 -19 l 637 -19 l 631 -26 l 913 -26 l 913 -546 z"},"ഭ":{"ha":499,"x_min":49,"x_max":465,"o":"m 307 -558 l 307 -558 q 355 -558 391 -542 q 426 -526 446 -496 q 465 -467 465 -427 l 465 -427 q 465 -406 459 -387 q 453 -368 441 -356 l 441 -356 q 428 -343 408 -336 q 387 -329 354 -329 l 354 -329 l 342 -329 q 315 -328 298 -325 q 280 -322 268 -314 l 268 -314 q 256 -306 250 -294 q 243 -282 243 -266 l 243 -266 q 243 -232 266 -217 q 289 -203 336 -203 l 336 -203 l 340 -203 q 373 -203 399 -194 q 425 -185 442 -166 l 442 -166 q 453 -154 459 -138 q 465 -122 465 -101 l 465 -101 q 465 -67 451 -41 q 437 -16 407 -2 q 377 12 329 12 l 329 12 q 313 12 290 10 q 266 7 243 2 q 219 -3 200 -12 l 200 -12 l 211 -36 q 239 -24 269 -19 q 299 -14 331 -14 l 331 -14 q 392 -14 415 -37 q 438 -60 438 -101 l 438 -101 q 438 -138 415 -157 q 391 -176 343 -177 l 343 -177 l 338 -177 q 303 -178 281 -184 q 258 -190 245 -201 l 245 -201 q 232 -212 224 -228 q 216 -244 216 -266 l 216 -266 q 216 -286 224 -302 q 231 -319 246 -330 l 246 -330 q 263 -343 286 -348 q 309 -354 344 -355 l 344 -355 l 357 -355 q 402 -356 420 -372 q 438 -389 438 -427 l 438 -427 q 438 -474 405 -503 q 372 -532 307 -532 l 307 -532 q 228 -532 177 -491 q 125 -451 101 -380 q 76 -310 76 -221 l 76 -221 q 76 -158 84 -105 q 91 -52 102 0 l 102 0 l 76 5 q 65 -48 57 -105 q 49 -163 49 -220 l 49 -220 q 49 -321 79 -397 q 109 -473 167 -515 q 225 -558 307 -558 z"},"മ":{"ha":551,"x_min":59,"x_max":492,"o":"m 280 -558 l 280 -558 q 327 -558 364 -543 q 400 -529 424 -504 l 424 -504 q 448 -479 464 -445 q 479 -411 486 -368 q 492 -326 492 -271 l 492 -271 l 492 0 l 59 0 l 59 -268 q 59 -322 66 -365 q 72 -408 86 -441 q 100 -475 123 -499 l 123 -499 q 150 -527 189 -542 q 228 -558 280 -558 z m 242 -527 l 242 -527 q 212 -527 188 -516 q 163 -505 143 -483 l 143 -483 q 115 -451 100 -400 q 85 -349 85 -261 l 85 -261 l 85 -26 l 95 -26 q 160 -87 214 -151 q 268 -215 300 -280 q 332 -345 332 -407 l 332 -407 q 332 -438 324 -465 q 315 -493 296 -510 q 276 -527 242 -527 z m 359 -408 l 359 -408 q 359 -341 327 -274 q 295 -208 240 -142 q 185 -77 116 -10 l 116 -10 l 120 -24 q 146 -26 184 -26 q 222 -26 254 -26 l 254 -26 l 466 -26 l 466 -264 q 466 -349 449 -409 q 431 -469 391 -502 q 350 -535 281 -535 l 281 -535 l 279 -538 q 324 -525 342 -489 q 359 -454 359 -408 z"},"യ":{"ha":802,"x_min":42,"x_max":756,"o":"m 522 12 l 522 12 q 486 12 457 3 q 427 -6 401 -23 l 401 -23 q 399 -25 397 -27 q 394 -29 392 -30 l 392 -30 q 348 -63 320 -113 q 292 -164 278 -223 q 264 -282 264 -342 l 264 -342 q 264 -388 272 -426 q 280 -464 297 -493 l 297 -493 l 304 -502 q 316 -520 332 -532 q 347 -545 366 -551 q 385 -558 409 -558 l 409 -558 q 475 -558 513 -503 q 551 -449 551 -340 l 551 -340 q 551 -238 520 -155 q 489 -73 422 -29 l 422 -29 q 421 -28 419 -27 q 416 -26 414 -24 l 414 -24 q 387 -7 355 3 q 323 12 282 12 l 282 12 q 225 12 181 -12 q 137 -36 106 -80 q 74 -125 58 -187 q 42 -250 42 -327 l 42 -327 q 42 -405 64 -456 q 86 -508 123 -533 q 159 -558 202 -558 l 202 -558 q 246 -558 274 -538 q 302 -519 320 -497 l 320 -497 l 302 -478 q 284 -502 260 -517 q 236 -532 204 -532 l 204 -532 q 168 -532 138 -511 q 107 -490 88 -445 q 69 -400 69 -326 l 69 -326 q 69 -233 94 -162 q 118 -92 166 -53 q 213 -14 282 -14 l 282 -14 q 315 -14 342 -20 q 368 -27 390 -38 l 390 -38 q 393 -40 396 -41 q 399 -43 401 -44 l 401 -44 q 445 -71 472 -116 q 499 -162 512 -220 q 524 -278 524 -340 l 524 -340 q 524 -408 510 -450 q 496 -492 471 -512 q 445 -532 409 -532 l 409 -532 q 372 -532 346 -511 q 319 -490 305 -447 q 291 -405 291 -341 l 291 -341 q 291 -288 304 -230 q 317 -173 344 -124 q 370 -75 413 -45 l 413 -45 q 415 -44 418 -42 q 420 -41 423 -39 l 423 -39 q 444 -26 469 -20 q 493 -14 522 -14 l 522 -14 q 596 -14 642 -48 q 687 -83 708 -146 q 729 -209 729 -295 l 729 -295 q 729 -367 708 -431 q 687 -495 652 -544 l 652 -544 l 675 -558 q 712 -502 734 -437 q 756 -372 756 -295 l 756 -295 q 756 -225 742 -168 q 728 -111 700 -71 q 671 -31 627 -9 q 583 12 522 12 z"},"ര":{"ha":560,"x_min":43,"x_max":517,"o":"m 276 -558 l 276 -558 q 336 -558 381 -535 q 426 -512 457 -469 q 487 -426 502 -367 q 517 -309 517 -238 l 517 -238 q 517 -143 499 -88 q 480 -34 448 -11 q 416 12 374 12 l 374 12 q 326 12 296 -12 q 265 -37 251 -82 q 236 -128 236 -188 l 236 -188 q 236 -286 276 -333 q 315 -380 378 -380 l 378 -380 q 412 -380 438 -366 q 463 -353 482 -331 q 500 -309 511 -284 l 511 -284 l 504 -263 q 491 -287 474 -307 q 457 -328 434 -341 q 411 -354 379 -354 l 379 -354 q 320 -354 292 -311 q 263 -269 263 -188 l 263 -188 q 263 -136 274 -96 q 285 -57 310 -35 q 334 -14 375 -14 l 375 -14 q 411 -14 437 -35 q 463 -56 477 -105 q 491 -155 491 -238 l 491 -238 q 491 -254 491 -271 q 490 -289 489 -296 l 489 -296 q 490 -298 491 -300 q 491 -303 490 -307 l 490 -307 q 481 -365 458 -416 q 434 -468 391 -500 q 347 -532 276 -532 l 276 -532 q 212 -532 166 -500 q 119 -468 95 -412 q 70 -357 70 -287 l 70 -287 q 70 -220 85 -169 q 99 -119 126 -81 q 152 -44 184 -13 l 184 -13 l 166 6 q 138 -21 110 -59 q 81 -98 62 -153 q 43 -209 43 -286 l 43 -286 q 43 -342 58 -391 q 73 -440 102 -478 q 131 -516 175 -537 q 219 -558 276 -558 z"},"റ":{"ha":516,"x_min":43,"x_max":473,"o":"m 260 -558 l 260 -558 q 311 -558 351 -537 q 390 -517 418 -481 q 445 -445 459 -395 q 473 -346 473 -287 l 473 -287 q 473 -210 454 -154 q 435 -99 407 -60 q 378 -21 347 8 l 347 8 l 329 -11 q 357 -38 384 -74 q 411 -111 429 -162 q 446 -214 446 -287 l 446 -287 q 446 -357 426 -412 q 405 -468 364 -500 q 322 -532 259 -532 l 259 -532 q 196 -532 154 -498 q 112 -465 91 -409 q 70 -353 70 -287 l 70 -287 q 70 -220 85 -169 q 99 -119 126 -81 q 152 -44 184 -13 l 184 -13 l 166 6 q 138 -21 110 -59 q 81 -98 62 -153 q 43 -209 43 -286 l 43 -286 q 43 -344 58 -393 q 72 -443 101 -480 q 129 -517 169 -537 q 209 -558 260 -558 z"},"ല":{"ha":662,"x_min":64,"x_max":593,"o":"m 567 -546 l 593 -546 l 593 0 l 64 0 l 64 -335 q 64 -396 75 -438 q 86 -481 111 -509 l 111 -509 q 134 -534 166 -546 q 197 -558 236 -558 l 236 -558 q 276 -558 306 -546 q 336 -534 356 -510 l 356 -510 q 380 -484 392 -442 q 403 -400 403 -339 l 403 -339 l 403 -236 l 90 -236 l 90 -26 l 567 -26 l 567 -546 z m 235 -532 l 235 -532 q 163 -532 127 -486 q 90 -440 90 -334 l 90 -334 l 90 -262 l 377 -262 l 377 -332 q 377 -439 343 -485 q 308 -532 235 -532 z"},"ള":{"ha":555,"x_min":42,"x_max":517,"o":"m 315 -532 l 315 -532 q 257 -532 213 -515 q 169 -499 140 -471 q 110 -444 93 -409 q 76 -374 70 -338 l 70 -338 q 69 -334 69 -331 q 69 -328 69 -324 l 69 -324 q 68 -318 68 -310 q 68 -303 68 -296 l 68 -296 q 68 -216 90 -172 q 112 -128 165 -128 l 165 -128 q 207 -128 228 -160 q 249 -192 249 -248 l 249 -248 q 249 -278 241 -303 q 233 -328 215 -343 q 197 -359 165 -359 l 165 -359 q 133 -359 106 -343 q 78 -327 54 -299 l 54 -299 l 47 -322 q 62 -341 80 -355 q 97 -369 119 -377 q 140 -385 165 -385 l 165 -385 q 204 -385 228 -366 q 252 -347 264 -316 q 276 -286 276 -249 l 276 -249 q 276 -204 263 -171 q 250 -138 226 -120 q 201 -102 166 -102 l 166 -102 q 126 -102 98 -123 q 70 -145 56 -188 q 42 -231 42 -295 l 42 -295 q 42 -345 59 -392 q 75 -439 109 -476 q 142 -514 194 -536 q 246 -558 315 -558 l 315 -558 q 381 -558 424 -536 q 466 -515 488 -479 q 509 -443 509 -400 l 509 -400 q 509 -374 499 -344 q 489 -314 461 -292 q 432 -271 377 -267 l 377 -267 l 336 -265 l 336 -283 l 343 -283 q 376 -283 401 -289 q 425 -295 442 -308 l 442 -308 q 459 -321 471 -343 q 482 -366 482 -399 l 482 -399 q 482 -440 463 -469 q 443 -499 406 -515 q 369 -532 315 -532 z m 517 -140 l 517 -140 q 517 -108 508 -81 q 499 -55 480 -38 l 480 -38 q 464 -24 445 -15 q 426 -7 402 -3 q 377 0 344 0 l 344 0 l 227 0 q 176 0 145 6 q 114 11 96 30 l 96 30 q 87 40 82 54 q 77 68 77 86 l 77 86 q 77 108 85 124 q 92 139 105 150 l 105 150 q 122 163 150 169 q 177 175 223 175 l 223 175 l 495 175 l 495 201 l 216 201 q 171 201 142 194 q 112 187 89 170 l 89 170 q 70 156 60 135 q 50 114 50 86 l 50 86 q 50 63 57 45 q 64 26 77 13 l 77 13 q 91 -1 110 -9 q 128 -18 156 -22 q 183 -26 224 -26 l 224 -26 l 344 -26 q 392 -26 418 -33 q 444 -40 460 -56 l 460 -56 q 476 -70 483 -91 q 490 -113 490 -140 l 490 -140 q 490 -170 479 -193 q 467 -217 446 -231 l 446 -231 q 427 -244 403 -250 q 379 -257 346 -257 l 346 -257 l 336 -257 l 336 -268 l 377 -274 q 442 -270 480 -235 q 517 -200 517 -140 z"},"ഴ":{"ha":506,"x_min":40,"x_max":466,"o":"m 220 -418 l 220 -418 q 220 -478 254 -518 q 288 -558 343 -558 l 343 -558 q 384 -558 412 -536 q 439 -515 453 -479 q 466 -444 466 -400 l 466 -400 q 466 -332 442 -280 q 418 -228 373 -198 q 328 -169 266 -169 l 266 -169 l 260 -169 q 196 -169 147 -192 q 97 -216 69 -266 q 40 -316 40 -395 l 40 -395 q 40 -438 52 -479 q 63 -520 83 -557 l 83 -557 l 106 -544 q 85 -504 76 -468 q 67 -433 67 -394 l 67 -394 q 67 -323 92 -279 q 117 -235 160 -215 q 202 -195 258 -195 l 258 -195 l 267 -195 q 324 -195 362 -222 q 400 -250 420 -296 q 439 -342 439 -399 l 439 -399 q 439 -458 416 -495 q 392 -532 343 -532 l 343 -532 q 312 -532 291 -516 q 269 -501 258 -475 q 247 -449 247 -417 l 247 -417 q 247 -376 259 -337 q 270 -299 285 -262 q 299 -225 311 -188 q 322 -152 322 -115 l 322 -115 q 322 -78 310 -49 q 297 -21 270 -4 q 243 12 198 12 l 198 12 q 170 12 139 5 q 108 -3 82 -17 l 82 -17 l 94 -41 q 118 -28 145 -21 q 172 -14 199 -14 l 199 -14 q 250 -14 273 -39 q 295 -65 295 -115 l 295 -115 q 295 -152 284 -188 q 272 -224 258 -260 q 243 -297 232 -335 q 220 -374 220 -418 z"},"വ":{"ha":744,"x_min":43,"x_max":675,"o":"m 261 -558 l 261 -558 q 312 -558 351 -537 q 390 -517 418 -481 q 445 -445 459 -395 q 473 -346 473 -288 l 473 -288 q 473 -210 455 -155 q 436 -101 411 -66 q 385 -32 363 -13 l 363 -13 l 367 -26 l 649 -26 l 649 -546 l 675 -546 l 675 0 l 350 0 l 339 -21 q 362 -43 387 -77 q 411 -112 429 -163 q 446 -215 446 -287 l 446 -287 q 446 -357 426 -412 q 405 -468 364 -500 q 322 -532 259 -532 l 259 -532 q 196 -532 154 -498 q 112 -465 91 -409 q 70 -353 70 -287 l 70 -287 q 70 -220 85 -169 q 99 -119 126 -81 q 152 -44 184 -13 l 184 -13 l 166 6 q 138 -21 110 -59 q 81 -98 62 -153 q 43 -209 43 -286 l 43 -286 q 43 -344 58 -393 q 72 -443 101 -480 q 129 -517 170 -537 q 210 -558 261 -558 z"},"ശ":{"ha":788,"x_min":43,"x_max":745,"o":"m 514 -558 l 514 -558 q 571 -558 614 -535 q 657 -512 686 -469 q 715 -426 730 -367 q 745 -309 745 -238 l 745 -238 q 745 -143 727 -88 q 708 -34 676 -11 q 644 12 601 12 l 601 12 q 553 12 523 -12 q 493 -37 479 -82 q 464 -128 464 -188 l 464 -188 q 464 -286 504 -333 q 543 -380 605 -380 l 605 -380 q 640 -380 665 -366 q 690 -353 709 -331 q 727 -309 739 -284 l 739 -284 l 732 -263 q 719 -287 702 -307 q 685 -328 662 -341 q 639 -354 607 -354 l 607 -354 q 548 -354 520 -311 q 491 -269 491 -188 l 491 -188 q 491 -136 502 -96 q 512 -57 537 -35 q 561 -14 603 -14 l 603 -14 q 639 -14 665 -35 q 691 -56 705 -105 q 719 -155 719 -238 l 719 -238 q 719 -254 719 -271 q 718 -289 717 -296 l 717 -296 q 717 -298 718 -300 q 718 -303 717 -307 l 717 -307 q 709 -365 686 -416 q 662 -468 620 -500 q 578 -532 513 -532 l 513 -532 q 480 -532 454 -522 q 427 -513 408 -495 l 408 -495 q 380 -469 367 -428 q 353 -388 353 -309 l 353 -309 l 353 -217 q 353 -151 345 -105 q 336 -60 308 -29 l 308 -29 q 293 -10 269 1 q 245 12 211 12 l 211 12 q 158 12 120 -20 q 82 -52 63 -110 q 43 -169 43 -248 l 43 -248 q 43 -326 60 -381 q 77 -436 104 -477 q 131 -519 162 -553 l 162 -553 l 181 -535 q 150 -500 125 -460 q 99 -420 85 -368 q 70 -317 70 -247 l 70 -247 q 70 -178 86 -125 q 102 -73 133 -43 q 164 -14 210 -14 l 210 -14 q 239 -14 258 -22 q 276 -31 289 -47 l 289 -47 q 312 -73 320 -115 q 327 -158 327 -229 l 327 -229 l 327 -321 q 327 -395 342 -439 q 357 -483 389 -513 l 389 -513 q 411 -534 444 -546 q 476 -558 514 -558 z"},"ഷ":{"ha":873,"x_min":35,"x_max":804,"o":"m 172 -327 l 172 -327 q 212 -327 243 -308 q 274 -290 291 -254 q 308 -218 308 -167 l 308 -167 q 308 -120 292 -79 q 275 -39 246 -10 l 246 -10 l 251 -26 l 530 -26 l 532 0 l 239 0 l 226 -20 q 253 -51 267 -88 q 281 -125 281 -166 l 281 -166 q 281 -234 251 -267 q 221 -301 172 -301 l 172 -301 q 137 -301 113 -284 q 88 -267 75 -237 q 62 -208 62 -168 l 62 -168 q 62 -116 81 -78 q 100 -40 128 -10 l 128 -10 l 109 8 q 77 -28 56 -69 q 35 -111 35 -169 l 35 -169 q 35 -216 53 -251 q 70 -287 101 -307 q 131 -327 172 -327 z m 804 0 l 517 0 l 517 -398 q 517 -447 511 -475 q 504 -503 488 -517 l 488 -517 q 480 -524 470 -528 q 459 -532 445 -532 l 445 -532 q 410 -532 388 -502 q 366 -472 366 -417 l 366 -417 q 366 -372 382 -340 q 397 -309 429 -294 q 461 -279 510 -279 l 510 -279 l 521 -279 q 568 -279 606 -296 q 643 -313 674 -347 q 705 -381 731 -430 q 756 -480 779 -546 l 779 -546 l 804 -546 l 804 0 z m 445 -558 l 445 -558 q 463 -558 478 -553 q 492 -548 503 -539 l 503 -539 q 528 -518 536 -485 q 543 -452 543 -401 l 543 -401 l 543 -26 l 778 -26 l 778 -400 q 778 -414 778 -432 q 778 -450 779 -468 q 780 -487 781 -502 l 781 -502 l 785 -500 q 758 -418 721 -363 q 683 -308 634 -280 q 584 -253 520 -253 l 520 -253 l 512 -253 q 456 -253 418 -271 q 379 -290 359 -327 q 339 -364 339 -419 l 339 -419 q 339 -456 352 -487 q 364 -519 388 -538 q 411 -558 445 -558 z"},"സ":{"ha":947,"x_min":43,"x_max":904,"o":"m 477 -558 l 477 -558 q 509 -558 534 -546 q 558 -535 574 -517 l 574 -517 q 592 -498 601 -475 q 610 -452 615 -419 q 619 -387 619 -339 l 619 -339 l 619 -229 q 619 -158 627 -115 q 634 -73 656 -47 l 656 -47 q 670 -31 689 -22 q 708 -14 736 -14 l 736 -14 q 783 -14 814 -43 q 845 -73 861 -125 q 877 -178 877 -247 l 877 -247 q 877 -317 863 -368 q 848 -420 823 -460 q 798 -500 766 -535 l 766 -535 l 785 -553 q 816 -519 843 -477 q 870 -436 887 -381 q 904 -326 904 -248 l 904 -248 q 904 -169 885 -110 q 865 -52 827 -20 q 789 12 735 12 l 735 12 q 702 12 678 1 q 653 -10 637 -29 l 637 -29 q 619 -50 609 -77 q 599 -104 596 -139 q 593 -174 593 -218 l 593 -218 l 593 -326 q 593 -396 585 -436 q 576 -476 555 -500 l 555 -500 q 542 -515 523 -523 q 503 -532 477 -532 l 477 -532 q 453 -532 435 -525 q 417 -518 404 -505 l 404 -505 q 381 -482 372 -439 q 363 -397 363 -334 l 363 -334 l 363 0 l 337 0 l 337 -328 q 337 -393 327 -435 q 317 -477 292 -502 l 292 -502 q 278 -517 260 -524 q 242 -532 213 -532 l 213 -532 q 166 -532 134 -500 q 102 -468 86 -415 q 70 -362 70 -299 l 70 -299 q 70 -230 85 -178 q 99 -127 125 -86 q 150 -46 181 -11 l 181 -11 l 162 6 q 131 -29 104 -69 q 77 -110 60 -165 q 43 -221 43 -299 l 43 -299 q 43 -374 64 -432 q 84 -490 123 -524 q 161 -558 215 -558 l 215 -558 q 274 -558 308 -523 q 342 -488 353 -416 l 353 -416 l 346 -410 q 352 -488 386 -523 q 420 -558 477 -558 z"},"ഹ":{"ha":914,"x_min":35,"x_max":871,"o":"m 172 -327 l 172 -327 q 212 -327 243 -308 q 274 -290 291 -254 q 308 -218 308 -167 l 308 -167 q 308 -120 292 -79 q 275 -39 246 -10 l 246 -10 l 251 -26 l 555 -26 l 562 0 l 239 0 l 226 -20 q 253 -51 267 -88 q 281 -125 281 -166 l 281 -166 q 281 -234 251 -267 q 221 -301 172 -301 l 172 -301 q 137 -301 113 -284 q 88 -267 75 -237 q 62 -208 62 -168 l 62 -168 q 62 -116 81 -78 q 100 -40 128 -10 l 128 -10 l 109 8 q 77 -28 56 -69 q 35 -111 35 -169 l 35 -169 q 35 -216 53 -251 q 70 -287 101 -307 q 131 -327 172 -327 z m 658 -558 l 658 -558 q 710 -558 750 -537 q 789 -517 816 -481 q 843 -445 857 -395 q 871 -346 871 -287 l 871 -287 q 871 -210 852 -154 q 833 -99 805 -60 q 776 -21 746 8 l 746 8 l 728 -11 q 756 -38 783 -74 q 809 -111 827 -162 q 844 -214 844 -287 l 844 -287 q 844 -357 824 -412 q 803 -468 762 -500 q 720 -532 658 -532 l 658 -532 q 594 -532 552 -498 q 510 -465 489 -409 q 468 -353 468 -287 l 468 -287 q 468 -221 483 -171 q 498 -121 523 -84 q 547 -48 574 -21 l 574 -21 l 562 0 l 544 0 l 541 -21 q 522 -42 499 -75 q 475 -108 458 -159 q 441 -211 441 -286 l 441 -286 q 441 -344 456 -393 q 470 -443 499 -480 q 527 -517 567 -537 q 607 -558 658 -558 z"},"ഺ":{"ha":602,"x_min":24,"x_max":585,"o":"m 52 -26 l 585 -26 l 585 0 l 346 0 l 346 202 l 320 202 l 320 0 l 44 0 l 24 -25 l 225 -557 l 250 -548 l 52 -26 z"},"഻":{"ha":0,"x_min":-292,"x_max":-266,"o":"m -292 -581 l -292 -864 l -266 -864 l -266 -581 l -292 -581 z"},"഼":{"ha":0,"x_min":-186,"x_max":10,"o":"m -186 -725 l -186 -725 q -186 -783 -159 -816 q -132 -849 -88 -849 l -88 -849 q -44 -849 -17 -816 q 10 -783 10 -725 l 10 -725 q 10 -667 -17 -634 q -44 -601 -88 -601 l -88 -601 q -133 -601 -159 -634 q -186 -667 -186 -725 z m -159 -726 l -159 -726 q -159 -678 -140 -652 q -121 -626 -88 -626 l -88 -626 q -54 -626 -35 -652 q -17 -678 -17 -726 l -17 -726 q -17 -772 -35 -798 q -54 -824 -88 -824 l -88 -824 q -121 -824 -140 -798 q -159 -772 -159 -726 z"},"ഽ":{"ha":346,"x_min":-62,"x_max":408,"o":"m 284 -784 l 284 -784 q 320 -784 346 -765 q 371 -747 386 -715 q 401 -684 408 -644 l 408 -644 l 383 -639 q 375 -672 364 -698 q 353 -725 334 -741 q 315 -758 284 -758 l 284 -758 q 265 -758 251 -753 q 237 -748 225 -737 l 225 -737 q 200 -716 193 -676 q 186 -636 186 -580 l 186 -580 l 186 49 q 186 118 176 155 q 165 191 141 214 l 141 214 q 126 229 106 237 q 85 244 62 244 l 62 244 q 26 244 1 226 q -24 207 -39 176 q -55 144 -62 104 l -62 104 l -37 99 q -29 131 -18 158 q -7 185 13 202 q 32 218 62 218 l 62 218 q 81 218 96 213 q 110 208 121 197 l 121 197 q 146 175 153 136 q 160 96 160 40 l 160 40 l 160 -589 q 160 -658 171 -694 q 182 -731 205 -754 l 205 -754 q 221 -769 241 -776 q 261 -784 284 -784 z"},"ാ":{"ha":386,"x_min":25,"x_max":341,"o":"m 341 -275 l 341 -275 q 341 -207 332 -153 q 322 -100 303 -63 q 283 -26 253 -7 q 223 12 181 12 l 181 12 q 145 12 120 -1 q 94 -14 76 -37 q 57 -61 45 -92 q 33 -124 25 -161 l 25 -161 l 51 -166 q 61 -122 76 -87 q 91 -53 116 -33 q 141 -14 180 -14 l 180 -14 q 228 -14 258 -44 q 287 -74 301 -132 q 314 -191 314 -275 l 314 -275 q 314 -358 300 -415 q 286 -472 258 -502 q 229 -532 182 -532 l 182 -532 q 145 -532 120 -512 q 94 -492 79 -458 q 64 -425 54 -382 l 54 -382 l 28 -387 q 36 -423 49 -454 q 61 -485 80 -508 q 98 -532 124 -545 q 149 -558 183 -558 l 183 -558 q 224 -558 254 -538 q 284 -518 303 -481 q 322 -445 332 -392 q 341 -340 341 -275 z"},"ി":{"ha":164,"x_min":-158,"x_max":95,"o":"m -38 -843 l -38 -843 q -15 -843 5 -836 q 24 -830 39 -817 l 39 -817 q 60 -800 73 -775 q 85 -750 90 -712 q 95 -674 95 -618 l 95 -618 l 95 0 l 69 0 l 69 -604 q 69 -649 66 -685 q 63 -722 54 -750 q 45 -778 25 -795 l 25 -795 q 14 -806 -1 -811 q -16 -817 -37 -817 l -37 -817 q -64 -817 -85 -805 q -107 -793 -119 -767 q -131 -741 -131 -702 l -131 -702 q -131 -680 -129 -664 q -127 -648 -125 -635 l -125 -635 l -152 -632 q -154 -646 -156 -662 q -158 -679 -158 -702 l -158 -702 q -158 -746 -143 -777 q -128 -809 -100 -826 q -73 -843 -38 -843 z"},"ീ":{"ha":164,"x_min":-227,"x_max":95,"o":"m -92 -843 l -92 -843 q -61 -843 -35 -836 q -9 -829 11 -816 l 11 -816 q 59 -784 77 -729 q 95 -675 95 -586 l 95 -586 l 95 0 l 69 0 l 69 -568 q 69 -623 65 -665 q 60 -707 46 -737 q 32 -768 4 -789 l 4 -789 q -14 -803 -37 -810 q -60 -818 -94 -818 l -94 -818 q -122 -818 -146 -806 q -171 -795 -185 -772 q -200 -749 -200 -713 l -200 -713 q -200 -667 -181 -645 q -162 -624 -129 -624 l -129 -624 q -93 -624 -75 -647 q -58 -671 -58 -710 l -58 -710 q -58 -746 -72 -774 q -86 -803 -110 -824 l -110 -824 l -79 -826 q -59 -805 -45 -777 q -32 -749 -32 -711 l -32 -711 q -32 -680 -42 -654 q -53 -629 -74 -613 q -96 -598 -129 -598 l -129 -598 q -157 -598 -179 -611 q -202 -625 -214 -651 q -227 -677 -227 -713 l -227 -713 q -227 -756 -209 -785 q -191 -814 -159 -828 q -128 -843 -92 -843 z"},"ു":{"ha":241,"x_min":-14,"x_max":244,"o":"m 115 220 l 115 220 q 54 220 20 176 q -14 131 -14 55 l -14 55 q -14 3 2 -33 q 17 -70 46 -90 q 75 -110 114 -110 l 114 -110 q 155 -110 184 -90 q 213 -71 229 -34 q 244 3 244 54 l 244 54 q 244 105 229 142 q 213 179 184 200 q 155 220 115 220 z m 115 194 l 115 194 q 162 194 190 159 q 217 124 217 54 l 217 54 q 217 -14 190 -49 q 163 -85 114 -85 l 114 -85 q 66 -85 40 -49 q 13 -13 13 55 l 13 55 q 13 122 40 158 q 66 194 115 194 z m 71 -558 l 71 -558 q 112 -558 138 -539 q 163 -520 175 -488 q 187 -456 187 -415 l 187 -415 q 187 -348 171 -264 q 154 -180 130 -87 l 130 -87 l 105 -93 q 129 -187 145 -270 q 160 -353 160 -413 l 160 -413 q 160 -472 139 -502 q 117 -532 70 -532 l 70 -532 q 57 -532 43 -530 q 29 -528 17 -524 l 17 -524 l 10 -549 q 21 -552 39 -555 q 56 -558 71 -558 z"},"ൂ":{"ha":241,"x_min":-14,"x_max":244,"o":"m 115 220 l 115 220 q 54 220 20 176 q -14 131 -14 55 l -14 55 q -14 3 2 -33 q 17 -70 46 -90 q 75 -110 114 -110 l 114 -110 q 155 -110 184 -90 q 213 -71 229 -34 q 244 3 244 54 l 244 54 q 244 105 229 142 q 213 179 184 200 q 155 220 115 220 z m 114 -85 l 114 -85 q 65 -85 38 -52 q 11 -20 11 55 l 11 55 q 11 122 39 158 q 66 194 115 194 l 115 194 q 163 194 191 159 q 219 124 219 54 l 219 54 q 219 -21 193 -53 q 166 -85 114 -85 z m 115 85 l 115 85 q 65 85 44 59 q 22 32 22 -7 l 22 -7 q 22 -31 34 -50 q 45 -70 61 -89 l 61 -89 l 72 -82 q 55 -65 49 -48 q 42 -32 42 -11 l 42 -11 q 42 6 49 23 q 55 39 72 50 q 88 60 115 60 l 115 60 q 142 60 158 50 q 174 39 181 23 q 188 6 188 -11 l 188 -11 q 188 -31 181 -48 q 174 -65 156 -82 l 156 -82 l 168 -89 q 184 -70 196 -50 q 207 -31 207 -7 l 207 -7 q 207 19 198 40 q 189 60 169 73 q 149 85 115 85 z m 71 -558 l 71 -558 q 112 -558 138 -539 q 163 -520 175 -488 q 187 -456 187 -415 l 187 -415 q 187 -348 171 -264 q 154 -180 130 -87 l 130 -87 l 105 -93 q 129 -187 145 -270 q 160 -353 160 -413 l 160 -413 q 160 -472 139 -502 q 117 -532 70 -532 l 70 -532 q 57 -532 43 -530 q 29 -528 17 -524 l 17 -524 l 10 -549 q 21 -552 39 -555 q 56 -558 71 -558 z"},"ൃ":{"ha":174,"x_min":-111,"x_max":167,"o":"m 18 298 l 18 298 q -19 298 -48 284 q -77 269 -94 240 q -111 211 -111 170 l -111 170 q -111 112 -76 78 q -41 44 13 44 l 13 44 q 60 44 96 64 q 132 83 162 114 l 162 114 l 156 140 q 121 105 86 88 q 51 70 13 70 l 13 70 q -28 70 -56 95 q -84 119 -84 170 l -84 170 q -84 223 -55 248 q -27 272 17 272 l 17 272 q 51 272 80 258 q 108 244 125 212 q 141 179 141 125 l 141 125 q 141 94 136 64 q 131 34 120 -4 q 109 -43 90 -95 l 90 -95 q 69 -154 58 -201 q 46 -249 46 -298 l 46 -298 q 46 -365 64 -424 q 82 -483 111 -546 l 111 -546 l 141 -546 q 118 -498 103 -458 q 87 -418 80 -380 q 73 -342 73 -300 l 73 -300 q 73 -250 84 -206 q 95 -163 115 -104 l 115 -104 q 135 -45 146 -4 q 157 36 162 67 q 167 97 167 126 l 167 126 q 167 184 148 222 q 128 260 95 279 q 61 298 18 298 z"},"ൄ":{"ha":174,"x_min":-205,"x_max":167,"o":"m -28 298 l -28 298 q -78 298 -118 282 q -158 266 -181 234 q -205 201 -205 150 l -205 150 q -205 105 -181 77 q -158 48 -120 48 l -120 48 q -92 48 -75 66 q -58 83 -52 113 l -52 113 l -60 111 q -52 81 -32 65 q -13 48 12 48 l 12 48 q 32 48 47 56 q 61 64 70 79 q 79 93 84 112 q 88 131 88 151 l 88 151 l 88 174 l 62 174 l 62 154 q 62 117 50 96 q 38 74 11 74 l 11 74 q -17 74 -29 95 q -42 116 -42 154 l -42 154 l -42 174 l -68 174 l -68 154 q -68 116 -80 95 q -92 74 -120 74 l -120 74 q -146 74 -162 94 q -179 113 -179 150 l -179 150 q -179 214 -137 243 q -95 272 -27 272 l -27 272 q 52 272 97 239 q 141 206 141 125 l 141 125 q 141 94 136 64 q 131 34 120 -4 q 109 -43 90 -95 l 90 -95 q 69 -154 58 -199 q 46 -245 46 -297 l 46 -297 q 46 -365 62 -423 q 77 -482 105 -546 l 105 -546 l 135 -546 q 112 -498 98 -457 q 84 -417 78 -378 q 72 -340 72 -298 l 72 -298 q 72 -240 85 -197 q 98 -154 115 -104 l 115 -104 q 135 -45 146 -4 q 157 36 162 66 q 167 96 167 126 l 167 126 q 167 187 143 225 q 119 263 75 281 q 31 298 -28 298 z"},"െ":{"ha":546,"x_min":43,"x_max":503,"o":"m 181 12 l 181 12 q 142 12 111 -9 q 79 -30 61 -82 q 43 -135 43 -228 l 43 -228 q 43 -308 62 -369 q 81 -431 114 -473 q 147 -515 191 -536 q 235 -558 284 -558 l 284 -558 q 337 -558 378 -537 q 419 -517 447 -481 q 475 -445 489 -395 q 503 -346 503 -287 l 503 -287 q 503 -210 485 -154 q 466 -99 437 -60 q 408 -21 377 8 l 377 8 l 360 -11 q 388 -38 415 -74 q 441 -111 459 -162 q 476 -214 476 -287 l 476 -287 q 476 -357 455 -412 q 434 -468 392 -500 q 350 -532 284 -532 l 284 -532 q 223 -532 175 -496 q 126 -460 98 -392 q 69 -324 69 -228 l 69 -228 q 69 -149 82 -102 q 95 -55 121 -34 q 146 -14 181 -14 l 181 -14 q 205 -14 225 -26 q 245 -38 257 -68 q 269 -98 269 -150 l 269 -150 q 269 -208 246 -242 q 223 -276 176 -276 l 176 -276 q 138 -276 109 -257 q 79 -238 56 -209 l 56 -209 l 48 -233 q 80 -271 112 -286 q 143 -302 176 -302 l 176 -302 q 209 -302 237 -286 q 264 -270 280 -236 q 296 -203 296 -150 l 296 -150 q 296 -91 280 -55 q 264 -20 239 -4 q 213 12 181 12 z"},"േ":{"ha":449,"x_min":43,"x_max":414,"o":"m 276 12 l 276 12 q 230 12 188 -5 q 146 -22 113 -57 q 80 -92 62 -147 q 43 -202 43 -277 l 43 -277 q 43 -351 64 -404 q 84 -457 119 -491 q 153 -525 195 -541 q 237 -558 279 -558 l 279 -558 q 324 -558 354 -541 q 384 -524 399 -494 q 414 -464 414 -427 l 414 -427 q 414 -389 402 -363 q 389 -338 368 -325 q 346 -312 320 -312 l 320 -312 q 287 -312 265 -326 q 242 -341 231 -367 q 219 -393 219 -426 l 219 -426 q 219 -463 232 -493 q 245 -523 264 -546 l 264 -546 l 293 -544 q 273 -524 259 -492 q 245 -460 245 -427 l 245 -427 q 245 -385 263 -361 q 281 -338 320 -338 l 320 -338 q 352 -338 370 -360 q 387 -383 387 -427 l 387 -427 q 387 -477 360 -505 q 332 -533 282 -533 l 282 -533 q 278 -533 273 -533 q 268 -533 263 -533 l 263 -533 q 203 -527 160 -492 q 117 -457 94 -401 q 70 -346 70 -277 l 70 -277 q 70 -195 93 -139 q 116 -83 158 -52 q 199 -21 255 -13 l 255 -13 q 262 -13 267 -13 q 272 -13 278 -13 l 278 -13 q 310 -13 333 -25 q 356 -38 369 -62 q 382 -86 382 -119 l 382 -119 q 382 -162 365 -184 q 347 -207 314 -207 l 314 -207 q 276 -207 258 -183 q 240 -159 240 -120 l 240 -120 q 240 -87 254 -55 q 267 -24 287 -3 l 287 -3 l 257 -2 q 241 -24 227 -54 q 213 -84 213 -121 l 213 -121 q 213 -154 225 -179 q 237 -204 259 -218 q 281 -233 313 -233 l 313 -233 q 340 -233 362 -220 q 383 -208 396 -183 q 409 -158 409 -119 l 409 -119 q 409 -82 394 -52 q 379 -22 349 -5 q 319 12 276 12 z"},"ൈ":{"ha":1093,"x_min":43,"x_max":1049,"o":"m 181 12 l 181 12 q 142 12 111 -9 q 79 -30 61 -82 q 43 -135 43 -228 l 43 -228 q 43 -308 62 -369 q 81 -431 114 -473 q 147 -515 191 -536 q 235 -558 284 -558 l 284 -558 q 337 -558 378 -537 q 419 -517 447 -481 q 475 -445 489 -395 q 503 -346 503 -287 l 503 -287 q 503 -210 485 -154 q 466 -99 437 -60 q 408 -21 377 8 l 377 8 l 360 -11 q 388 -38 415 -74 q 441 -111 459 -162 q 476 -214 476 -287 l 476 -287 q 476 -357 455 -412 q 434 -468 392 -500 q 350 -532 284 -532 l 284 -532 q 223 -532 175 -496 q 126 -460 98 -392 q 69 -324 69 -228 l 69 -228 q 69 -149 82 -102 q 95 -55 121 -34 q 146 -14 181 -14 l 181 -14 q 205 -14 225 -26 q 245 -38 257 -68 q 269 -98 269 -150 l 269 -150 q 269 -208 246 -242 q 223 -276 176 -276 l 176 -276 q 138 -276 109 -257 q 79 -238 56 -209 l 56 -209 l 48 -233 q 80 -271 112 -286 q 143 -302 176 -302 l 176 -302 q 209 -302 237 -286 q 264 -270 280 -236 q 296 -203 296 -150 l 296 -150 q 296 -91 280 -55 q 264 -20 239 -4 q 213 12 181 12 z m 727 12 l 727 12 q 688 12 657 -9 q 625 -30 607 -82 q 589 -135 589 -228 l 589 -228 q 589 -308 608 -369 q 627 -431 660 -473 q 693 -515 737 -536 q 781 -558 830 -558 l 830 -558 q 883 -558 924 -537 q 965 -517 993 -481 q 1021 -445 1035 -395 q 1049 -346 1049 -287 l 1049 -287 q 1049 -210 1031 -154 q 1012 -99 983 -60 q 954 -21 923 8 l 923 8 l 906 -11 q 934 -38 961 -74 q 987 -111 1005 -162 q 1022 -214 1022 -287 l 1022 -287 q 1022 -357 1001 -412 q 980 -468 938 -500 q 896 -532 830 -532 l 830 -532 q 769 -532 721 -496 q 672 -460 644 -392 q 615 -324 615 -228 l 615 -228 q 615 -149 628 -102 q 641 -55 667 -34 q 692 -14 727 -14 l 727 -14 q 751 -14 771 -26 q 791 -38 803 -68 q 815 -98 815 -150 l 815 -150 q 815 -208 792 -242 q 769 -276 722 -276 l 722 -276 q 684 -276 655 -257 q 625 -238 602 -209 l 602 -209 l 594 -233 q 626 -271 658 -286 q 689 -302 722 -302 l 722 -302 q 755 -302 783 -286 q 810 -270 826 -236 q 842 -203 842 -150 l 842 -150 q 842 -91 826 -55 q 810 -20 785 -4 q 759 12 727 12 z"},"ൊ":{"ha":1023,"x_min":43,"x_max":977,"o":"m 181 12 l 181 12 q 142 12 111 -9 q 79 -30 61 -82 q 43 -135 43 -228 l 43 -228 q 43 -308 62 -369 q 81 -431 114 -473 q 147 -515 191 -536 q 235 -558 284 -558 l 284 -558 q 337 -558 378 -537 q 419 -517 447 -481 q 475 -445 489 -395 q 503 -346 503 -287 l 503 -287 q 503 -210 485 -154 q 466 -99 437 -60 q 408 -21 377 8 l 377 8 l 360 -11 q 388 -38 415 -74 q 441 -111 459 -162 q 476 -214 476 -287 l 476 -287 q 476 -357 455 -412 q 434 -468 392 -500 q 350 -532 284 -532 l 284 -532 q 223 -532 175 -496 q 126 -460 98 -392 q 69 -324 69 -228 l 69 -228 q 69 -149 82 -102 q 95 -55 121 -34 q 146 -14 181 -14 l 181 -14 q 205 -14 225 -26 q 245 -38 257 -68 q 269 -98 269 -150 l 269 -150 q 269 -208 246 -242 q 223 -276 176 -276 l 176 -276 q 138 -276 109 -257 q 79 -238 56 -209 l 56 -209 l 48 -233 q 80 -271 112 -286 q 143 -302 176 -302 l 176 -302 q 209 -302 237 -286 q 264 -270 280 -236 q 296 -203 296 -150 l 296 -150 q 296 -91 280 -55 q 264 -20 239 -4 q 213 12 181 12 z m 595 -267 l 595 -267 q 580 -267 575 -276 q 570 -285 570 -298 l 570 -298 q 570 -310 575 -319 q 580 -329 595 -329 l 595 -329 q 613 -329 618 -319 q 622 -310 622 -298 l 622 -298 q 622 -285 618 -276 q 613 -267 595 -267 z m 977 -275 l 977 -275 q 977 -207 968 -153 q 958 -100 939 -63 q 919 -26 889 -7 q 859 12 817 12 l 817 12 q 781 12 756 -1 q 730 -14 712 -37 q 693 -61 681 -92 q 669 -124 661 -161 l 661 -161 l 687 -166 q 697 -122 712 -87 q 727 -53 752 -33 q 777 -14 816 -14 l 816 -14 q 864 -14 894 -44 q 923 -74 937 -132 q 950 -191 950 -275 l 950 -275 q 950 -358 936 -415 q 922 -472 894 -502 q 865 -532 818 -532 l 818 -532 q 781 -532 756 -512 q 730 -492 715 -458 q 700 -425 690 -382 l 690 -382 l 664 -387 q 672 -423 685 -454 q 697 -485 716 -508 q 734 -532 760 -545 q 785 -558 819 -558 l 819 -558 q 860 -558 890 -538 q 920 -518 939 -481 q 958 -445 968 -392 q 977 -340 977 -275 z"},"ോ":{"ha":913,"x_min":43,"x_max":867,"o":"m 276 12 l 276 12 q 230 12 188 -5 q 146 -22 113 -57 q 80 -92 62 -147 q 43 -202 43 -277 l 43 -277 q 43 -351 64 -404 q 84 -457 119 -491 q 153 -525 195 -541 q 237 -558 279 -558 l 279 -558 q 324 -558 354 -541 q 384 -524 399 -494 q 414 -464 414 -427 l 414 -427 q 414 -389 402 -363 q 389 -338 368 -325 q 346 -312 320 -312 l 320 -312 q 287 -312 265 -326 q 242 -341 231 -367 q 219 -393 219 -426 l 219 -426 q 219 -463 232 -493 q 245 -523 264 -546 l 264 -546 l 293 -544 q 273 -524 259 -492 q 245 -460 245 -427 l 245 -427 q 245 -385 263 -361 q 281 -338 320 -338 l 320 -338 q 352 -338 370 -360 q 387 -383 387 -427 l 387 -427 q 387 -477 360 -505 q 332 -533 282 -533 l 282 -533 q 278 -533 273 -533 q 268 -533 263 -533 l 263 -533 q 203 -527 160 -492 q 117 -457 94 -401 q 70 -346 70 -277 l 70 -277 q 70 -195 93 -139 q 116 -83 158 -52 q 199 -21 255 -13 l 255 -13 q 262 -13 267 -13 q 272 -13 278 -13 l 278 -13 q 310 -13 333 -25 q 356 -38 369 -62 q 382 -86 382 -119 l 382 -119 q 382 -162 365 -184 q 347 -207 314 -207 l 314 -207 q 276 -207 258 -183 q 240 -159 240 -120 l 240 -120 q 240 -87 254 -55 q 267 -24 287 -3 l 287 -3 l 257 -2 q 241 -24 227 -54 q 213 -84 213 -121 l 213 -121 q 213 -154 225 -179 q 237 -204 259 -218 q 281 -233 313 -233 l 313 -233 q 340 -233 362 -220 q 383 -208 396 -183 q 409 -158 409 -119 l 409 -119 q 409 -82 394 -52 q 379 -22 349 -5 q 319 12 276 12 z m 485 -267 l 485 -267 q 470 -267 465 -276 q 460 -285 460 -298 l 460 -298 q 460 -310 465 -319 q 470 -329 485 -329 l 485 -329 q 503 -329 508 -319 q 512 -310 512 -298 l 512 -298 q 512 -285 508 -276 q 503 -267 485 -267 z m 867 -275 l 867 -275 q 867 -207 858 -153 q 848 -100 829 -63 q 809 -26 779 -7 q 749 12 707 12 l 707 12 q 671 12 646 -1 q 620 -14 602 -37 q 583 -61 571 -92 q 559 -124 551 -161 l 551 -161 l 577 -166 q 587 -122 602 -87 q 617 -53 642 -33 q 667 -14 706 -14 l 706 -14 q 754 -14 784 -44 q 813 -74 827 -132 q 840 -191 840 -275 l 840 -275 q 840 -358 826 -415 q 812 -472 784 -502 q 755 -532 708 -532 l 708 -532 q 671 -532 646 -512 q 620 -492 605 -458 q 590 -425 580 -382 l 580 -382 l 554 -387 q 562 -423 575 -454 q 587 -485 606 -508 q 624 -532 650 -545 q 675 -558 709 -558 l 709 -558 q 750 -558 780 -538 q 810 -518 829 -481 q 848 -445 858 -392 q 867 -340 867 -275 z"},"ൌ":{"ha":1232,"x_min":43,"x_max":1186,"o":"m 181 12 l 181 12 q 142 12 111 -9 q 79 -30 61 -82 q 43 -135 43 -228 l 43 -228 q 43 -308 62 -369 q 81 -431 114 -473 q 147 -515 191 -536 q 235 -558 284 -558 l 284 -558 q 337 -558 378 -537 q 419 -517 447 -481 q 475 -445 489 -395 q 503 -346 503 -287 l 503 -287 q 503 -210 485 -154 q 466 -99 437 -60 q 408 -21 377 8 l 377 8 l 360 -11 q 388 -38 415 -74 q 441 -111 459 -162 q 476 -214 476 -287 l 476 -287 q 476 -357 455 -412 q 434 -468 392 -500 q 350 -532 284 -532 l 284 -532 q 223 -532 175 -496 q 126 -460 98 -392 q 69 -324 69 -228 l 69 -228 q 69 -149 82 -102 q 95 -55 121 -34 q 146 -14 181 -14 l 181 -14 q 205 -14 225 -26 q 245 -38 257 -68 q 269 -98 269 -150 l 269 -150 q 269 -208 246 -242 q 223 -276 176 -276 l 176 -276 q 138 -276 109 -257 q 79 -238 56 -209 l 56 -209 l 48 -233 q 80 -271 112 -286 q 143 -302 176 -302 l 176 -302 q 209 -302 237 -286 q 264 -270 280 -236 q 296 -203 296 -150 l 296 -150 q 296 -91 280 -55 q 264 -20 239 -4 q 213 12 181 12 z m 595 -267 l 595 -267 q 580 -267 575 -276 q 570 -285 570 -298 l 570 -298 q 570 -310 575 -319 q 580 -329 595 -329 l 595 -329 q 613 -329 618 -319 q 622 -310 622 -298 l 622 -298 q 622 -285 618 -276 q 613 -267 595 -267 z m 1044 -558 l 1044 -558 q 1089 -558 1121 -528 q 1152 -498 1169 -441 q 1186 -384 1186 -301 l 1186 -301 q 1186 -197 1165 -127 q 1144 -58 1097 -23 q 1049 12 969 12 l 969 12 q 930 12 895 5 q 859 -3 821 -22 l 821 -22 l 833 -45 q 869 -28 899 -21 q 929 -14 969 -14 l 969 -14 q 1044 -14 1085 -46 q 1126 -79 1143 -143 q 1159 -207 1159 -301 l 1159 -301 q 1159 -417 1128 -474 q 1097 -532 1043 -532 l 1043 -532 q 1019 -532 1003 -522 q 987 -513 976 -497 l 976 -497 q 957 -469 951 -430 q 945 -391 945 -348 l 945 -348 l 945 -255 l 919 -255 l 919 -351 q 919 -405 912 -440 q 905 -476 888 -498 l 888 -498 q 876 -514 859 -523 q 842 -532 819 -532 l 819 -532 q 767 -532 741 -491 q 714 -450 714 -388 l 714 -388 q 714 -354 719 -322 q 723 -290 731 -257 l 731 -257 l 706 -252 q 698 -284 693 -317 q 687 -351 687 -390 l 687 -390 q 687 -438 703 -476 q 718 -514 748 -536 q 777 -558 819 -558 l 819 -558 q 863 -558 895 -529 q 926 -501 936 -430 l 936 -430 l 929 -429 q 937 -496 968 -527 q 999 -558 1044 -558 z"},"്":{"ha":0,"x_min":-215,"x_max":38,"o":"m -90 -601 l -90 -601 q -127 -601 -155 -615 q -184 -630 -199 -661 q -215 -693 -215 -743 l -215 -743 q -215 -759 -213 -775 q -211 -792 -208 -805 l -208 -805 l -183 -801 q -186 -788 -187 -773 q -189 -759 -189 -743 l -189 -743 q -189 -699 -176 -673 q -164 -648 -141 -637 q -119 -627 -90 -627 l -90 -627 q -58 -627 -35 -638 q -13 -649 0 -674 q 12 -700 12 -743 l 12 -743 q 12 -759 10 -774 q 8 -789 5 -801 l 5 -801 l 30 -805 q 33 -793 36 -776 q 38 -759 38 -743 l 38 -743 q 38 -693 22 -661 q 5 -630 -23 -615 q -52 -601 -90 -601 z"},"ൎ":{"ha":0,"x_min":-296,"x_max":-262,"o":"m -296 -796 l -262 -796 l -267 -624 l -291 -624 l -296 -796 z"},"൏":{"ha":965,"x_min":51,"x_max":917,"o":"m 452 -558 l 452 -558 q 525 -558 565 -519 q 604 -480 614 -410 l 614 -410 l 607 -417 q 619 -488 653 -523 q 687 -558 746 -558 l 746 -558 q 800 -558 839 -522 q 877 -486 897 -413 q 917 -341 917 -233 l 917 -233 q 917 -89 874 13 q 830 115 735 169 q 640 223 489 223 l 489 223 q 386 223 312 199 q 237 174 187 130 q 136 86 106 29 q 76 -28 64 -92 q 51 -157 51 -223 l 51 -223 q 51 -311 68 -382 q 85 -453 113 -527 l 113 -527 l 138 -518 q 110 -448 94 -376 q 78 -305 78 -223 l 78 -223 q 78 -162 89 -101 q 100 -41 127 13 q 154 66 201 108 q 248 150 319 174 q 390 197 491 197 l 491 197 q 595 197 671 170 q 746 142 795 88 q 843 34 867 -47 q 890 -128 890 -235 l 890 -235 q 890 -329 875 -395 q 859 -461 827 -496 q 795 -532 747 -532 l 747 -532 q 719 -532 701 -524 q 683 -517 669 -502 l 669 -502 q 644 -477 634 -435 q 624 -393 624 -328 l 624 -328 l 624 0 l 598 0 l 598 -321 q 598 -393 586 -435 q 573 -477 544 -502 l 544 -502 q 527 -517 505 -524 q 483 -532 452 -532 l 452 -532 q 392 -532 347 -494 q 302 -457 278 -390 q 253 -324 253 -236 l 253 -236 l 253 -223 q 253 -147 267 -101 q 280 -55 305 -34 q 330 -14 365 -14 l 365 -14 q 389 -14 409 -26 q 429 -38 441 -68 q 453 -98 453 -150 l 453 -150 q 453 -208 431 -242 q 408 -276 360 -276 l 360 -276 q 323 -276 293 -257 q 263 -238 240 -209 l 240 -209 l 232 -233 q 264 -271 296 -286 q 328 -302 361 -302 l 361 -302 q 394 -302 421 -286 q 448 -270 464 -236 q 480 -203 480 -150 l 480 -150 q 480 -91 465 -55 q 449 -20 423 -4 q 397 12 365 12 l 365 12 q 326 12 295 -9 q 263 -31 245 -82 q 227 -134 227 -225 l 227 -225 q 227 -330 256 -404 q 284 -479 335 -518 q 386 -558 452 -558 z"},"ൔ":{"ha":484,"x_min":39,"x_max":474,"o":"m 111 -792 l 111 -792 q 134 -792 152 -786 q 170 -780 183 -770 l 183 -770 q 206 -752 216 -724 q 225 -696 225 -645 l 225 -645 l 225 -512 q 225 -450 232 -402 q 239 -354 256 -313 q 272 -272 301 -228 l 301 -228 l 307 -220 q 338 -180 378 -133 q 418 -86 474 -25 l 474 -25 l 462 0 l 59 0 l 59 -270 q 59 -317 64 -355 q 68 -393 79 -425 q 89 -457 108 -486 l 108 -486 q 129 -517 163 -536 q 196 -556 238 -556 l 238 -556 q 287 -556 317 -533 q 347 -511 362 -474 q 376 -437 376 -391 l 376 -391 q 376 -340 358 -294 q 339 -248 308 -205 l 308 -205 l 301 -196 q 275 -162 244 -129 q 213 -97 181 -67 q 148 -38 116 -11 l 116 -11 l 114 -22 q 137 -24 162 -25 q 186 -26 221 -26 l 221 -26 l 373 -26 q 390 -26 405 -26 q 420 -26 435 -25 q 449 -25 460 -23 l 460 -23 l 444 -21 q 396 -74 359 -117 q 322 -160 292 -199 l 292 -199 l 286 -206 q 254 -254 235 -296 q 215 -339 207 -388 q 199 -437 199 -503 l 199 -503 l 199 -641 q 199 -685 192 -710 q 185 -736 165 -751 l 165 -751 q 155 -758 143 -762 q 130 -766 111 -766 l 111 -766 q 94 -766 78 -763 q 61 -760 46 -755 l 46 -755 l 39 -780 q 54 -785 74 -788 q 93 -792 111 -792 z m 85 -257 l 85 -26 l 95 -26 q 131 -56 166 -87 q 200 -118 231 -150 q 261 -183 285 -217 l 285 -217 l 291 -226 q 319 -265 334 -306 q 349 -347 349 -391 l 349 -391 q 349 -433 338 -464 q 326 -496 302 -513 q 277 -531 237 -531 l 237 -531 q 205 -531 178 -516 q 150 -501 133 -476 l 133 -476 q 114 -451 104 -419 q 93 -387 89 -347 q 85 -307 85 -257 l 85 -257 z"},"ൕ":{"ha":791,"x_min":43,"x_max":759,"o":"m 535 12 l 535 12 q 507 12 484 8 q 460 4 440 -3 q 420 -11 403 -23 l 403 -23 q 401 -25 399 -26 q 396 -28 394 -29 l 394 -29 q 350 -63 321 -113 q 292 -163 279 -222 q 265 -282 265 -342 l 265 -342 q 265 -388 273 -426 q 281 -465 298 -493 l 298 -493 l 304 -502 q 317 -520 333 -532 q 348 -545 367 -551 q 386 -558 409 -558 l 409 -558 q 475 -558 514 -503 q 552 -449 552 -340 l 552 -340 q 552 -272 538 -212 q 524 -152 496 -105 q 467 -59 423 -29 l 423 -29 q 421 -28 419 -27 q 417 -26 415 -24 l 415 -24 q 387 -7 356 3 q 324 12 283 12 l 283 12 q 226 12 182 -12 q 137 -36 106 -80 q 75 -125 59 -187 q 43 -250 43 -327 l 43 -327 q 43 -405 65 -456 q 87 -508 124 -533 q 160 -558 202 -558 l 202 -558 q 247 -558 275 -538 q 302 -519 320 -497 l 320 -497 l 303 -478 q 285 -502 261 -517 q 237 -532 204 -532 l 204 -532 q 169 -532 138 -511 q 107 -490 89 -445 q 70 -400 70 -326 l 70 -326 q 70 -233 94 -162 q 118 -92 166 -53 q 213 -14 283 -14 l 283 -14 q 316 -14 342 -20 q 368 -27 391 -38 l 391 -38 q 393 -40 396 -41 q 399 -43 402 -44 l 402 -44 q 445 -71 473 -116 q 500 -162 513 -220 q 525 -278 525 -340 l 525 -340 q 525 -408 511 -450 q 497 -492 471 -512 q 445 -532 409 -532 l 409 -532 q 373 -532 347 -511 q 320 -490 306 -447 q 292 -405 292 -341 l 292 -341 q 292 -288 305 -230 q 317 -173 344 -124 q 371 -75 414 -45 l 414 -45 q 417 -44 420 -42 q 422 -41 425 -39 l 425 -39 q 446 -26 473 -20 q 499 -14 535 -14 l 535 -14 q 605 -14 646 -40 q 686 -67 704 -114 q 721 -161 721 -223 l 721 -223 q 721 -263 713 -301 q 704 -339 687 -379 q 670 -420 644 -466 l 644 -466 q 617 -514 600 -549 q 583 -585 575 -613 q 566 -642 566 -669 l 566 -669 q 566 -702 580 -730 q 593 -758 620 -775 q 647 -792 686 -792 l 686 -792 q 705 -792 724 -789 q 742 -786 759 -781 l 759 -781 l 752 -756 q 736 -761 721 -763 q 705 -766 685 -766 l 685 -766 q 636 -766 615 -736 q 593 -707 593 -669 l 593 -669 q 593 -645 600 -621 q 607 -597 623 -563 q 639 -529 667 -478 l 667 -478 q 693 -431 711 -389 q 728 -347 738 -306 q 748 -266 748 -223 l 748 -223 q 748 -180 740 -143 q 731 -107 715 -78 q 699 -49 674 -29 q 649 -9 615 2 q 580 12 535 12 z"},"ൖ":{"ha":529,"x_min":40,"x_max":489,"o":"m 125 -141 l 125 -141 q 125 -106 134 -77 q 143 -48 166 -31 q 189 -14 231 -14 l 231 -14 q 275 -14 297 -39 q 318 -65 318 -115 l 318 -115 q 318 -152 307 -188 q 295 -224 281 -260 q 266 -296 255 -335 q 243 -374 243 -418 l 243 -418 q 243 -457 259 -489 q 274 -521 302 -539 q 330 -558 366 -558 l 366 -558 q 408 -558 435 -536 q 462 -515 476 -479 q 489 -444 489 -400 l 489 -400 q 489 -332 465 -280 q 440 -228 393 -198 q 345 -169 277 -169 l 277 -169 l 271 -169 q 228 -169 191 -179 q 153 -189 123 -208 l 123 -208 l 114 -214 q 91 -233 74 -259 q 57 -285 49 -318 q 40 -352 40 -395 l 40 -395 q 40 -438 52 -479 q 63 -520 83 -557 l 83 -557 l 106 -544 q 85 -504 76 -468 q 67 -433 67 -394 l 67 -394 q 67 -340 82 -302 q 97 -265 123 -240 l 123 -240 l 132 -233 q 158 -213 193 -204 q 227 -195 268 -195 l 268 -195 l 279 -195 q 342 -195 383 -222 q 423 -250 443 -296 q 462 -342 462 -399 l 462 -399 q 462 -458 439 -495 q 415 -532 366 -532 l 366 -532 q 335 -532 314 -516 q 292 -501 281 -475 q 270 -449 270 -417 l 270 -417 q 270 -376 282 -337 q 293 -299 308 -261 q 322 -224 334 -188 q 345 -152 345 -115 l 345 -115 q 345 -88 338 -64 q 331 -41 317 -24 q 303 -7 282 3 q 261 12 231 12 l 231 12 q 186 12 156 -6 q 126 -25 112 -59 q 98 -94 98 -141 l 98 -141 q 98 -176 108 -213 q 117 -251 138 -304 q 158 -358 191 -437 l 191 -437 q 218 -499 233 -541 q 247 -583 253 -613 q 258 -644 258 -672 l 258 -672 q 258 -713 239 -739 q 219 -766 172 -766 l 172 -766 q 152 -766 135 -762 q 118 -759 102 -754 l 102 -754 l 95 -779 q 113 -785 133 -788 q 152 -792 172 -792 l 172 -792 q 213 -792 238 -775 q 263 -758 274 -730 q 285 -703 285 -673 l 285 -673 q 285 -651 282 -627 q 279 -603 271 -574 q 263 -546 250 -510 q 237 -475 216 -427 l 216 -427 q 189 -364 172 -320 q 154 -277 144 -246 q 133 -215 129 -190 q 125 -166 125 -141 z"},"ൗ":{"ha":584,"x_min":40,"x_max":539,"o":"m 397 -558 l 397 -558 q 442 -558 474 -528 q 505 -498 522 -441 q 539 -384 539 -301 l 539 -301 q 539 -197 518 -127 q 497 -58 450 -23 q 402 12 322 12 l 322 12 q 283 12 248 5 q 212 -3 174 -22 l 174 -22 l 186 -45 q 222 -28 252 -21 q 282 -14 322 -14 l 322 -14 q 397 -14 438 -46 q 479 -79 496 -143 q 512 -207 512 -301 l 512 -301 q 512 -417 481 -474 q 450 -532 396 -532 l 396 -532 q 372 -532 356 -522 q 340 -513 329 -497 l 329 -497 q 310 -469 304 -430 q 298 -391 298 -348 l 298 -348 l 298 -255 l 272 -255 l 272 -351 q 272 -405 265 -440 q 258 -476 241 -498 l 241 -498 q 229 -514 212 -523 q 195 -532 172 -532 l 172 -532 q 120 -532 94 -491 q 67 -450 67 -388 l 67 -388 q 67 -354 72 -322 q 76 -290 84 -257 l 84 -257 l 59 -252 q 51 -284 46 -317 q 40 -351 40 -390 l 40 -390 q 40 -438 56 -476 q 71 -514 101 -536 q 130 -558 172 -558 l 172 -558 q 216 -558 248 -529 q 279 -501 289 -430 l 289 -430 l 282 -429 q 290 -496 321 -527 q 352 -558 397 -558 z"},"൘":{"ha":934,"x_min":43,"x_max":885,"o":"m 467 12 l 467 12 q 409 12 375 -24 q 341 -61 333 -137 l 333 -137 l 340 -130 q 331 -58 298 -23 q 264 12 210 12 l 210 12 q 159 12 122 -21 q 84 -54 64 -112 q 43 -171 43 -247 l 43 -247 q 43 -326 60 -381 q 77 -436 104 -476 q 131 -517 162 -552 l 162 -552 l 181 -535 q 150 -500 125 -460 q 99 -420 85 -368 q 70 -317 70 -247 l 70 -247 q 70 -185 86 -131 q 102 -78 133 -46 q 164 -14 210 -14 l 210 -14 q 233 -14 251 -22 q 269 -30 282 -44 l 282 -44 q 306 -70 315 -111 q 324 -152 324 -216 l 324 -216 l 324 -546 l 350 -546 l 350 -217 q 350 -151 359 -110 q 368 -70 390 -45 l 390 -45 q 403 -31 423 -22 q 442 -14 466 -14 l 466 -14 q 492 -14 511 -22 q 530 -31 543 -45 l 543 -45 q 565 -70 574 -110 q 582 -150 582 -218 l 582 -218 l 582 -546 l 608 -546 l 608 -231 l 600 -136 q 593 -59 558 -23 q 522 12 467 12 z m 724 12 l 724 12 q 670 12 636 -23 q 602 -58 592 -130 l 592 -130 l 591 -224 l 591 -536 l 608 -536 l 608 -215 q 608 -152 617 -112 q 626 -73 649 -47 l 649 -47 q 663 -31 681 -22 q 699 -14 724 -14 l 724 -14 q 769 -14 799 -46 q 829 -79 844 -145 q 858 -212 858 -314 l 858 -314 q 858 -412 842 -492 q 826 -572 796 -632 q 766 -693 721 -734 q 676 -775 617 -796 q 558 -817 485 -817 l 485 -817 q 434 -817 388 -811 q 341 -806 297 -795 l 297 -795 l 292 -821 q 318 -828 349 -832 q 379 -837 414 -840 q 448 -843 485 -843 l 485 -843 q 562 -843 625 -821 q 687 -799 736 -755 q 785 -712 818 -648 q 851 -584 868 -500 q 885 -417 885 -314 l 885 -314 q 885 -199 866 -127 q 847 -55 811 -21 q 775 12 724 12 z"},"൙":{"ha":833,"x_min":43,"x_max":811,"o":"m 276 -558 l 276 -558 q 337 -558 382 -534 q 427 -510 458 -467 q 488 -424 503 -363 q 517 -303 517 -230 l 517 -230 q 517 -136 499 -83 q 481 -31 448 -9 q 415 12 372 12 l 372 12 q 328 12 300 -8 q 272 -29 259 -62 q 245 -95 245 -131 l 245 -131 q 245 -170 258 -200 q 271 -230 294 -251 l 294 -251 q 315 -270 343 -281 q 370 -293 406 -298 q 442 -303 485 -303 l 485 -303 l 512 -303 l 512 -277 l 484 -277 q 428 -277 386 -268 q 344 -260 316 -236 l 316 -236 q 295 -219 284 -193 q 272 -167 272 -134 l 272 -134 q 272 -79 298 -46 q 323 -14 371 -14 l 371 -14 q 412 -14 439 -34 q 465 -55 478 -102 q 491 -149 491 -228 l 491 -228 q 491 -244 491 -257 q 491 -271 489 -284 l 489 -284 l 489 -291 q 481 -368 455 -422 q 428 -476 384 -504 q 339 -532 276 -532 l 276 -532 q 212 -532 166 -500 q 119 -468 95 -412 q 70 -357 70 -287 l 70 -287 q 70 -220 85 -169 q 99 -119 126 -81 q 152 -44 184 -13 l 184 -13 l 166 6 q 138 -21 110 -59 q 81 -98 62 -153 q 43 -209 43 -286 l 43 -286 q 43 -342 58 -391 q 73 -440 102 -478 q 131 -516 175 -537 q 219 -558 276 -558 z m 701 -546 l 701 -546 q 736 -546 761 -529 q 785 -512 798 -483 q 811 -455 811 -419 l 811 -419 q 811 -386 801 -358 q 791 -331 772 -314 l 772 -314 q 757 -301 739 -292 q 721 -284 699 -280 q 676 -277 648 -277 l 648 -277 l 506 -277 l 506 -303 l 646 -303 q 689 -303 713 -310 q 737 -317 753 -332 l 753 -332 q 769 -346 777 -368 q 784 -390 784 -418 l 784 -418 q 784 -463 763 -491 q 742 -520 702 -520 l 702 -520 q 659 -520 636 -491 q 612 -462 612 -409 l 612 -409 q 612 -374 623 -344 q 633 -314 649 -287 l 649 -287 l 622 -283 q 606 -310 596 -342 q 585 -375 585 -413 l 585 -413 q 585 -455 600 -484 q 615 -514 642 -530 q 669 -546 701 -546 z"},"൚":{"ha":827,"x_min":43,"x_max":769,"o":"m 556 -558 l 556 -558 q 604 -558 640 -543 q 676 -529 701 -504 l 701 -504 q 725 -479 740 -445 q 754 -411 762 -368 q 769 -326 769 -271 l 769 -271 l 769 0 l 372 0 l 372 -26 q 437 -87 491 -151 q 544 -215 576 -280 q 608 -345 608 -407 l 608 -407 q 608 -438 600 -465 q 592 -493 573 -510 q 553 -527 519 -527 l 519 -527 q 489 -527 465 -516 q 440 -505 420 -483 l 420 -483 q 390 -449 377 -398 q 363 -347 363 -270 l 363 -270 l 363 -230 l 337 -230 l 337 -328 q 337 -392 327 -434 q 317 -476 293 -502 l 293 -502 q 279 -517 261 -524 q 243 -532 217 -532 l 217 -532 q 169 -532 136 -500 q 103 -469 87 -415 q 70 -362 70 -299 l 70 -299 q 70 -230 85 -178 q 99 -126 125 -86 q 150 -46 181 -11 l 181 -11 l 162 6 q 131 -29 104 -69 q 77 -110 60 -165 q 43 -221 43 -299 l 43 -299 q 43 -376 65 -434 q 86 -492 126 -525 q 165 -558 217 -558 l 217 -558 q 268 -558 298 -533 q 327 -509 341 -468 q 355 -427 360 -376 l 360 -376 l 348 -374 q 357 -434 384 -474 q 411 -515 455 -536 q 498 -558 556 -558 z m 635 -408 l 635 -408 q 635 -341 603 -274 q 571 -208 517 -142 q 462 -77 393 -10 l 393 -10 l 396 -24 q 422 -26 460 -26 q 498 -26 531 -26 l 531 -26 l 743 -26 l 743 -264 q 743 -349 725 -409 q 707 -469 667 -502 q 626 -535 558 -535 l 558 -535 l 556 -538 q 601 -525 618 -489 q 635 -454 635 -408 z"},"൛":{"ha":744,"x_min":69,"x_max":702,"o":"m 484 12 l 484 12 q 433 12 394 -8 q 354 -29 327 -65 q 300 -101 286 -150 q 272 -200 272 -258 l 272 -258 q 272 -337 291 -391 q 309 -445 335 -480 q 361 -515 382 -533 l 382 -533 l 378 -520 l 95 -520 l 95 0 l 69 0 l 69 -546 l 394 -546 l 406 -525 q 383 -504 358 -469 q 333 -434 316 -382 q 299 -331 299 -259 l 299 -259 q 299 -189 320 -133 q 341 -78 382 -46 q 423 -14 485 -14 l 485 -14 q 548 -14 591 -47 q 633 -81 654 -137 q 675 -193 675 -259 l 675 -259 q 675 -326 660 -376 q 645 -427 620 -464 q 594 -502 560 -533 l 560 -533 l 578 -552 q 608 -525 636 -486 q 664 -448 683 -393 q 702 -338 702 -260 l 702 -260 q 702 -202 688 -152 q 673 -103 645 -66 q 616 -29 576 -8 q 535 12 484 12 z"},"൜":{"ha":1178,"x_min":43,"x_max":1135,"o":"m 713 -558 l 713 -558 q 745 -558 770 -546 q 794 -535 810 -516 l 810 -516 q 827 -497 836 -472 q 844 -447 847 -415 q 850 -384 850 -342 l 850 -342 l 850 -229 q 850 -158 858 -115 q 865 -73 888 -47 l 888 -47 q 901 -31 920 -22 q 939 -14 967 -14 l 967 -14 q 1014 -14 1045 -43 q 1076 -73 1092 -125 q 1108 -178 1108 -247 l 1108 -247 q 1108 -317 1094 -368 q 1079 -420 1054 -460 q 1029 -500 997 -535 l 997 -535 l 1016 -553 q 1047 -519 1074 -477 q 1101 -436 1118 -381 q 1135 -326 1135 -248 l 1135 -248 q 1135 -169 1116 -110 q 1096 -52 1058 -20 q 1020 12 966 12 l 966 12 q 934 12 909 1 q 884 -10 868 -29 l 868 -29 q 850 -50 841 -77 q 831 -104 828 -139 q 824 -174 824 -218 l 824 -218 l 824 -335 q 824 -395 818 -435 q 811 -476 789 -500 l 789 -500 q 776 -516 757 -524 q 738 -532 713 -532 l 713 -532 q 688 -532 669 -524 q 650 -516 637 -500 l 637 -500 q 615 -476 609 -435 q 602 -395 602 -335 l 602 -335 l 602 -204 q 602 -163 599 -130 q 596 -98 587 -72 q 578 -47 560 -28 l 560 -28 q 544 -11 520 1 q 495 12 465 12 l 465 12 q 433 12 409 1 q 385 -11 368 -30 l 368 -30 q 352 -49 343 -74 q 334 -99 331 -131 q 328 -163 328 -204 l 328 -204 l 328 -317 q 328 -388 321 -430 q 313 -473 291 -499 l 291 -499 q 277 -515 258 -523 q 239 -532 211 -532 l 211 -532 q 165 -532 134 -502 q 102 -473 86 -420 q 70 -368 70 -299 l 70 -299 q 70 -230 85 -178 q 99 -126 125 -86 q 150 -46 181 -11 l 181 -11 l 162 7 q 131 -28 104 -69 q 77 -110 60 -165 q 43 -220 43 -298 l 43 -298 q 43 -378 63 -436 q 82 -494 120 -526 q 158 -558 212 -558 l 212 -558 q 245 -558 270 -547 q 294 -536 310 -517 l 310 -517 q 328 -496 338 -469 q 348 -442 351 -407 q 354 -373 354 -328 l 354 -328 l 354 -211 q 354 -151 361 -111 q 367 -71 389 -46 l 389 -46 q 402 -31 421 -22 q 440 -14 465 -14 l 465 -14 q 490 -14 509 -22 q 528 -31 541 -46 l 541 -46 q 563 -71 570 -111 q 576 -152 576 -211 l 576 -211 l 576 -342 q 576 -384 579 -416 q 582 -449 591 -474 q 600 -499 618 -518 l 618 -518 q 634 -536 659 -547 q 683 -558 713 -558 z"},"൝":{"ha":1591,"x_min":10,"x_max":1548,"o":"m 631 -558 l 631 -558 q 663 -558 688 -546 q 712 -535 728 -516 l 728 -516 q 744 -497 753 -472 q 762 -447 765 -415 q 767 -384 767 -342 l 767 -342 l 767 -211 q 767 -151 774 -111 q 780 -71 802 -46 l 802 -46 q 815 -31 834 -22 q 853 -14 878 -14 l 878 -14 q 903 -14 922 -22 q 941 -31 954 -46 l 954 -46 q 976 -71 983 -111 q 989 -152 989 -211 l 989 -211 l 989 -342 q 989 -384 992 -416 q 995 -449 1004 -474 q 1013 -499 1031 -518 l 1031 -518 q 1047 -536 1072 -547 q 1096 -558 1126 -558 l 1126 -558 q 1158 -558 1183 -546 q 1207 -535 1223 -516 l 1223 -516 q 1240 -497 1249 -472 q 1257 -447 1260 -415 q 1263 -384 1263 -342 l 1263 -342 l 1263 -229 q 1263 -158 1271 -115 q 1278 -73 1301 -47 l 1301 -47 q 1314 -31 1333 -22 q 1352 -14 1380 -14 l 1380 -14 q 1427 -14 1458 -43 q 1489 -73 1505 -125 q 1521 -178 1521 -247 l 1521 -247 q 1521 -317 1507 -368 q 1492 -420 1467 -460 q 1442 -500 1410 -535 l 1410 -535 l 1429 -553 q 1460 -519 1487 -477 q 1514 -436 1531 -381 q 1548 -326 1548 -248 l 1548 -248 q 1548 -169 1529 -110 q 1509 -52 1471 -20 q 1433 12 1379 12 l 1379 12 q 1347 12 1322 1 q 1297 -10 1281 -29 l 1281 -29 q 1263 -50 1254 -77 q 1244 -104 1241 -139 q 1237 -174 1237 -218 l 1237 -218 l 1237 -335 q 1237 -395 1231 -435 q 1224 -476 1202 -500 l 1202 -500 q 1189 -516 1170 -524 q 1151 -532 1126 -532 l 1126 -532 q 1101 -532 1082 -524 q 1063 -516 1050 -500 l 1050 -500 q 1028 -476 1022 -435 q 1015 -395 1015 -335 l 1015 -335 l 1015 -204 q 1015 -163 1012 -130 q 1009 -98 1000 -72 q 991 -47 973 -28 l 973 -28 q 957 -11 933 1 q 908 12 878 12 l 878 12 q 846 12 822 1 q 798 -11 781 -30 l 781 -30 q 765 -49 756 -74 q 747 -99 744 -131 q 741 -163 741 -204 l 741 -204 l 741 -335 q 741 -395 735 -435 q 729 -476 707 -500 l 707 -500 q 694 -516 675 -524 q 656 -532 631 -532 l 631 -532 q 606 -532 587 -524 q 567 -516 555 -500 l 555 -500 q 533 -476 527 -435 q 520 -395 520 -335 l 520 -335 l 520 -207 q 520 -136 511 -96 q 501 -57 476 -29 l 476 -29 q 459 -11 435 1 q 410 12 378 12 l 378 12 q 322 12 288 -23 q 254 -58 247 -136 l 247 -136 l 254 -130 q 247 -84 230 -52 q 212 -20 183 -4 q 153 12 111 12 l 111 12 q 88 12 61 7 q 34 1 10 -12 l 10 -12 l 21 -35 q 41 -25 64 -19 q 86 -14 111 -14 l 111 -14 q 142 -14 161 -22 q 180 -30 194 -44 l 194 -44 q 218 -70 228 -111 q 238 -153 238 -218 l 238 -218 l 238 -546 l 264 -546 l 264 -212 q 264 -150 273 -107 q 282 -65 306 -41 l 306 -41 q 318 -28 336 -21 q 354 -14 378 -14 l 378 -14 q 404 -14 424 -22 q 443 -31 456 -46 l 456 -46 q 478 -71 486 -110 q 494 -150 494 -220 l 494 -220 l 494 -342 q 494 -384 497 -416 q 500 -449 509 -474 q 518 -499 536 -518 l 536 -518 q 552 -536 577 -547 q 601 -558 631 -558 z"},"൞":{"ha":1026,"x_min":43,"x_max":993,"o":"m 276 -558 l 276 -558 q 337 -558 382 -534 q 427 -510 458 -467 q 488 -424 503 -363 q 517 -303 517 -230 l 517 -230 q 517 -136 499 -83 q 481 -31 448 -9 q 415 12 372 12 l 372 12 q 328 12 300 -8 q 272 -29 259 -62 q 245 -95 245 -131 l 245 -131 q 245 -170 258 -200 q 271 -230 294 -251 l 294 -251 q 315 -270 343 -281 q 370 -293 406 -298 q 442 -303 485 -303 l 485 -303 l 500 -303 l 500 -277 l 484 -277 q 428 -277 386 -268 q 344 -260 316 -236 l 316 -236 q 295 -219 284 -193 q 272 -167 272 -134 l 272 -134 q 272 -79 298 -46 q 323 -14 371 -14 l 371 -14 q 412 -14 439 -34 q 465 -55 478 -102 q 491 -149 491 -228 l 491 -228 q 491 -244 491 -257 q 491 -271 489 -284 l 489 -284 l 489 -291 q 481 -368 455 -422 q 428 -476 384 -504 q 339 -532 276 -532 l 276 -532 q 212 -532 166 -500 q 119 -468 95 -412 q 70 -357 70 -287 l 70 -287 q 70 -220 85 -169 q 99 -119 126 -81 q 152 -44 184 -13 l 184 -13 l 166 6 q 138 -21 110 -59 q 81 -98 62 -153 q 43 -209 43 -286 l 43 -286 q 43 -342 58 -391 q 73 -440 102 -478 q 131 -516 175 -537 q 219 -558 276 -558 z m 857 -219 l 857 -219 q 817 -219 786 -238 q 755 -257 738 -292 q 720 -328 720 -379 l 720 -379 q 720 -426 737 -466 q 754 -507 782 -536 l 782 -536 l 778 -520 l 594 -520 l 601 -532 q 624 -503 638 -472 q 651 -441 651 -406 l 651 -406 q 651 -353 629 -325 q 606 -297 571 -287 q 535 -277 495 -277 l 495 -277 l 483 -277 l 483 -303 l 492 -303 q 525 -303 555 -309 q 585 -315 605 -336 q 625 -358 625 -405 l 625 -405 q 625 -439 611 -467 q 597 -496 578 -521 l 578 -521 l 588 -546 l 789 -546 l 803 -526 q 776 -495 762 -458 q 747 -421 747 -380 l 747 -380 q 747 -312 778 -278 q 808 -245 857 -245 l 857 -245 q 892 -245 917 -262 q 941 -279 954 -309 q 966 -339 966 -378 l 966 -378 q 966 -430 948 -468 q 929 -506 901 -536 l 901 -536 l 920 -554 q 952 -518 973 -477 q 993 -436 993 -377 l 993 -377 q 993 -331 976 -295 q 959 -259 929 -239 q 898 -219 857 -219 z"},"ൟ":{"ha":1009,"x_min":29,"x_max":980,"o":"m 29 -264 l 29 -264 q 29 -322 56 -355 q 83 -388 127 -388 l 127 -388 q 172 -388 199 -355 q 226 -322 226 -264 l 226 -264 q 226 -206 199 -173 q 172 -140 127 -140 l 127 -140 q 83 -140 56 -173 q 29 -206 29 -264 z m 56 -264 l 56 -264 q 56 -217 75 -191 q 94 -165 127 -165 l 127 -165 q 161 -165 180 -191 q 199 -217 199 -264 l 199 -264 q 199 -311 180 -337 q 161 -363 127 -363 l 127 -363 q 94 -363 75 -337 q 56 -311 56 -264 z m 783 -264 l 783 -264 q 783 -322 810 -355 q 837 -388 881 -388 l 881 -388 q 926 -388 953 -355 q 980 -322 980 -264 l 980 -264 q 980 -206 953 -173 q 926 -140 881 -140 l 881 -140 q 837 -140 810 -173 q 783 -206 783 -264 z m 810 -264 l 810 -264 q 810 -217 829 -191 q 848 -165 881 -165 l 881 -165 q 916 -165 935 -191 q 953 -217 953 -264 l 953 -264 q 953 -311 935 -337 q 916 -363 881 -363 l 881 -363 q 848 -363 829 -337 q 810 -311 810 -264 z m 501 -558 l 501 -558 q 560 -558 605 -535 q 650 -512 681 -469 q 711 -426 727 -367 q 742 -309 742 -238 l 742 -238 q 742 -143 724 -88 q 705 -34 673 -11 q 641 12 598 12 l 598 12 q 550 12 520 -12 q 489 -37 475 -82 q 461 -128 461 -188 l 461 -188 q 461 -286 501 -333 q 540 -380 602 -380 l 602 -380 q 637 -380 662 -366 q 687 -353 706 -331 q 724 -309 736 -284 l 736 -284 l 728 -263 q 716 -287 699 -307 q 682 -328 659 -341 q 636 -354 604 -354 l 604 -354 q 545 -354 517 -311 q 488 -269 488 -188 l 488 -188 q 488 -136 499 -96 q 509 -57 534 -35 q 558 -14 599 -14 l 599 -14 q 635 -14 661 -35 q 687 -56 702 -105 q 716 -155 716 -238 l 716 -238 q 716 -254 716 -271 q 715 -289 713 -296 l 713 -296 q 714 -298 715 -300 q 715 -303 714 -307 l 714 -307 q 705 -365 682 -416 q 658 -468 615 -500 q 571 -532 501 -532 l 501 -532 q 436 -532 390 -500 q 343 -468 319 -412 q 294 -357 294 -287 l 294 -287 q 294 -220 309 -169 q 324 -119 350 -81 q 376 -44 409 -13 l 409 -13 l 391 6 q 362 -21 334 -59 q 305 -98 286 -153 q 267 -209 267 -286 l 267 -286 q 267 -342 282 -391 q 297 -440 327 -478 q 356 -516 400 -537 q 443 -558 501 -558 z"},"ൠ":{"ha":675,"x_min":40,"x_max":634,"o":"m 502 -558 l 502 -558 q 565 -558 600 -507 q 634 -457 634 -364 l 634 -364 q 634 -308 621 -265 q 607 -223 582 -193 l 582 -193 q 546 -150 491 -128 q 435 -107 362 -107 l 362 -107 l 348 -107 l 326 -107 l 312 -107 q 240 -107 184 -128 q 128 -150 93 -193 l 93 -193 q 68 -223 54 -265 q 40 -308 40 -363 l 40 -363 q 40 -424 56 -467 q 72 -511 103 -534 q 133 -558 175 -558 l 175 -558 q 211 -558 237 -539 q 262 -521 275 -489 q 288 -458 288 -416 l 288 -416 q 288 -374 275 -342 q 261 -311 234 -293 q 206 -276 167 -276 l 167 -276 q 142 -276 121 -283 q 100 -291 82 -304 q 64 -318 48 -335 l 48 -335 l 56 -360 q 69 -344 85 -330 q 101 -317 121 -309 q 141 -302 166 -302 l 166 -302 q 213 -302 237 -331 q 261 -360 261 -417 l 261 -417 q 261 -469 239 -500 q 217 -532 175 -532 l 175 -532 q 138 -532 114 -510 q 89 -488 78 -450 q 66 -412 66 -362 l 66 -362 q 66 -355 67 -347 q 67 -340 67 -332 l 67 -332 l 68 -322 q 74 -269 96 -231 q 118 -193 153 -169 q 188 -146 234 -134 q 279 -123 333 -123 l 333 -123 l 340 -123 q 395 -123 441 -134 q 487 -146 522 -169 q 557 -193 579 -231 q 601 -269 607 -322 l 607 -322 l 607 -332 q 608 -340 609 -348 q 609 -356 609 -364 l 609 -364 q 609 -414 598 -452 q 587 -490 564 -511 q 540 -532 502 -532 l 502 -532 q 458 -532 436 -498 q 413 -465 413 -413 l 413 -413 q 413 -358 437 -330 q 460 -302 506 -302 l 506 -302 q 533 -302 553 -309 q 573 -317 589 -330 q 605 -344 618 -360 l 618 -360 l 626 -335 q 611 -318 593 -304 q 575 -291 553 -283 q 531 -276 505 -276 l 505 -276 q 466 -276 440 -293 q 413 -311 400 -342 q 386 -373 386 -413 l 386 -413 q 386 -455 400 -487 q 414 -520 440 -539 q 466 -558 502 -558 z m 336 203 l 336 203 q 241 203 181 185 q 121 166 93 130 q 65 93 65 40 l 65 40 q 65 -4 84 -33 q 102 -62 134 -80 q 166 -99 210 -106 q 253 -114 303 -114 l 303 -114 l 371 -114 q 422 -114 465 -106 q 508 -99 541 -81 q 573 -63 592 -33 q 610 -4 610 39 l 610 39 q 610 91 582 128 q 554 165 494 184 q 434 203 336 203 z m 337 177 l 337 177 q 425 177 479 162 q 533 146 558 116 q 583 85 583 39 l 583 39 q 583 5 569 -20 q 554 -46 524 -63 q 493 -81 447 -89 q 401 -98 339 -98 l 339 -98 l 335 -98 q 252 -98 198 -82 q 144 -67 118 -36 q 92 -6 92 39 l 92 39 q 92 85 116 116 q 140 146 194 162 q 248 177 337 177 z m 402 -33 l 402 -33 q 424 -33 439 -24 q 453 -15 462 0 q 470 14 474 32 q 478 50 478 68 l 478 68 l 478 103 l 452 103 l 452 73 q 452 29 439 11 q 426 -7 401 -7 l 401 -7 q 376 -7 363 14 q 350 35 350 73 l 350 73 l 350 103 l 324 103 l 324 73 q 324 35 311 14 q 298 -7 273 -7 l 273 -7 q 248 -7 235 11 q 222 29 222 73 l 222 73 l 222 103 l 196 103 l 196 67 q 196 49 200 31 q 204 13 213 -1 q 221 -15 236 -24 q 250 -33 272 -33 l 272 -33 q 296 -33 313 -19 q 329 -5 337 22 l 337 22 q 345 -4 362 -18 q 379 -33 402 -33 z"},"ൡ":{"ha":995,"x_min":45,"x_max":967,"o":"m 270 -558 l 270 -558 q 343 -558 383 -518 q 423 -479 433 -406 l 433 -406 l 435 -369 l 442 -290 l 442 0 l 416 0 l 416 -321 q 416 -393 404 -435 q 391 -477 362 -502 l 362 -502 q 345 -517 323 -524 q 301 -532 270 -532 l 270 -532 q 210 -532 165 -494 q 120 -457 96 -390 q 71 -324 71 -236 l 71 -236 l 71 -223 q 71 -147 85 -101 q 98 -55 123 -34 q 148 -14 183 -14 l 183 -14 q 207 -14 227 -26 q 247 -38 259 -68 q 271 -98 271 -150 l 271 -150 q 271 -208 249 -242 q 226 -276 178 -276 l 178 -276 q 141 -276 111 -257 q 81 -238 58 -209 l 58 -209 l 50 -233 q 82 -271 114 -286 q 146 -302 179 -302 l 179 -302 q 212 -302 239 -286 q 266 -270 282 -236 q 298 -203 298 -150 l 298 -150 q 298 -91 283 -55 q 267 -20 241 -4 q 215 12 183 12 l 183 12 q 144 12 113 -9 q 81 -31 63 -82 q 45 -134 45 -225 l 45 -225 q 45 -330 74 -404 q 102 -479 153 -518 q 204 -558 270 -558 z m 599 -558 l 599 -558 q 667 -558 712 -527 q 756 -496 782 -445 q 808 -395 819 -335 l 819 -335 q 824 -308 826 -279 q 828 -250 828 -223 l 828 -223 q 828 -137 808 -85 q 788 -34 755 -11 q 722 12 681 12 l 681 12 q 633 12 605 -12 q 576 -37 564 -76 q 551 -116 551 -160 l 551 -160 q 551 -256 604 -306 q 657 -357 746 -357 l 746 -357 q 759 -357 772 -355 q 784 -354 796 -351 l 796 -351 l 809 -349 q 865 -334 900 -293 q 934 -253 951 -198 q 967 -143 967 -83 l 967 -83 q 967 -14 951 39 q 934 92 903 128 q 872 164 827 183 q 782 201 725 201 l 725 201 q 693 201 664 196 q 635 191 608 182 l 608 182 l 617 157 q 639 165 666 170 q 693 175 725 175 l 725 175 q 780 175 821 157 q 861 139 888 106 q 914 72 927 25 q 940 -23 940 -84 l 940 -84 q 940 -135 927 -184 q 913 -233 885 -270 q 856 -307 811 -322 l 811 -322 l 799 -325 q 787 -328 775 -329 q 762 -331 748 -331 l 748 -331 q 698 -331 660 -314 q 622 -297 600 -259 q 578 -222 578 -160 l 578 -160 q 578 -123 587 -89 q 595 -56 618 -35 q 641 -14 682 -14 l 682 -14 q 742 -14 772 -67 q 801 -121 801 -224 l 801 -224 q 801 -250 799 -278 q 797 -306 792 -334 l 792 -334 l 790 -345 q 780 -394 758 -436 q 735 -479 697 -505 q 658 -532 598 -532 l 598 -532 q 565 -532 540 -523 q 515 -514 496 -498 l 496 -498 q 479 -483 467 -460 q 454 -437 448 -404 q 442 -372 442 -324 l 442 -324 l 442 -243 l 423 -375 q 427 -436 450 -477 q 472 -518 510 -538 q 548 -558 599 -558 z"},"ൢ":{"ha":0,"x_min":-595,"x_max":-40,"o":"m -437 -1 l -437 -1 q -379 -1 -350 31 q -322 62 -314 117 l -314 117 l -308 156 l -308 332 l -334 332 l -334 165 q -334 125 -341 95 q -349 65 -367 48 l -367 48 q -379 35 -396 29 q -414 23 -436 23 l -436 23 q -473 23 -501 40 q -529 57 -546 87 q -563 116 -567 156 l -567 156 q -568 163 -568 171 q -569 178 -569 185 l -569 185 q -569 245 -552 278 q -535 311 -502 311 l -502 311 q -467 311 -452 287 q -438 262 -438 226 l -438 226 q -438 182 -455 162 q -472 142 -500 142 l -500 142 q -523 142 -543 152 q -563 162 -581 183 l -581 183 l -588 161 q -570 142 -547 130 q -525 117 -500 117 l -500 117 q -461 117 -436 144 q -411 171 -411 226 l -411 226 q -411 275 -434 306 q -457 337 -502 337 l -502 337 q -548 337 -571 294 q -595 251 -595 184 l -595 184 q -595 130 -575 89 q -556 47 -520 23 q -485 -1 -437 -1 z m -194 -1 l -194 -1 q -138 -1 -104 25 q -70 50 -55 93 q -40 136 -40 187 l -40 187 q -40 272 -67 305 q -95 337 -137 337 l -137 337 q -169 337 -190 322 q -212 306 -222 280 q -232 253 -232 220 l -232 220 q -232 182 -219 156 q -207 129 -184 116 q -162 102 -133 102 l -133 102 q -107 102 -89 114 q -72 125 -60 141 q -48 156 -43 171 l -43 171 l -50 188 q -61 164 -80 146 q -100 127 -131 127 l -131 127 q -168 127 -186 152 q -205 176 -205 221 l -205 221 q -205 258 -190 285 q -175 311 -137 311 l -137 311 q -102 311 -84 282 q -66 252 -66 187 l -66 187 q -66 176 -66 166 q -67 155 -68 148 l -68 148 l -69 140 q -72 112 -86 85 q -100 58 -126 41 q -152 23 -195 23 l -195 23 q -220 23 -238 31 q -256 38 -270 52 l -270 52 q -290 72 -299 104 q -308 136 -308 184 l -308 184 l -327 143 q -325 103 -311 71 q -297 38 -268 19 q -240 -1 -194 -1 z"},"ൣ":{"ha":0,"x_min":-595,"x_max":54,"o":"m -437 -1 l -437 -1 q -379 -1 -350 31 q -322 62 -314 117 l -314 117 l -308 156 l -308 332 l -334 332 l -334 165 q -334 125 -341 95 q -349 65 -367 48 l -367 48 q -379 35 -396 29 q -414 23 -436 23 l -436 23 q -473 23 -501 40 q -529 57 -546 87 q -563 116 -567 156 l -567 156 q -568 163 -568 171 q -569 178 -569 185 l -569 185 q -569 245 -552 278 q -535 311 -502 311 l -502 311 q -467 311 -452 287 q -438 262 -438 226 l -438 226 q -438 182 -455 162 q -472 142 -500 142 l -500 142 q -523 142 -543 152 q -563 162 -581 183 l -581 183 l -588 161 q -570 142 -547 130 q -525 117 -500 117 l -500 117 q -461 117 -436 144 q -411 171 -411 226 l -411 226 q -411 275 -434 306 q -457 337 -502 337 l -502 337 q -548 337 -571 294 q -595 251 -595 184 l -595 184 q -595 130 -575 89 q -556 47 -520 23 q -485 -1 -437 -1 z m -194 -1 l -194 -1 q -138 -1 -105 27 q -72 54 -57 97 q -43 140 -43 186 l -43 186 q -43 243 -55 277 q -68 310 -90 324 q -112 337 -141 337 l -141 337 q -170 337 -190 322 q -211 307 -221 283 q -232 259 -232 230 l -232 230 q -232 164 -194 133 q -156 102 -102 102 l -102 102 q -93 102 -84 103 q -75 103 -67 105 l -67 105 q -27 112 0 135 q 27 157 41 191 q 54 225 54 267 l 54 267 q 54 292 49 318 q 43 344 31 365 l 31 365 l 7 355 q 17 335 22 314 q 27 292 27 269 l 27 269 q 27 219 7 182 q -13 145 -55 132 l -55 132 l -66 130 q -74 128 -83 128 q -92 127 -101 127 l -101 127 q -149 127 -177 152 q -205 177 -205 231 l -205 231 q -205 260 -190 286 q -176 311 -140 311 l -140 311 q -105 311 -87 283 q -69 255 -69 187 l -69 187 q -69 170 -70 153 q -72 135 -77 119 l -77 119 l -80 109 q -88 84 -104 65 q -120 45 -142 34 q -164 23 -195 23 l -195 23 q -220 23 -238 31 q -256 38 -270 52 l -270 52 q -290 72 -299 104 q -308 136 -308 184 l -308 184 l -327 143 q -326 113 -317 87 q -309 61 -293 42 q -277 22 -252 11 q -228 -1 -194 -1 z"},"൦":{"ha":451,"x_min":44,"x_max":407,"o":"m 225 -49 l 225 -49 q 170 -49 129 -76 q 88 -103 66 -155 q 44 -208 44 -282 l 44 -282 q 44 -356 66 -408 q 88 -460 129 -487 q 170 -514 225 -514 l 225 -514 q 281 -514 322 -487 q 362 -460 385 -408 q 407 -357 407 -282 l 407 -282 q 407 -207 385 -155 q 362 -103 322 -76 q 281 -49 225 -49 z m 225 -75 l 225 -75 q 272 -75 307 -97 q 341 -120 361 -166 q 380 -212 380 -282 l 380 -282 q 380 -386 338 -437 q 295 -488 225 -488 l 225 -488 q 156 -488 114 -437 q 71 -386 71 -281 l 71 -281 q 71 -177 114 -126 q 156 -75 225 -75 z"},"൧":{"ha":696,"x_min":13,"x_max":633,"o":"m 304 175 l 304 201 l 179 201 q 134 201 105 194 q 75 187 52 170 l 52 170 q 33 156 23 135 q 13 114 13 86 l 13 86 q 13 63 20 45 q 27 26 40 13 l 40 13 q 54 -1 73 -9 q 91 -18 119 -22 q 146 -26 187 -26 l 187 -26 l 301 -26 l 300 0 l 190 0 q 139 0 108 6 q 77 11 59 30 l 59 30 q 50 40 45 54 q 40 68 40 86 l 40 86 q 40 128 68 150 l 68 150 q 85 163 113 169 q 140 175 186 175 l 186 175 l 304 175 z m 460 -558 l 460 -558 q 498 -558 527 -546 q 555 -534 574 -515 l 574 -515 q 610 -482 622 -435 q 633 -388 633 -321 l 633 -321 l 633 0 l 285 0 l 285 -329 q 285 -369 291 -403 q 296 -438 309 -465 q 321 -493 344 -515 l 344 -515 q 364 -534 393 -546 q 422 -558 460 -558 z m 460 -532 l 460 -532 q 428 -532 402 -522 q 375 -512 358 -494 l 358 -494 q 329 -464 320 -419 q 311 -374 311 -312 l 311 -312 l 311 -26 l 607 -26 l 607 -313 q 607 -373 598 -419 q 589 -466 559 -494 l 559 -494 q 542 -512 518 -522 q 493 -532 460 -532 z"},"൨":{"ha":673,"x_min":43,"x_max":656,"o":"m 261 -558 l 261 -558 q 312 -558 351 -537 q 390 -517 418 -481 q 445 -445 459 -395 q 473 -346 473 -288 l 473 -288 q 473 -210 455 -155 q 436 -101 411 -66 q 385 -32 363 -13 l 363 -13 l 367 -26 l 656 -26 l 656 0 l 350 0 l 339 -21 q 362 -43 387 -77 q 411 -112 429 -163 q 446 -215 446 -287 l 446 -287 q 446 -357 426 -412 q 405 -468 364 -500 q 322 -532 259 -532 l 259 -532 q 196 -532 154 -498 q 112 -465 91 -409 q 70 -353 70 -287 l 70 -287 q 70 -220 85 -169 q 99 -119 126 -81 q 152 -44 184 -13 l 184 -13 l 166 6 q 138 -21 110 -59 q 81 -98 62 -153 q 43 -209 43 -286 l 43 -286 q 43 -344 58 -393 q 72 -443 101 -480 q 129 -517 170 -537 q 210 -558 261 -558 z"},"൩":{"ha":850,"x_min":43,"x_max":833,"o":"m 217 -558 l 217 -558 q 255 -558 283 -543 q 311 -528 329 -496 q 346 -465 353 -416 l 353 -416 l 347 -416 q 358 -488 393 -523 q 427 -558 485 -558 l 485 -558 q 540 -558 579 -524 q 617 -490 637 -431 q 657 -373 657 -299 l 657 -299 q 657 -224 642 -171 q 627 -118 604 -81 q 581 -45 558 -19 l 558 -19 l 563 0 l 542 0 l 530 -21 q 557 -55 580 -93 q 603 -131 617 -181 q 630 -231 630 -299 l 630 -299 q 630 -362 614 -415 q 598 -468 566 -500 q 534 -532 487 -532 l 487 -532 q 459 -532 441 -524 q 422 -517 408 -502 l 408 -502 q 383 -477 373 -435 q 363 -393 363 -328 l 363 -328 l 363 0 l 337 0 l 337 -328 q 337 -392 327 -434 q 317 -476 293 -502 l 293 -502 q 279 -517 261 -524 q 243 -532 217 -532 l 217 -532 q 169 -532 136 -500 q 103 -469 87 -415 q 70 -362 70 -299 l 70 -299 q 70 -230 85 -178 q 99 -126 125 -86 q 150 -46 181 -11 l 181 -11 l 162 6 q 131 -29 104 -69 q 77 -110 60 -165 q 43 -220 43 -298 l 43 -298 q 43 -375 65 -433 q 86 -492 126 -525 q 165 -558 217 -558 z m 555 0 l 555 -26 l 833 -26 l 833 0 l 555 0 z"},"൪":{"ha":599,"x_min":43,"x_max":594,"o":"m 278 -558 l 278 -558 q 336 -558 380 -532 q 423 -507 456 -465 l 456 -465 q 493 -415 512 -349 q 530 -284 530 -214 l 530 -214 q 530 -132 510 -82 q 490 -32 456 -10 q 422 12 380 12 l 380 12 q 331 12 300 -12 q 268 -36 253 -77 q 238 -119 238 -168 l 238 -168 q 238 -227 259 -276 q 280 -325 324 -370 q 368 -416 437 -463 l 437 -463 q 489 -498 518 -521 q 546 -545 557 -567 q 567 -589 567 -620 l 567 -620 q 567 -645 560 -664 q 552 -684 539 -704 l 539 -704 l 562 -716 q 575 -697 585 -672 q 594 -648 594 -620 l 594 -620 q 594 -586 582 -559 q 569 -533 538 -506 q 507 -479 450 -442 l 450 -442 q 386 -399 345 -356 q 304 -314 285 -268 q 265 -222 265 -168 l 265 -168 q 265 -97 294 -55 q 322 -14 381 -14 l 381 -14 q 416 -14 444 -33 q 471 -52 487 -95 q 503 -139 503 -214 l 503 -214 q 503 -277 487 -339 q 471 -402 437 -449 l 437 -449 q 408 -487 369 -509 q 330 -532 277 -532 l 277 -532 q 212 -532 166 -500 q 119 -469 95 -413 q 70 -358 70 -287 l 70 -287 q 70 -220 85 -169 q 99 -119 126 -81 q 152 -44 184 -13 l 184 -13 l 166 6 q 138 -21 110 -59 q 81 -98 62 -153 q 43 -209 43 -286 l 43 -286 q 43 -342 58 -391 q 73 -441 103 -478 q 132 -516 176 -537 q 220 -558 278 -558 z"},"൫":{"ha":746,"x_min":49,"x_max":697,"o":"m 385 -723 l 385 -723 q 466 -723 525 -689 q 583 -656 622 -597 q 660 -538 679 -462 q 697 -386 697 -301 l 697 -301 q 697 -213 683 -137 q 669 -62 640 12 l 640 12 l 616 1 q 635 -46 647 -94 q 659 -143 665 -194 q 670 -246 670 -301 l 670 -301 q 670 -381 654 -452 q 637 -524 603 -579 q 568 -634 514 -665 q 460 -697 385 -697 l 385 -697 q 298 -697 228 -650 q 158 -603 117 -505 q 76 -408 76 -255 l 76 -255 q 76 -167 92 -92 q 107 -17 139 38 q 170 92 218 122 q 266 152 329 152 l 329 152 q 421 152 468 101 q 515 49 515 -52 l 515 -52 q 515 -111 496 -153 q 477 -195 441 -218 q 405 -241 355 -241 l 355 -241 l 349 -241 l 349 -267 l 358 -267 q 399 -267 427 -275 q 454 -283 472 -300 l 472 -300 q 487 -315 496 -337 q 504 -359 504 -390 l 504 -390 q 504 -452 472 -484 q 440 -517 387 -517 l 387 -517 q 337 -517 302 -488 q 266 -459 247 -407 q 228 -355 228 -283 l 228 -283 q 228 -209 249 -142 q 269 -76 307 -4 l 307 -4 l 283 7 q 244 -69 223 -136 q 201 -203 201 -285 l 201 -285 q 201 -361 223 -419 q 245 -477 287 -510 q 329 -543 387 -543 l 387 -543 q 430 -543 463 -524 q 495 -505 513 -471 q 531 -438 531 -391 l 531 -391 q 531 -354 518 -323 q 505 -293 477 -273 q 448 -254 399 -249 l 399 -249 l 400 -256 q 465 -245 504 -191 q 542 -138 542 -52 l 542 -52 q 542 24 517 76 q 491 127 443 153 q 394 178 328 178 l 328 178 q 243 178 180 127 q 117 76 83 -21 q 49 -118 49 -255 l 49 -255 q 49 -375 75 -463 q 101 -552 147 -609 q 193 -667 254 -695 q 315 -723 385 -723 z"},"൬":{"ha":935,"x_min":43,"x_max":886,"o":"m 467 -558 l 467 -558 q 522 -558 558 -523 q 593 -488 600 -410 l 600 -410 l 608 -315 l 608 0 l 582 0 l 582 -328 q 582 -396 574 -436 q 565 -476 543 -501 l 543 -501 q 530 -515 511 -523 q 492 -532 466 -532 l 466 -532 q 442 -532 423 -523 q 403 -515 390 -501 l 390 -501 q 368 -476 359 -435 q 350 -395 350 -329 l 350 -329 l 350 0 l 324 0 l 324 -330 q 324 -394 315 -435 q 306 -476 282 -502 l 282 -502 q 269 -517 251 -524 q 233 -532 210 -532 l 210 -532 q 164 -532 133 -500 q 102 -468 86 -415 q 70 -362 70 -299 l 70 -299 q 70 -229 85 -177 q 99 -126 125 -86 q 150 -46 181 -11 l 181 -11 l 162 6 q 131 -29 104 -69 q 77 -110 60 -165 q 43 -221 43 -299 l 43 -299 q 43 -376 64 -434 q 84 -492 122 -525 q 159 -558 210 -558 l 210 -558 q 264 -558 298 -523 q 331 -488 340 -416 l 340 -416 l 333 -409 q 341 -486 375 -522 q 409 -558 467 -558 z m 724 -558 l 724 -558 q 802 -558 844 -474 q 886 -390 886 -224 l 886 -224 q 886 -90 861 6 q 835 101 775 151 q 715 201 614 201 l 614 201 q 594 201 573 199 q 551 197 532 193 l 532 193 l 535 167 q 555 171 577 173 q 598 175 614 175 l 614 175 q 687 175 735 147 q 782 119 810 67 q 837 14 848 -59 q 859 -133 859 -224 l 859 -224 q 859 -323 844 -391 q 829 -460 799 -496 q 769 -532 724 -532 l 724 -532 q 699 -532 681 -523 q 663 -515 649 -499 l 649 -499 q 626 -473 617 -433 q 608 -394 608 -331 l 608 -331 l 608 -10 l 591 -10 l 591 -322 l 592 -416 q 602 -488 636 -523 q 670 -558 724 -558 z"},"൭":{"ha":573,"x_min":43,"x_max":525,"o":"m 288 -558 l 288 -558 q 348 -558 392 -533 q 436 -509 466 -462 q 496 -416 511 -350 q 525 -284 525 -202 l 525 -202 q 525 -120 511 -47 q 497 26 465 82 q 433 138 379 170 q 325 201 244 201 l 244 201 q 222 201 198 200 q 174 198 151 193 l 151 193 l 154 167 q 176 171 199 173 q 221 175 244 175 l 244 175 q 320 175 369 145 q 418 115 447 63 q 475 10 487 -58 q 498 -126 498 -202 l 498 -202 q 498 -360 446 -446 q 393 -532 288 -532 l 288 -532 q 222 -532 173 -495 q 123 -459 96 -392 q 69 -325 69 -233 l 69 -233 l 69 -222 q 69 -146 83 -100 q 96 -54 121 -34 q 146 -14 181 -14 l 181 -14 q 205 -14 225 -26 q 245 -38 257 -68 q 269 -98 269 -150 l 269 -150 q 269 -208 247 -242 q 224 -276 176 -276 l 176 -276 q 139 -276 109 -257 q 79 -238 56 -209 l 56 -209 l 48 -233 q 80 -271 112 -286 q 144 -302 177 -302 l 177 -302 q 210 -302 237 -286 q 264 -270 280 -236 q 296 -203 296 -150 l 296 -150 q 296 -91 281 -55 q 265 -20 239 -4 q 213 12 181 12 l 181 12 q 142 12 111 -9 q 79 -30 61 -82 q 43 -134 43 -227 l 43 -227 q 43 -332 75 -406 q 106 -480 161 -519 q 216 -558 288 -558 z"},"൮":{"ha":744,"x_min":43,"x_max":675,"o":"m 261 -558 l 261 -558 q 312 -558 351 -537 q 390 -517 418 -481 q 445 -445 459 -395 q 473 -346 473 -288 l 473 -288 q 473 -210 455 -155 q 436 -101 411 -66 q 385 -32 363 -13 l 363 -13 l 367 -26 l 649 -26 l 649 -546 l 675 -546 l 675 -64 l 656 0 l 350 0 l 339 -21 q 362 -43 387 -77 q 411 -112 429 -163 q 446 -215 446 -287 l 446 -287 q 446 -357 426 -412 q 405 -468 364 -500 q 322 -532 259 -532 l 259 -532 q 196 -532 154 -498 q 112 -465 91 -409 q 70 -353 70 -287 l 70 -287 q 70 -220 85 -169 q 99 -119 126 -81 q 152 -44 184 -13 l 184 -13 l 166 6 q 138 -21 110 -59 q 81 -98 62 -153 q 43 -209 43 -286 l 43 -286 q 43 -344 58 -393 q 72 -443 101 -480 q 129 -517 170 -537 q 210 -558 261 -558 z m 429 201 l 429 201 q 405 201 381 199 q 357 197 336 192 l 336 192 l 340 166 q 358 170 382 173 q 405 175 429 175 l 429 175 q 496 175 538 159 q 580 143 604 116 q 627 89 637 55 q 647 20 649 -16 l 649 -16 l 675 -90 l 675 -39 q 675 7 667 44 q 659 81 642 109 q 624 137 597 157 l 597 157 q 566 179 525 190 q 484 201 429 201 z"},"൯":{"ha":847,"x_min":43,"x_max":841,"o":"m 217 -558 l 217 -558 q 257 -558 286 -541 q 314 -525 331 -492 q 348 -459 354 -408 l 354 -408 l 363 -280 l 363 0 l 337 0 l 337 -328 q 337 -392 327 -434 q 317 -476 293 -502 l 293 -502 q 279 -517 261 -524 q 243 -532 217 -532 l 217 -532 q 169 -532 136 -500 q 103 -469 87 -415 q 70 -362 70 -299 l 70 -299 q 70 -230 85 -178 q 99 -126 125 -86 q 150 -46 181 -11 l 181 -11 l 162 6 q 131 -29 104 -69 q 77 -110 60 -165 q 43 -220 43 -298 l 43 -298 q 43 -375 65 -433 q 86 -492 126 -525 q 165 -558 217 -558 z m 518 -558 l 518 -558 q 579 -558 625 -532 q 670 -506 702 -464 l 702 -464 q 740 -414 759 -349 q 777 -284 777 -214 l 777 -214 q 777 -132 757 -82 q 737 -32 703 -10 q 669 12 628 12 l 628 12 q 578 12 547 -12 q 515 -36 501 -77 q 486 -119 486 -168 l 486 -168 q 486 -227 507 -276 q 527 -325 571 -370 q 615 -416 684 -463 l 684 -463 q 736 -498 765 -521 q 793 -545 804 -567 q 814 -589 814 -620 l 814 -620 q 814 -645 807 -664 q 799 -684 786 -704 l 786 -704 l 809 -716 q 822 -697 832 -672 q 841 -648 841 -620 l 841 -620 q 841 -586 829 -559 q 817 -533 786 -506 q 754 -479 697 -442 l 697 -442 q 633 -399 592 -356 q 551 -314 532 -268 q 513 -222 513 -168 l 513 -168 q 513 -97 541 -55 q 569 -14 628 -14 l 628 -14 q 663 -14 691 -33 q 718 -52 734 -95 q 750 -139 750 -214 l 750 -214 q 750 -279 734 -340 q 718 -402 683 -448 l 683 -448 q 655 -486 614 -509 q 573 -532 518 -532 l 518 -532 q 484 -532 459 -524 q 434 -516 415 -498 l 415 -498 q 399 -483 387 -460 q 375 -438 369 -404 q 363 -371 363 -322 l 363 -322 l 363 -179 l 346 -179 l 346 -280 l 343 -384 q 350 -447 373 -485 q 396 -524 433 -541 q 470 -558 518 -558 z"},"൰":{"ha":849,"x_min":-26,"x_max":806,"o":"m 215 -546 l 241 -546 l 241 -115 l 240 -84 q 240 -9 232 49 q 224 106 189 145 l 189 145 q 166 171 130 186 q 94 201 42 201 l 42 201 q 27 201 10 200 q -8 198 -26 194 l -26 194 l -24 168 q -10 171 7 173 q 23 175 42 175 l 42 175 q 89 175 120 162 q 150 149 170 127 l 170 127 q 197 95 206 48 q 215 1 215 -78 l 215 -78 l 215 -546 z m 632 12 l 632 12 q 575 12 541 -23 q 507 -58 496 -130 l 496 -130 l 504 -137 q 496 -61 460 -24 q 424 12 363 12 l 363 12 q 324 12 296 -4 q 267 -20 250 -52 q 233 -85 226 -137 l 226 -137 l 225 -227 l 225 -524 l 241 -524 l 241 -218 q 241 -150 250 -110 q 259 -70 282 -46 l 282 -46 q 296 -31 316 -22 q 336 -14 364 -14 l 364 -14 q 391 -14 411 -22 q 431 -31 444 -46 l 444 -46 q 468 -71 477 -111 q 486 -151 486 -217 l 486 -217 l 486 -546 l 512 -546 l 512 -218 q 512 -154 522 -112 q 532 -70 556 -44 l 556 -44 q 570 -30 589 -22 q 607 -14 633 -14 l 633 -14 q 682 -14 715 -46 q 747 -78 763 -131 q 779 -185 779 -247 l 779 -247 q 779 -316 765 -368 q 750 -420 725 -460 q 700 -500 668 -535 l 668 -535 l 687 -552 q 718 -517 746 -477 q 773 -437 790 -381 q 806 -326 806 -247 l 806 -247 q 806 -173 786 -114 q 765 -56 726 -22 q 687 12 632 12 z"},"൱":{"ha":696,"x_min":43,"x_max":647,"o":"m 217 -558 l 217 -558 q 257 -558 286 -541 q 314 -525 331 -492 q 348 -459 354 -408 l 354 -408 l 363 -280 l 363 0 l 337 0 l 337 -328 q 337 -392 327 -434 q 317 -476 293 -502 l 293 -502 q 279 -517 261 -524 q 243 -532 217 -532 l 217 -532 q 169 -532 136 -500 q 103 -469 87 -415 q 70 -362 70 -299 l 70 -299 q 70 -230 85 -178 q 99 -126 125 -86 q 150 -46 181 -11 l 181 -11 l 162 6 q 131 -29 104 -69 q 77 -110 60 -165 q 43 -220 43 -298 l 43 -298 q 43 -375 65 -433 q 86 -492 126 -525 q 165 -558 217 -558 z m 482 -558 l 482 -558 q 536 -558 573 -520 q 609 -483 628 -409 q 647 -335 647 -224 l 647 -224 q 647 -90 621 6 q 595 101 536 151 q 476 201 375 201 l 375 201 q 355 201 334 199 q 312 197 292 193 l 292 193 l 295 167 q 316 171 338 173 q 359 175 374 175 l 374 175 q 447 175 495 147 q 542 119 570 67 q 597 14 609 -59 q 620 -133 620 -224 l 620 -224 q 620 -323 605 -391 q 589 -460 559 -496 q 529 -532 482 -532 l 482 -532 q 457 -532 438 -524 q 419 -516 405 -499 l 405 -499 q 382 -474 373 -434 q 363 -394 363 -331 l 363 -331 l 363 -10 l 346 -10 l 346 -322 l 347 -416 q 357 -489 392 -523 q 426 -558 482 -558 z"},"൲":{"ha":1049,"x_min":43,"x_max":1027,"o":"m 917 -546 l 917 -546 q 952 -546 977 -529 q 1001 -512 1014 -483 q 1027 -455 1027 -419 l 1027 -419 q 1027 -386 1018 -358 q 1008 -331 989 -314 l 989 -314 q 974 -301 956 -292 q 937 -284 915 -280 q 892 -277 864 -277 l 864 -277 l 720 -277 l 720 -303 l 862 -303 q 906 -303 930 -310 q 954 -317 970 -332 l 970 -332 q 985 -346 993 -368 q 1000 -390 1000 -418 l 1000 -418 q 1000 -463 979 -491 q 958 -520 918 -520 l 918 -520 q 875 -520 852 -491 q 828 -462 828 -409 l 828 -409 q 828 -374 839 -344 q 849 -314 865 -287 l 865 -287 l 838 -283 q 822 -310 812 -342 q 801 -375 801 -413 l 801 -413 q 801 -455 817 -484 q 832 -514 859 -530 q 885 -546 917 -546 z m 217 -558 l 217 -558 q 257 -558 286 -541 q 314 -525 332 -492 q 349 -459 354 -408 l 354 -408 l 363 -280 l 363 0 l 337 0 l 337 -328 q 337 -392 327 -434 q 317 -476 293 -502 l 293 -502 q 279 -517 261 -524 q 243 -532 217 -532 l 217 -532 q 169 -532 136 -500 q 103 -469 87 -415 q 70 -362 70 -299 l 70 -299 q 70 -230 85 -178 q 99 -126 125 -86 q 150 -46 181 -11 l 181 -11 l 162 6 q 131 -29 104 -69 q 77 -110 60 -165 q 43 -220 43 -298 l 43 -298 q 43 -375 65 -433 q 86 -492 126 -525 q 165 -558 217 -558 z m 512 -558 l 512 -558 q 561 -558 602 -536 q 643 -514 672 -472 q 701 -430 718 -369 q 734 -309 734 -233 l 734 -233 q 734 -137 716 -83 q 697 -30 664 -9 q 631 12 588 12 l 588 12 q 544 12 516 -8 q 488 -29 475 -62 q 461 -95 461 -131 l 461 -131 q 461 -170 474 -200 q 487 -230 511 -251 l 511 -251 q 531 -270 559 -281 q 586 -293 622 -298 q 658 -303 701 -303 l 701 -303 l 866 -303 l 866 -277 l 700 -277 q 644 -277 602 -268 q 560 -260 532 -236 l 532 -236 q 511 -219 500 -193 q 488 -167 488 -134 l 488 -134 q 488 -79 514 -46 q 539 -14 588 -14 l 588 -14 q 628 -14 655 -34 q 681 -55 694 -102 q 707 -150 707 -231 l 707 -231 q 707 -246 707 -259 q 707 -273 705 -286 l 705 -286 l 705 -293 q 698 -368 672 -421 q 646 -474 605 -503 q 564 -532 511 -532 l 511 -532 q 483 -532 459 -524 q 435 -516 416 -499 l 416 -499 q 399 -483 387 -460 q 375 -437 369 -404 q 363 -372 363 -326 l 363 -326 l 363 -197 l 346 -199 l 343 -371 q 346 -441 370 -481 q 394 -522 432 -540 q 469 -558 512 -558 z"},"൳":{"ha":620,"x_min":42,"x_max":598,"o":"m 180 12 l 180 12 q 142 12 111 -9 q 79 -30 61 -79 q 42 -128 42 -214 l 42 -214 q 42 -292 63 -348 q 84 -404 126 -440 l 126 -440 q 156 -465 192 -480 q 228 -496 280 -503 q 331 -510 405 -510 l 405 -510 l 598 -510 l 598 -484 l 410 -484 q 340 -484 291 -478 q 242 -472 206 -458 q 170 -445 142 -421 l 142 -421 q 109 -391 91 -348 q 73 -305 68 -242 l 68 -242 l 68 -231 q 68 -227 68 -222 q 68 -218 68 -213 l 68 -213 q 68 -142 82 -98 q 95 -54 120 -34 q 145 -14 180 -14 l 180 -14 q 204 -14 225 -26 q 245 -38 257 -68 q 269 -98 269 -150 l 269 -150 q 269 -207 246 -241 q 223 -276 176 -276 l 176 -276 q 138 -276 108 -257 q 78 -238 55 -209 l 55 -209 l 47 -233 q 80 -271 112 -286 q 143 -302 176 -302 l 176 -302 q 209 -302 236 -286 q 263 -270 280 -236 q 296 -203 296 -150 l 296 -150 q 296 -91 280 -55 q 264 -19 238 -3 q 212 12 180 12 z"},"൴":{"ha":709,"x_min":43,"x_max":666,"o":"m 400 -792 l 426 -792 l 426 -188 q 426 -154 429 -125 q 431 -97 439 -75 q 446 -53 461 -38 l 461 -38 q 472 -27 489 -20 q 506 -14 528 -14 l 528 -14 q 565 -14 590 -36 q 615 -58 627 -101 q 639 -145 639 -207 l 639 -207 q 639 -265 625 -318 q 611 -371 583 -414 q 555 -458 513 -488 q 471 -518 417 -528 l 417 -528 l 405 -529 q 394 -531 383 -531 q 372 -532 360 -532 l 360 -532 q 284 -532 230 -507 q 175 -482 140 -439 q 104 -397 87 -343 q 69 -289 69 -230 l 69 -230 l 69 -220 q 69 -145 83 -100 q 96 -55 121 -34 q 146 -14 181 -14 l 181 -14 q 205 -14 225 -26 q 245 -38 257 -68 q 269 -98 269 -150 l 269 -150 q 269 -208 247 -242 q 224 -276 176 -276 l 176 -276 q 139 -276 109 -257 q 79 -238 56 -209 l 56 -209 l 48 -233 q 80 -271 112 -286 q 144 -302 177 -302 l 177 -302 q 210 -302 237 -286 q 264 -270 280 -236 q 296 -203 296 -150 l 296 -150 q 296 -91 281 -55 q 265 -20 239 -4 q 213 12 181 12 l 181 12 q 142 12 111 -9 q 79 -30 61 -81 q 43 -132 43 -222 l 43 -222 q 43 -289 63 -349 q 82 -410 121 -457 q 160 -504 220 -531 q 279 -558 359 -558 l 359 -558 q 372 -558 384 -557 q 395 -557 407 -555 l 407 -555 l 418 -554 q 476 -544 522 -513 q 568 -482 600 -436 q 632 -390 649 -331 q 666 -273 666 -207 l 666 -207 q 666 -135 650 -86 q 633 -38 602 -13 q 571 12 528 12 l 528 12 q 499 12 478 3 q 457 -7 441 -22 l 441 -22 q 425 -39 416 -61 q 407 -83 404 -113 q 400 -143 400 -183 l 400 -183 l 400 -792 z"},"൵":{"ha":925,"x_min":45,"x_max":920,"o":"m 270 -558 l 270 -558 q 343 -558 384 -517 q 425 -477 433 -400 l 433 -400 l 434 -355 l 442 -266 l 442 0 l 416 0 l 416 -321 q 416 -393 404 -435 q 391 -477 362 -502 l 362 -502 q 345 -517 323 -524 q 301 -532 270 -532 l 270 -532 q 210 -532 165 -494 q 120 -457 96 -390 q 71 -324 71 -236 l 71 -236 l 71 -223 q 71 -147 85 -101 q 98 -55 123 -34 q 148 -14 183 -14 l 183 -14 q 207 -14 227 -26 q 247 -38 259 -68 q 271 -98 271 -150 l 271 -150 q 271 -208 249 -242 q 226 -276 178 -276 l 178 -276 q 141 -276 111 -257 q 81 -238 58 -209 l 58 -209 l 50 -233 q 82 -271 114 -286 q 146 -302 179 -302 l 179 -302 q 212 -302 239 -286 q 266 -270 282 -236 q 298 -203 298 -150 l 298 -150 q 298 -91 283 -55 q 267 -20 241 -4 q 215 12 183 12 l 183 12 q 144 12 113 -9 q 81 -31 63 -82 q 45 -134 45 -225 l 45 -225 q 45 -330 74 -404 q 102 -479 153 -518 q 204 -558 270 -558 z m 597 -558 l 597 -558 q 658 -558 704 -532 q 749 -506 781 -464 l 781 -464 q 818 -414 837 -349 q 856 -284 856 -214 l 856 -214 q 856 -132 836 -82 q 816 -32 782 -10 q 748 12 706 12 l 706 12 q 657 12 626 -12 q 594 -36 579 -77 q 564 -119 564 -168 l 564 -168 q 564 -227 585 -276 q 606 -325 650 -370 q 694 -416 763 -463 l 763 -463 q 815 -498 844 -521 q 872 -545 883 -567 q 893 -589 893 -620 l 893 -620 q 893 -645 885 -664 q 877 -684 865 -704 l 865 -704 l 888 -716 q 901 -697 911 -672 q 920 -648 920 -620 l 920 -620 q 920 -586 908 -559 q 895 -533 864 -506 q 833 -479 776 -442 l 776 -442 q 712 -399 671 -356 q 630 -314 611 -268 q 591 -222 591 -168 l 591 -168 q 591 -97 620 -55 q 648 -14 707 -14 l 707 -14 q 742 -14 769 -33 q 796 -52 813 -95 q 829 -139 829 -214 l 829 -214 q 829 -279 813 -340 q 796 -402 762 -448 l 762 -448 q 734 -486 693 -509 q 651 -532 597 -532 l 597 -532 q 563 -532 538 -524 q 512 -516 494 -498 l 494 -498 q 477 -483 466 -460 q 454 -438 448 -404 q 442 -371 442 -322 l 442 -322 l 442 -179 l 425 -179 l 425 -280 l 422 -384 q 429 -447 452 -485 q 475 -524 512 -541 q 549 -558 597 -558 z"},"൶":{"ha":1042,"x_min":35,"x_max":984,"o":"m 172 -327 l 172 -327 q 212 -327 243 -308 q 274 -290 291 -254 q 308 -218 308 -167 l 308 -167 q 308 -120 292 -79 q 275 -39 246 -10 l 246 -10 l 251 -26 l 571 -26 l 571 0 l 239 0 l 226 -20 q 253 -51 267 -88 q 281 -125 281 -166 l 281 -166 q 281 -234 251 -267 q 221 -301 172 -301 l 172 -301 q 137 -301 113 -284 q 88 -267 75 -237 q 62 -208 62 -168 l 62 -168 q 62 -116 81 -78 q 100 -40 128 -10 l 128 -10 l 109 8 q 77 -28 56 -69 q 35 -111 35 -169 l 35 -169 q 35 -216 53 -251 q 70 -287 101 -307 q 131 -327 172 -327 z m 771 -558 l 771 -558 q 819 -558 855 -543 q 891 -529 916 -504 l 916 -504 q 940 -479 955 -445 q 970 -411 977 -368 q 984 -326 984 -271 l 984 -271 l 984 0 l 550 0 l 550 -268 q 550 -322 557 -365 q 563 -408 578 -441 q 592 -475 615 -499 l 615 -499 q 641 -527 681 -542 q 720 -558 771 -558 z m 734 -527 l 734 -527 q 703 -527 679 -516 q 654 -505 634 -483 l 634 -483 q 607 -451 592 -400 q 576 -349 576 -261 l 576 -261 l 576 -26 l 587 -26 q 652 -87 706 -151 q 759 -215 791 -280 q 823 -345 823 -407 l 823 -407 q 823 -438 815 -465 q 807 -493 788 -510 q 768 -527 734 -527 z m 850 -408 l 850 -408 q 850 -341 818 -274 q 786 -208 732 -142 q 677 -77 607 -10 l 607 -10 l 611 -24 q 637 -26 675 -26 q 713 -26 746 -26 l 746 -26 l 958 -26 l 958 -264 q 958 -349 940 -409 q 922 -469 882 -502 q 841 -535 773 -535 l 773 -535 l 771 -538 q 816 -525 833 -489 q 850 -454 850 -408 z"},"൷":{"ha":1319,"x_min":35,"x_max":1298,"o":"m 172 -327 l 172 -327 q 212 -327 243 -308 q 274 -290 291 -254 q 308 -218 308 -167 l 308 -167 q 308 -120 292 -79 q 275 -39 246 -10 l 246 -10 l 251 -26 l 549 -26 l 555 0 l 239 0 l 226 -20 q 253 -51 267 -88 q 281 -125 281 -166 l 281 -166 q 281 -234 251 -267 q 221 -301 172 -301 l 172 -301 q 137 -301 113 -284 q 88 -267 75 -237 q 62 -208 62 -168 l 62 -168 q 62 -116 81 -78 q 100 -40 128 -10 l 128 -10 l 109 8 q 77 -28 56 -69 q 35 -111 35 -169 l 35 -169 q 35 -216 53 -251 q 70 -287 101 -307 q 131 -327 172 -327 z m 620 -558 l 620 -558 q 659 -558 688 -541 q 716 -525 734 -492 q 751 -459 756 -408 l 756 -408 l 765 -320 l 765 -230 l 739 -230 l 739 -328 q 739 -392 729 -434 q 719 -476 695 -502 l 695 -502 q 681 -517 663 -524 q 645 -532 619 -532 l 619 -532 q 571 -532 538 -500 q 505 -469 489 -416 q 472 -364 472 -301 l 472 -301 q 472 -204 501 -138 q 530 -73 574 -22 l 574 -22 l 562 0 l 541 0 l 544 -21 q 517 -54 495 -93 q 472 -132 459 -182 q 445 -233 445 -300 l 445 -300 q 445 -376 467 -434 q 488 -492 528 -525 q 567 -558 620 -558 z m 914 -558 l 914 -558 q 964 -558 1005 -536 q 1045 -514 1075 -472 q 1104 -430 1120 -369 q 1136 -309 1136 -233 l 1136 -233 q 1136 -137 1118 -83 q 1099 -30 1066 -9 q 1033 12 990 12 l 990 12 q 946 12 918 -8 q 890 -29 877 -62 q 864 -95 864 -131 l 864 -131 q 864 -170 877 -200 q 889 -230 913 -251 l 913 -251 q 933 -270 961 -281 q 989 -293 1025 -298 q 1060 -303 1103 -303 l 1103 -303 l 1123 -303 l 1123 -277 l 1102 -277 q 1046 -277 1004 -268 q 962 -260 934 -236 l 934 -236 q 913 -219 902 -193 q 891 -167 891 -134 l 891 -134 q 891 -79 916 -46 q 941 -14 990 -14 l 990 -14 q 1030 -14 1057 -34 q 1083 -55 1096 -102 q 1109 -150 1109 -231 l 1109 -231 q 1109 -246 1109 -259 q 1109 -273 1107 -286 l 1107 -286 l 1107 -293 q 1100 -368 1074 -421 q 1048 -474 1007 -503 q 966 -532 913 -532 l 913 -532 q 885 -532 861 -524 q 837 -516 818 -499 l 818 -499 q 801 -483 789 -460 q 777 -437 771 -404 q 765 -372 765 -326 l 765 -326 l 765 -249 l 748 -249 l 745 -371 q 749 -441 773 -481 q 797 -522 834 -540 q 871 -558 914 -558 z m 1264 -454 l 1290 -459 q 1294 -447 1296 -431 q 1298 -416 1298 -402 l 1298 -402 q 1298 -372 1290 -349 q 1282 -327 1267 -313 l 1267 -313 q 1246 -293 1217 -285 q 1187 -277 1144 -277 l 1144 -277 l 1124 -277 l 1124 -303 l 1139 -303 q 1181 -303 1207 -308 q 1232 -314 1248 -330 l 1248 -330 q 1260 -341 1266 -359 q 1271 -377 1271 -402 l 1271 -402 q 1271 -413 1270 -428 q 1268 -443 1264 -454 l 1264 -454 z"},"൸":{"ha":1727,"x_min":10,"x_max":1668,"o":"m 1126 -558 l 1126 -558 q 1162 -558 1187 -544 q 1212 -530 1227 -507 q 1242 -485 1249 -458 q 1255 -432 1256 -406 l 1256 -406 l 1248 -374 q 1256 -434 1283 -474 q 1310 -515 1354 -536 q 1397 -558 1456 -558 l 1456 -558 q 1503 -558 1540 -543 q 1576 -529 1601 -504 l 1601 -504 q 1625 -479 1640 -445 q 1655 -411 1662 -368 q 1668 -326 1668 -271 l 1668 -271 l 1668 0 l 1271 0 l 1271 -26 q 1336 -87 1390 -151 q 1444 -215 1476 -280 q 1508 -345 1508 -407 l 1508 -407 q 1508 -438 1500 -465 q 1491 -493 1472 -510 q 1453 -527 1418 -527 l 1418 -527 q 1388 -527 1364 -516 q 1339 -505 1320 -483 l 1320 -483 q 1290 -449 1277 -398 q 1263 -347 1263 -270 l 1263 -270 l 1263 -230 l 1237 -230 l 1237 -335 q 1237 -395 1231 -435 q 1224 -475 1202 -500 l 1202 -500 q 1189 -516 1170 -524 q 1151 -532 1126 -532 l 1126 -532 q 1101 -532 1082 -524 q 1063 -516 1050 -500 l 1050 -500 q 1028 -476 1022 -435 q 1015 -395 1015 -335 l 1015 -335 l 1015 -204 q 1015 -163 1012 -130 q 1009 -98 1000 -72 q 991 -47 973 -28 l 973 -28 q 957 -11 933 1 q 908 12 878 12 l 878 12 q 846 12 822 1 q 798 -11 781 -30 l 781 -30 q 765 -49 756 -74 q 747 -99 744 -131 q 741 -163 741 -204 l 741 -204 l 741 -335 q 741 -395 735 -435 q 729 -476 707 -500 l 707 -500 q 694 -516 675 -524 q 656 -532 631 -532 l 631 -532 q 606 -532 587 -524 q 567 -516 555 -500 l 555 -500 q 533 -476 527 -435 q 520 -395 520 -335 l 520 -335 l 520 -207 q 520 -136 511 -96 q 501 -57 476 -29 l 476 -29 q 459 -11 435 1 q 410 12 378 12 l 378 12 q 322 12 288 -23 q 254 -58 247 -136 l 247 -136 l 254 -130 q 247 -84 230 -52 q 212 -20 183 -4 q 153 12 111 12 l 111 12 q 88 12 61 7 q 34 1 10 -12 l 10 -12 l 21 -35 q 41 -25 64 -19 q 86 -14 111 -14 l 111 -14 q 142 -14 161 -22 q 180 -30 194 -44 l 194 -44 q 218 -70 228 -111 q 238 -153 238 -218 l 238 -218 l 238 -546 l 264 -546 l 264 -212 q 264 -150 273 -107 q 282 -65 306 -41 l 306 -41 q 318 -28 336 -21 q 354 -14 378 -14 l 378 -14 q 404 -14 424 -22 q 443 -31 456 -46 l 456 -46 q 478 -71 486 -110 q 494 -150 494 -220 l 494 -220 l 494 -342 q 494 -384 497 -416 q 500 -449 509 -474 q 518 -499 536 -518 l 536 -518 q 552 -536 577 -547 q 601 -558 631 -558 l 631 -558 q 663 -558 688 -546 q 712 -535 728 -516 l 728 -516 q 744 -497 753 -472 q 762 -447 765 -415 q 767 -384 767 -342 l 767 -342 l 767 -211 q 767 -151 774 -111 q 780 -71 802 -46 l 802 -46 q 815 -31 834 -22 q 853 -14 878 -14 l 878 -14 q 903 -14 922 -22 q 941 -31 954 -46 l 954 -46 q 976 -71 983 -111 q 989 -152 989 -211 l 989 -211 l 989 -342 q 989 -384 992 -416 q 995 -449 1004 -474 q 1013 -499 1031 -518 l 1031 -518 q 1047 -536 1072 -547 q 1096 -558 1126 -558 z m 1535 -408 l 1535 -408 q 1535 -341 1503 -274 q 1471 -208 1416 -142 q 1361 -77 1292 -10 l 1292 -10 l 1296 -24 q 1321 -26 1360 -26 q 1398 -26 1430 -26 l 1430 -26 l 1642 -26 l 1642 -264 q 1642 -349 1625 -409 q 1607 -469 1567 -502 q 1526 -535 1457 -535 l 1457 -535 l 1456 -538 q 1501 -525 1518 -489 q 1535 -454 1535 -408 z"},"൹":{"ha":888,"x_min":43,"x_max":866,"o":"m 217 -558 l 217 -558 q 257 -558 286 -541 q 314 -525 332 -492 q 349 -459 354 -408 l 354 -408 l 363 -280 l 363 0 l 337 0 l 337 -328 q 337 -392 327 -434 q 317 -476 293 -502 l 293 -502 q 279 -517 261 -524 q 243 -532 217 -532 l 217 -532 q 169 -532 136 -500 q 103 -469 87 -415 q 70 -362 70 -299 l 70 -299 q 70 -230 85 -178 q 99 -126 125 -86 q 150 -46 181 -11 l 181 -11 l 162 6 q 131 -29 104 -69 q 77 -110 60 -165 q 43 -220 43 -298 l 43 -298 q 43 -375 65 -433 q 86 -492 126 -525 q 165 -558 217 -558 z m 512 -558 l 512 -558 q 561 -558 602 -536 q 643 -514 672 -472 q 701 -430 718 -369 q 734 -309 734 -233 l 734 -233 q 734 -137 716 -83 q 697 -30 664 -9 q 631 12 588 12 l 588 12 q 544 12 516 -8 q 488 -29 475 -62 q 461 -95 461 -131 l 461 -131 q 461 -170 474 -200 q 487 -230 511 -251 l 511 -251 q 531 -270 559 -281 q 586 -293 622 -298 q 658 -303 701 -303 l 701 -303 l 866 -303 l 866 -277 l 700 -277 q 644 -277 602 -268 q 560 -260 532 -236 l 532 -236 q 511 -219 500 -193 q 488 -167 488 -134 l 488 -134 q 488 -79 514 -46 q 539 -14 588 -14 l 588 -14 q 628 -14 655 -34 q 681 -55 694 -102 q 707 -150 707 -231 l 707 -231 q 707 -246 707 -259 q 707 -273 705 -286 l 705 -286 l 705 -293 q 698 -368 672 -421 q 646 -474 605 -503 q 564 -532 511 -532 l 511 -532 q 483 -532 459 -524 q 435 -516 416 -499 l 416 -499 q 399 -483 387 -460 q 375 -437 369 -404 q 363 -372 363 -326 l 363 -326 l 363 -197 l 346 -199 l 343 -371 q 346 -441 370 -481 q 394 -522 432 -540 q 469 -558 512 -558 z"},"ൺ":{"ha":1161,"x_min":45,"x_max":1118,"o":"m 270 -558 l 270 -558 q 343 -558 382 -519 q 421 -481 432 -408 l 432 -408 l 424 -409 q 433 -484 469 -521 q 504 -558 565 -558 l 565 -558 q 624 -558 661 -523 q 697 -488 704 -410 l 704 -410 l 707 -386 l 713 -328 l 713 0 l 687 0 l 687 -328 q 687 -396 678 -436 q 669 -476 645 -500 l 645 -500 q 632 -515 612 -523 q 592 -532 564 -532 l 564 -532 q 537 -532 517 -523 q 497 -515 484 -500 l 484 -500 q 460 -476 451 -435 q 442 -395 442 -329 l 442 -329 l 442 0 l 416 0 l 416 -321 q 416 -393 404 -435 q 391 -477 362 -502 l 362 -502 q 345 -517 323 -524 q 301 -532 270 -532 l 270 -532 q 210 -532 165 -494 q 120 -457 96 -390 q 71 -324 71 -236 l 71 -236 l 71 -223 q 71 -147 85 -101 q 98 -55 123 -34 q 148 -14 183 -14 l 183 -14 q 207 -14 227 -26 q 247 -38 259 -68 q 271 -98 271 -150 l 271 -150 q 271 -208 249 -242 q 226 -276 178 -276 l 178 -276 q 141 -276 111 -257 q 81 -238 58 -209 l 58 -209 l 50 -233 q 82 -271 114 -286 q 146 -302 179 -302 l 179 -302 q 212 -302 239 -286 q 266 -270 282 -236 q 298 -203 298 -150 l 298 -150 q 298 -91 283 -55 q 267 -20 241 -4 q 215 12 183 12 l 183 12 q 144 12 113 -9 q 81 -31 63 -82 q 45 -134 45 -225 l 45 -225 q 45 -330 74 -404 q 102 -479 153 -518 q 204 -558 270 -558 z m 982 12 l 982 12 q 943 12 912 -8 q 880 -28 862 -75 q 843 -122 843 -200 l 843 -200 q 843 -270 861 -326 q 878 -382 907 -428 q 935 -475 965 -516 l 965 -516 l 972 -523 q 1002 -564 1021 -601 q 1040 -638 1040 -677 l 1040 -677 q 1040 -715 1021 -740 q 1001 -766 954 -766 l 954 -766 q 934 -766 917 -762 q 899 -759 883 -754 l 883 -754 l 876 -779 q 895 -785 915 -788 q 934 -792 954 -792 l 954 -792 q 996 -792 1021 -775 q 1045 -758 1056 -731 q 1067 -705 1067 -677 l 1067 -677 q 1067 -633 1046 -593 q 1025 -554 993 -510 l 993 -510 l 987 -502 q 956 -460 929 -415 q 902 -370 886 -317 q 870 -265 870 -201 l 870 -201 q 870 -126 886 -85 q 901 -45 927 -29 q 952 -14 982 -14 l 982 -14 q 1032 -14 1062 -58 q 1092 -103 1092 -206 l 1092 -206 q 1092 -269 1078 -327 q 1064 -385 1038 -431 q 1011 -478 970 -504 l 970 -504 q 948 -519 923 -525 q 898 -532 865 -532 l 865 -532 q 832 -532 809 -524 q 785 -516 768 -501 l 768 -501 q 747 -484 735 -458 q 723 -433 718 -399 q 713 -365 713 -322 l 713 -322 l 713 -68 l 694 -68 l 696 -239 l 693 -386 q 699 -446 722 -484 q 745 -522 782 -540 q 818 -558 865 -558 l 865 -558 q 901 -558 930 -550 q 958 -542 982 -526 l 982 -526 q 984 -525 987 -523 q 989 -522 991 -520 l 991 -520 q 1034 -490 1062 -440 q 1090 -391 1104 -331 q 1118 -271 1118 -206 l 1118 -206 q 1118 -92 1080 -40 q 1042 12 982 12 z"},"ൻ":{"ha":811,"x_min":43,"x_max":769,"o":"m 217 -558 l 217 -558 q 257 -558 286 -541 q 314 -525 331 -492 q 348 -459 354 -408 l 354 -408 l 363 -301 l 363 0 l 337 0 l 337 -328 q 337 -392 327 -434 q 317 -476 293 -502 l 293 -502 q 279 -517 261 -524 q 243 -532 217 -532 l 217 -532 q 169 -532 136 -500 q 103 -469 87 -415 q 70 -362 70 -299 l 70 -299 q 70 -230 85 -178 q 99 -126 125 -86 q 150 -46 181 -11 l 181 -11 l 162 6 q 131 -29 104 -69 q 77 -110 60 -165 q 43 -220 43 -298 l 43 -298 q 43 -375 65 -433 q 86 -492 126 -525 q 165 -558 217 -558 z m 633 12 l 633 12 q 593 12 562 -8 q 530 -28 512 -75 q 493 -122 493 -200 l 493 -200 q 493 -270 511 -326 q 529 -382 557 -428 q 585 -475 616 -516 l 616 -516 l 622 -523 q 653 -564 672 -601 q 691 -638 691 -677 l 691 -677 q 691 -715 672 -740 q 652 -766 604 -766 l 604 -766 q 585 -766 568 -762 q 550 -759 534 -754 l 534 -754 l 527 -779 q 545 -785 565 -788 q 585 -792 604 -792 l 604 -792 q 646 -792 671 -775 q 695 -758 707 -731 q 718 -705 718 -677 l 718 -677 q 718 -633 697 -593 q 676 -554 644 -510 l 644 -510 l 638 -502 q 606 -460 580 -415 q 553 -370 537 -317 q 520 -265 520 -201 l 520 -201 q 520 -126 536 -85 q 551 -45 577 -29 q 603 -14 633 -14 l 633 -14 q 682 -14 712 -58 q 742 -103 742 -206 l 742 -206 q 742 -269 729 -327 q 715 -385 688 -431 q 661 -478 621 -504 l 621 -504 q 599 -519 574 -525 q 548 -532 516 -532 l 516 -532 q 482 -532 459 -524 q 436 -516 418 -501 l 418 -501 q 397 -484 385 -458 q 373 -433 368 -399 q 363 -365 363 -322 l 363 -322 l 363 -68 l 344 -68 l 347 -239 l 344 -386 q 349 -446 372 -484 q 395 -522 432 -540 q 469 -558 515 -558 l 515 -558 q 551 -558 580 -550 q 608 -542 632 -526 l 632 -526 q 634 -525 637 -523 q 639 -522 641 -520 l 641 -520 q 684 -490 713 -440 q 741 -391 755 -331 q 769 -271 769 -206 l 769 -206 q 769 -92 731 -40 q 693 12 633 12 z"},"ർ":{"ha":562,"x_min":42,"x_max":520,"o":"m 384 12 l 384 12 q 344 12 313 -8 q 281 -28 263 -75 q 244 -122 244 -200 l 244 -200 q 244 -270 262 -326 q 280 -382 309 -428 q 337 -475 367 -516 l 367 -516 l 373 -523 q 404 -565 423 -601 q 441 -638 441 -677 l 441 -677 q 441 -715 422 -740 q 403 -766 355 -766 l 355 -766 q 336 -766 319 -762 q 301 -759 285 -754 l 285 -754 l 278 -779 q 296 -785 316 -788 q 336 -792 355 -792 l 355 -792 q 397 -792 422 -775 q 446 -758 457 -731 q 468 -705 468 -677 l 468 -677 q 468 -633 448 -593 q 427 -553 394 -510 l 394 -510 l 389 -502 q 357 -461 331 -415 q 304 -370 288 -317 q 271 -265 271 -201 l 271 -201 q 271 -126 287 -85 q 303 -45 329 -29 q 354 -14 384 -14 l 384 -14 q 433 -14 463 -58 q 493 -103 493 -206 l 493 -206 q 493 -253 486 -297 q 478 -342 463 -382 q 447 -422 425 -453 q 402 -484 372 -504 l 372 -504 q 350 -519 325 -525 q 300 -532 271 -532 l 271 -532 q 206 -532 161 -499 q 116 -467 93 -411 q 69 -356 69 -287 l 69 -287 q 69 -220 84 -169 q 99 -119 125 -81 q 151 -44 184 -13 l 184 -13 l 166 6 q 137 -21 109 -59 q 80 -98 61 -153 q 42 -209 42 -286 l 42 -286 q 42 -345 58 -394 q 73 -444 103 -480 q 133 -517 176 -537 q 218 -558 272 -558 l 272 -558 q 304 -558 332 -550 q 359 -542 383 -526 l 383 -526 q 385 -525 388 -523 q 390 -522 392 -520 l 392 -520 q 435 -490 464 -440 q 492 -391 506 -331 q 520 -271 520 -206 l 520 -206 q 520 -92 482 -40 q 444 12 384 12 z"},"ൽ":{"ha":897,"x_min":43,"x_max":855,"o":"m 555 -558 l 555 -558 q 586 -558 613 -553 q 640 -549 665 -540 q 690 -531 712 -518 l 712 -518 l 720 -512 q 788 -468 822 -389 q 855 -311 855 -206 l 855 -206 q 855 -92 817 -40 q 779 12 719 12 l 719 12 q 679 12 648 -8 q 616 -28 598 -75 q 579 -122 579 -200 l 579 -200 q 579 -267 596 -321 q 613 -376 640 -421 q 666 -467 695 -507 l 695 -507 l 702 -514 q 734 -556 755 -597 q 776 -638 776 -677 l 776 -677 q 776 -715 757 -740 q 738 -766 690 -766 l 690 -766 q 671 -766 654 -762 q 636 -759 620 -754 l 620 -754 l 613 -779 q 631 -785 651 -788 q 671 -792 690 -792 l 690 -792 q 732 -792 757 -775 q 781 -758 792 -731 q 803 -705 803 -677 l 803 -677 q 803 -633 782 -591 q 760 -550 725 -504 l 725 -504 l 718 -494 q 689 -455 664 -411 q 638 -368 622 -316 q 606 -265 606 -201 l 606 -201 q 606 -126 622 -85 q 638 -45 664 -29 q 689 -14 719 -14 l 719 -14 q 768 -14 798 -58 q 828 -103 828 -206 l 828 -206 q 828 -273 814 -328 q 800 -383 773 -424 q 746 -466 706 -492 l 706 -492 l 696 -498 q 667 -515 632 -523 q 596 -532 555 -532 l 555 -532 q 512 -532 475 -522 q 437 -513 406 -494 l 406 -494 l 397 -487 q 340 -447 309 -374 q 277 -302 277 -204 l 277 -204 q 277 -132 291 -90 q 305 -49 330 -31 q 355 -14 388 -14 l 388 -14 q 421 -14 446 -32 q 471 -50 485 -92 q 499 -134 499 -205 l 499 -205 q 499 -253 487 -307 q 474 -361 449 -409 q 423 -458 383 -490 l 383 -490 l 376 -496 q 353 -515 326 -523 q 298 -532 266 -532 l 266 -532 q 199 -532 156 -498 q 112 -465 91 -409 q 70 -353 70 -287 l 70 -287 q 70 -220 85 -169 q 99 -119 126 -81 q 152 -43 184 -12 l 184 -12 l 166 7 q 138 -21 110 -59 q 81 -98 62 -153 q 43 -209 43 -286 l 43 -286 q 43 -344 58 -393 q 72 -443 101 -480 q 130 -517 172 -537 q 213 -558 267 -558 l 267 -558 q 305 -558 337 -546 q 368 -534 396 -511 l 396 -511 l 406 -504 q 464 -453 495 -372 q 526 -292 526 -205 l 526 -205 q 526 -125 508 -77 q 490 -30 459 -9 q 427 12 388 12 l 388 12 q 349 12 318 -8 q 286 -29 268 -76 q 250 -124 250 -204 l 250 -204 q 250 -271 265 -327 q 279 -384 308 -428 q 336 -473 377 -503 l 377 -503 l 386 -509 q 421 -533 464 -545 q 506 -558 555 -558 z"},"ൾ":{"ha":793,"x_min":44,"x_max":750,"o":"m 586 -792 l 586 -792 q 628 -792 653 -775 q 677 -758 688 -731 q 699 -705 699 -677 l 699 -677 q 699 -633 679 -593 q 658 -553 625 -510 l 625 -510 l 619 -502 q 588 -461 561 -415 q 534 -370 518 -317 q 502 -265 502 -201 l 502 -201 q 502 -126 518 -85 q 533 -45 559 -29 q 585 -14 615 -14 l 615 -14 q 664 -14 694 -58 q 724 -103 724 -206 l 724 -206 q 724 -253 716 -298 q 708 -343 693 -382 q 677 -422 655 -453 q 632 -485 602 -505 l 602 -505 q 580 -519 557 -525 q 533 -532 507 -532 l 507 -532 q 474 -532 450 -523 q 425 -514 407 -498 l 407 -498 q 380 -472 367 -432 q 354 -392 354 -317 l 354 -317 l 354 -218 q 354 -174 351 -139 q 347 -104 338 -77 q 328 -50 310 -29 l 310 -29 q 294 -10 270 1 q 246 12 213 12 l 213 12 q 160 12 122 -20 q 84 -52 64 -110 q 44 -169 44 -248 l 44 -248 q 44 -326 61 -381 q 78 -436 106 -477 q 133 -519 163 -553 l 163 -553 l 182 -535 q 151 -500 126 -460 q 100 -420 86 -368 q 71 -317 71 -247 l 71 -247 q 71 -178 87 -125 q 103 -73 134 -43 q 165 -14 212 -14 l 212 -14 q 240 -14 259 -22 q 277 -31 290 -47 l 290 -47 q 313 -73 321 -115 q 328 -158 328 -229 l 328 -229 l 328 -324 q 328 -396 343 -441 q 357 -486 390 -516 l 390 -516 q 412 -536 442 -547 q 471 -558 508 -558 l 508 -558 q 537 -558 563 -550 q 589 -542 614 -526 l 614 -526 l 623 -521 q 666 -490 695 -441 q 723 -392 737 -331 q 750 -271 750 -206 l 750 -206 q 750 -92 712 -40 q 674 12 614 12 l 614 12 q 575 12 543 -8 q 511 -28 493 -75 q 475 -122 475 -200 l 475 -200 q 475 -270 493 -326 q 511 -382 539 -428 q 567 -475 597 -516 l 597 -516 l 604 -523 q 634 -565 653 -601 q 672 -638 672 -677 l 672 -677 q 672 -715 653 -740 q 633 -766 586 -766 l 586 -766 q 566 -766 549 -762 q 532 -759 515 -754 l 515 -754 l 508 -779 q 527 -785 547 -788 q 566 -792 586 -792 z"},"ൿ":{"ha":901,"x_min":35,"x_max":866,"o":"m 405 -558 l 405 -558 q 461 -558 497 -526 q 533 -494 550 -431 q 567 -369 567 -276 l 567 -276 q 567 -168 547 -105 q 526 -42 489 -15 q 452 12 404 12 l 404 12 q 366 12 339 -2 q 311 -17 292 -43 l 292 -43 q 264 -82 253 -142 q 241 -202 241 -274 l 241 -274 q 241 -417 283 -487 q 325 -558 405 -558 z m 405 -532 l 405 -532 q 337 -532 302 -470 q 267 -409 267 -274 l 267 -274 q 267 -178 284 -121 q 300 -64 331 -39 q 361 -14 403 -14 l 403 -14 q 447 -14 478 -38 q 508 -63 525 -121 q 541 -179 541 -276 l 541 -276 q 541 -369 526 -425 q 510 -481 480 -506 q 449 -532 405 -532 z m 172 12 l 172 12 q 112 12 74 -26 q 35 -64 35 -141 l 35 -141 q 35 -176 47 -202 q 58 -229 78 -247 l 78 -247 q 101 -268 130 -280 q 159 -292 196 -297 q 233 -302 278 -302 l 278 -302 l 659 -302 q 714 -302 751 -291 q 788 -281 815 -258 l 815 -258 q 838 -237 852 -206 q 866 -175 866 -135 l 866 -135 q 866 -62 835 -25 q 803 12 747 12 l 747 12 q 694 12 661 -28 q 627 -69 627 -144 l 627 -144 q 627 -175 635 -210 q 642 -245 657 -286 l 657 -286 q 658 -288 659 -291 q 660 -294 661 -296 l 661 -296 q 672 -326 686 -360 q 700 -395 718 -437 l 718 -437 q 745 -499 760 -541 q 774 -583 780 -613 q 785 -644 785 -672 l 785 -672 q 785 -713 766 -739 q 746 -766 699 -766 l 699 -766 q 679 -766 662 -762 q 645 -759 628 -754 l 628 -754 l 621 -779 q 640 -785 660 -788 q 679 -792 699 -792 l 699 -792 q 740 -792 765 -775 q 789 -758 801 -730 q 812 -703 812 -673 l 812 -673 q 812 -651 809 -627 q 806 -603 798 -574 q 790 -546 777 -510 q 763 -475 742 -427 l 742 -427 q 725 -388 711 -355 q 697 -322 688 -296 l 688 -296 q 687 -293 686 -289 q 685 -286 684 -284 l 684 -284 q 668 -242 661 -208 q 654 -175 654 -144 l 654 -144 q 654 -98 666 -69 q 678 -41 700 -27 q 722 -14 750 -14 l 750 -14 q 794 -14 817 -44 q 839 -74 839 -135 l 839 -135 q 839 -169 828 -196 q 816 -223 796 -240 l 796 -240 q 775 -258 743 -267 q 711 -276 658 -276 l 658 -276 l 277 -276 q 213 -276 169 -266 q 125 -256 96 -228 l 96 -228 q 81 -213 72 -191 q 62 -170 62 -140 l 62 -140 q 62 -91 78 -63 q 94 -36 120 -25 q 146 -14 174 -14 l 174 -14 q 207 -14 236 -24 q 265 -35 301 -65 l 301 -65 l 317 -44 q 293 -25 272 -12 q 250 0 227 6 q 203 12 172 12 z"},"!":{"ha":205,"x_min":76,"x_max":128,"o":"m 114 -174 l 90 -174 l 88 -714 l 116 -714 l 114 -174 z m 101 8 l 101 8 q 86 8 81 -1 q 76 -10 76 -23 l 76 -23 q 76 -35 81 -44 q 86 -54 101 -54 l 101 -54 q 119 -54 124 -44 q 128 -35 128 -23 l 128 -23 q 128 -10 124 -1 q 119 8 101 8 z"},"\"":{"ha":327,"x_min":81,"x_max":247,"o":"m 105 -542 l 84 -542 l 81 -800 l 109 -800 l 105 -542 z m 243 -542 l 222 -542 l 219 -800 l 247 -800 l 243 -542 z"},"#":{"ha":544,"x_min":27,"x_max":517,"o":"m 125 0 l 98 0 l 141 -226 l 27 -226 l 27 -252 l 146 -252 l 185 -462 l 71 -462 l 71 -488 l 190 -488 l 233 -714 l 260 -714 l 217 -488 l 377 -488 l 420 -714 l 447 -714 l 404 -488 l 517 -488 l 517 -462 l 399 -462 l 360 -252 l 473 -252 l 473 -226 l 355 -226 l 312 0 l 285 0 l 328 -226 l 168 -226 l 125 0 z m 212 -462 l 173 -252 l 333 -252 l 372 -462 l 212 -462 z"},"%":{"ha":651,"x_min":53,"x_max":597,"o":"m 200 0 l 172 0 l 451 -714 l 479 -714 l 200 0 z m 163 -276 l 163 -276 q 110 -276 82 -332 q 53 -388 53 -502 l 53 -502 q 53 -615 82 -669 q 110 -724 163 -724 l 163 -724 q 219 -724 246 -669 q 273 -614 273 -501 l 273 -501 q 273 -387 245 -331 q 216 -276 163 -276 z m 163 -303 l 163 -303 q 205 -303 226 -351 q 246 -400 246 -501 l 246 -501 q 246 -601 226 -650 q 206 -699 163 -699 l 163 -699 q 123 -699 102 -650 q 80 -602 80 -501 l 80 -501 q 80 -400 102 -351 q 123 -303 163 -303 z m 487 9 l 487 9 q 434 9 406 -47 q 377 -103 377 -216 l 377 -216 q 377 -330 406 -384 q 434 -439 487 -439 l 487 -439 q 543 -439 570 -384 q 597 -329 597 -216 l 597 -216 q 597 -101 569 -46 q 540 9 487 9 z m 487 -18 l 487 -18 q 529 -18 550 -66 q 570 -115 570 -216 l 570 -216 q 570 -316 550 -364 q 530 -413 487 -413 l 487 -413 q 447 -413 426 -365 q 404 -317 404 -216 l 404 -216 q 404 -115 426 -66 q 447 -18 487 -18 z"},"'":{"ha":190,"x_min":81,"x_max":109,"o":"m 105 -542 l 84 -542 l 81 -800 l 109 -800 l 105 -542 z"},"(":{"ha":274,"x_min":60,"x_max":245,"o":"m 60 -276 l 60 -276 q 60 -382 78 -476 q 96 -570 130 -651 q 164 -733 212 -800 l 212 -800 l 245 -800 q 192 -728 157 -644 q 121 -561 104 -468 q 87 -376 87 -277 l 87 -277 q 87 -178 104 -86 q 121 6 157 89 q 192 172 245 244 l 245 244 l 212 244 q 164 177 130 97 q 96 16 78 -77 q 60 -171 60 -276 z"},")":{"ha":274,"x_min":29,"x_max":214,"o":"m 214 -280 l 214 -280 q 214 -175 196 -80 q 178 14 144 95 q 110 176 62 244 l 62 244 l 29 244 q 83 172 118 89 q 153 5 170 -87 q 187 -180 187 -279 l 187 -279 q 187 -379 170 -470 q 153 -562 118 -645 q 83 -728 29 -800 l 29 -800 l 62 -800 q 110 -733 144 -652 q 178 -572 196 -479 q 214 -386 214 -280 z"},"*":{"ha":500,"x_min":45,"x_max":454,"o":"m 236 -800 l 264 -800 l 261 -604 l 446 -668 l 454 -641 l 267 -585 l 384 -430 l 361 -413 l 250 -574 l 140 -414 l 117 -430 l 233 -585 l 45 -641 l 54 -668 l 239 -604 l 236 -800 z"},"+":{"ha":451,"x_min":39,"x_max":411,"o":"m 239 -127 l 213 -127 l 213 -340 l 39 -340 l 39 -366 l 213 -366 l 213 -579 l 239 -579 l 239 -366 l 411 -366 l 411 -340 l 239 -340 l 239 -127 z"},",":{"ha":206,"x_min":38,"x_max":126,"o":"m 95 -116 l 120 -116 l 126 -107 q 121 -66 111 -25 q 101 16 88 55 q 75 94 60 129 l 60 129 l 38 129 q 52 94 64 51 q 75 8 84 -36 q 92 -80 95 -116 l 95 -116 z"},"-":{"ha":309,"x_min":39,"x_max":270,"o":"m 270 -256 l 39 -256 l 39 -282 l 270 -282 l 270 -256 z"},".":{"ha":206,"x_min":77,"x_max":129,"o":"m 102 8 l 102 8 q 87 8 82 -1 q 77 -10 77 -23 l 77 -23 q 77 -35 82 -44 q 87 -54 102 -54 l 102 -54 q 120 -54 125 -44 q 129 -35 129 -23 l 129 -23 q 129 -10 125 -1 q 120 8 102 8 z"},"/":{"ha":341,"x_min":25,"x_max":316,"o":"m 52 244 l 25 244 l 289 -800 l 316 -800 l 52 244 z"},":":{"ha":206,"x_min":77,"x_max":129,"o":"m 102 8 l 102 8 q 87 8 82 -1 q 77 -10 77 -23 l 77 -23 q 77 -35 82 -44 q 87 -54 102 -54 l 102 -54 q 120 -54 125 -44 q 129 -35 129 -23 l 129 -23 q 129 -10 125 -1 q 120 8 102 8 z m 102 -480 l 102 -480 q 87 -480 82 -489 q 77 -498 77 -511 l 77 -511 q 77 -523 82 -532 q 87 -542 102 -542 l 102 -542 q 120 -542 125 -532 q 129 -523 129 -511 l 129 -511 q 129 -498 125 -489 q 120 -480 102 -480 z"},";":{"ha":206,"x_min":38,"x_max":129,"o":"m 95 -116 l 120 -116 l 126 -107 q 121 -66 111 -25 q 101 16 88 55 q 75 94 60 129 l 60 129 l 38 129 q 53 94 65 51 q 76 7 84 -36 q 92 -80 95 -116 l 95 -116 z m 102 -480 l 102 -480 q 87 -480 82 -489 q 77 -498 77 -511 l 77 -511 q 77 -523 82 -532 q 87 -542 102 -542 l 102 -542 q 120 -542 125 -532 q 129 -523 129 -511 l 129 -511 q 129 -498 125 -489 q 120 -480 102 -480 z"},"<":{"ha":451,"x_min":39,"x_max":411,"o":"m 411 -173 l 411 -144 l 39 -350 l 39 -374 l 411 -562 l 411 -533 l 69 -362 l 411 -173 z"},"=":{"ha":451,"x_min":40,"x_max":410,"o":"m 410 -236 l 40 -236 l 40 -262 l 410 -262 l 410 -236 z m 410 -443 l 40 -443 l 40 -469 l 410 -469 l 410 -443 z"},">":{"ha":451,"x_min":39,"x_max":411,"o":"m 411 -350 l 39 -144 l 39 -173 l 382 -361 l 39 -533 l 39 -562 l 411 -373 l 411 -350 z"},"?":{"ha":333,"x_min":34,"x_max":294,"o":"m 150 -724 l 150 -724 q 214 -724 254 -683 q 294 -643 294 -562 l 294 -562 q 294 -517 282 -483 q 270 -449 250 -420 q 229 -392 202 -362 l 202 -362 q 177 -332 164 -306 q 150 -280 146 -252 q 142 -224 142 -188 l 142 -188 l 142 -171 l 116 -171 l 116 -189 q 116 -233 121 -263 q 126 -294 141 -320 q 155 -347 181 -377 l 181 -377 q 206 -405 226 -431 q 245 -458 256 -489 q 267 -520 267 -562 l 267 -562 q 267 -630 235 -664 q 203 -698 149 -698 l 149 -698 q 121 -698 95 -690 q 68 -683 45 -670 l 45 -670 l 34 -694 q 58 -706 87 -715 q 116 -724 150 -724 z m 129 8 l 129 8 q 114 8 109 -1 q 104 -10 104 -23 l 104 -23 q 104 -35 109 -44 q 114 -54 129 -54 l 129 -54 q 147 -54 152 -44 q 156 -35 156 -23 l 156 -23 q 156 -10 152 -1 q 147 8 129 8 z"},"[":{"ha":308,"x_min":86,"x_max":267,"o":"m 267 244 l 86 244 l 86 -799 l 267 -799 l 267 -773 l 112 -773 l 112 218 l 267 218 l 267 244 z"},"\\":{"ha":341,"x_min":25,"x_max":316,"o":"m 316 245 l 289 245 l 25 -800 l 52 -800 l 316 245 z"},"]":{"ha":309,"x_min":42,"x_max":223,"o":"m 223 244 l 42 244 l 42 218 l 197 218 l 197 -774 l 42 -774 l 42 -800 l 223 -800 l 223 244 z"},"^":{"ha":451,"x_min":27,"x_max":422,"o":"m 56 -344 l 27 -344 l 213 -719 l 237 -719 l 422 -344 l 393 -344 l 225 -688 l 56 -344 z"},"_":{"ha":383,"x_min":-2,"x_max":385,"o":"m 385 115 l -2 115 l -2 90 l 385 90 l 385 115 z"},"{":{"ha":344,"x_min":30,"x_max":305,"o":"m 305 218 l 305 244 q 247 244 211 231 q 174 218 158 189 q 141 160 141 111 l 141 111 l 141 -151 q 141 -215 116 -240 q 91 -265 30 -265 l 30 -265 l 30 -291 q 91 -291 116 -317 q 141 -344 141 -408 l 141 -408 l 141 -664 q 141 -708 160 -738 q 178 -768 215 -784 q 251 -800 305 -800 l 305 -800 l 305 -774 q 233 -774 200 -746 q 167 -719 167 -658 l 167 -658 l 167 -404 q 167 -353 150 -320 q 133 -287 89 -279 l 89 -279 l 89 -277 q 132 -267 150 -239 q 167 -211 167 -155 l 167 -155 l 167 105 q 167 148 180 173 q 192 198 222 208 q 252 218 305 218 l 305 218 z"},"|":{"ha":512,"x_min":243,"x_max":269,"o":"m 269 244 l 243 244 l 243 -800 l 269 -800 l 269 244 z"},"}":{"ha":344,"x_min":39,"x_max":314,"o":"m 39 -774 l 39 -800 q 98 -800 134 -787 q 170 -774 187 -745 q 203 -716 203 -667 l 203 -667 l 203 -404 q 203 -340 228 -315 q 253 -290 314 -290 l 314 -290 l 314 -264 q 253 -264 228 -238 q 203 -212 203 -147 l 203 -147 l 203 108 q 203 151 185 182 q 166 212 130 228 q 93 244 39 244 l 39 244 l 39 218 q 111 218 144 191 q 177 163 177 102 l 177 102 l 177 -151 q 177 -202 195 -235 q 212 -268 255 -276 l 255 -276 l 255 -278 q 212 -288 195 -316 q 177 -344 177 -400 l 177 -400 l 177 -661 q 177 -705 165 -729 q 152 -754 122 -764 q 92 -774 39 -774 l 39 -774 z"},"~":{"ha":451,"x_min":38,"x_max":413,"o":"m 222 -342 l 222 -342 q 198 -356 180 -363 q 161 -370 138 -370 l 138 -370 q 111 -370 88 -357 q 64 -344 38 -317 l 38 -317 l 38 -350 q 58 -369 83 -382 q 107 -396 138 -396 l 138 -396 q 164 -396 187 -387 q 209 -379 232 -366 l 232 -366 q 258 -351 277 -344 q 295 -337 320 -337 l 320 -337 q 345 -337 367 -349 q 389 -361 413 -387 l 413 -387 l 413 -355 q 396 -336 372 -323 q 348 -311 320 -311 l 320 -311 q 293 -311 271 -319 q 248 -327 222 -342 z"}," ":{"ha":247,"x_min":0,"x_max":0,"o":""},"­":{"ha":309,"x_min":39,"x_max":270,"o":"m 270 -256 l 39 -256 l 39 -282 l 270 -282 l 270 -256 z"},"–":{"ha":500,"x_min":40,"x_max":460,"o":"m 460 -257 l 40 -257 l 40 -283 l 460 -283 l 460 -257 z"},"—":{"ha":1000,"x_min":40,"x_max":960,"o":"m 960 -257 l 40 -257 l 40 -283 l 960 -283 l 960 -257 z"},"‘":{"ha":180,"x_min":46,"x_max":134,"o":"m 77 -555 l 52 -555 l 46 -564 q 52 -605 62 -646 q 71 -687 84 -726 q 97 -766 112 -800 l 112 -800 l 134 -800 q 120 -765 108 -721 q 96 -678 89 -634 q 81 -591 77 -555 l 77 -555 z"},"’":{"ha":180,"x_min":46,"x_max":134,"o":"m 103 -800 l 128 -800 l 134 -791 q 129 -750 119 -709 q 109 -668 96 -629 q 83 -590 68 -555 l 68 -555 l 46 -555 q 57 -581 66 -612 q 75 -644 83 -677 q 90 -710 95 -741 q 100 -773 103 -800 l 103 -800 z"},"“":{"ha":316,"x_min":46,"x_max":270,"o":"m 213 -555 l 188 -555 l 182 -564 q 188 -605 198 -646 q 207 -687 220 -726 q 233 -766 248 -800 l 248 -800 l 270 -800 q 256 -765 244 -721 q 232 -678 225 -634 q 217 -591 213 -555 l 213 -555 z m 77 -555 l 52 -555 l 46 -564 q 52 -605 62 -646 q 71 -687 84 -726 q 97 -766 112 -800 l 112 -800 l 134 -800 q 120 -765 108 -721 q 96 -678 89 -634 q 81 -591 77 -555 l 77 -555 z"},"”":{"ha":316,"x_min":46,"x_max":270,"o":"m 239 -800 l 264 -800 l 270 -791 q 265 -750 255 -709 q 245 -668 232 -629 q 219 -590 204 -555 l 204 -555 l 182 -555 q 197 -590 209 -633 q 220 -677 228 -720 q 236 -764 239 -800 l 239 -800 z m 103 -800 l 128 -800 l 134 -791 q 129 -750 119 -709 q 109 -668 96 -629 q 83 -590 68 -555 l 68 -555 l 46 -555 q 57 -581 66 -612 q 75 -644 83 -677 q 90 -710 95 -741 q 100 -773 103 -800 l 103 -800 z"},"…":{"ha":610,"x_min":77,"x_max":533,"o":"m 102 8 l 102 8 q 87 8 82 -1 q 77 -10 77 -23 l 77 -23 q 77 -35 82 -44 q 87 -54 102 -54 l 102 -54 q 120 -54 125 -44 q 129 -35 129 -23 l 129 -23 q 129 -10 125 -1 q 120 8 102 8 z m 303 8 l 303 8 q 288 8 283 -1 q 278 -10 278 -23 l 278 -23 q 278 -35 283 -44 q 288 -54 303 -54 l 303 -54 q 321 -54 326 -44 q 330 -35 330 -23 l 330 -23 q 330 -10 326 -1 q 321 8 303 8 z m 506 8 l 506 8 q 491 8 486 -1 q 481 -10 481 -23 l 481 -23 q 481 -35 486 -44 q 491 -54 506 -54 l 506 -54 q 524 -54 529 -44 q 533 -35 533 -23 l 533 -23 q 533 -10 529 -1 q 524 8 506 8 z"},"×":{"ha":451,"x_min":48,"x_max":402,"o":"m 225 -371 l 384 -530 l 402 -512 l 243 -353 l 402 -194 l 384 -176 l 225 -335 l 66 -176 l 48 -194 l 207 -353 l 48 -512 l 66 -530 l 225 -371 z"},"÷":{"ha":451,"x_min":40,"x_max":410,"o":"m 410 -340 l 40 -340 l 40 -366 l 410 -366 l 410 -340 z m 225 -141 l 225 -141 q 209 -141 205 -151 q 200 -161 200 -174 l 200 -174 q 200 -190 206 -200 q 211 -210 225 -210 l 225 -210 q 241 -210 246 -199 q 250 -189 250 -176 l 250 -176 q 250 -161 246 -151 q 241 -141 225 -141 z m 225 -496 l 225 -496 q 210 -496 205 -506 q 200 -516 200 -530 l 200 -530 q 200 -544 205 -554 q 210 -564 225 -564 l 225 -564 q 241 -564 246 -554 q 250 -544 250 -530 l 250 -530 q 250 -515 246 -505 q 241 -496 225 -496 z"},"−":{"ha":451,"x_min":40,"x_max":410,"o":"m 410 -341 l 40 -341 l 40 -367 l 410 -367 l 410 -341 z"},"₹":{"ha":451,"x_min":59,"x_max":401,"o":"m 294 0 l 263 0 l 64 -314 l 66 -337 l 82 -337 q 126 -337 155 -347 q 183 -358 202 -377 l 202 -377 q 223 -400 231 -434 q 239 -468 239 -512 l 239 -512 q 239 -552 232 -586 q 224 -620 202 -644 l 202 -644 q 186 -665 158 -677 q 130 -689 85 -689 l 85 -689 l 59 -689 l 59 -714 l 401 -714 l 401 -689 l 180 -689 q 220 -673 243 -633 q 265 -593 265 -513 l 265 -513 q 265 -448 247 -403 q 229 -359 190 -336 q 150 -314 86 -312 l 86 -312 l 90 -321 l 294 0 z m 401 -501 l 59 -501 l 59 -526 l 401 -526 l 401 -501 z"},"꠰":{"ha":176,"x_min":75,"x_max":101,"o":"m 75 0 l 75 -546 l 101 -546 l 101 0 l 75 0 z"},"꠱":{"ha":329,"x_min":75,"x_max":254,"o":"m 75 0 l 75 -546 l 101 -546 l 101 0 l 75 0 z m 228 0 l 228 -546 l 254 -546 l 254 0 l 228 0 z"},"꠲":{"ha":482,"x_min":75,"x_max":407,"o":"m 75 0 l 75 -546 l 101 -546 l 101 0 l 75 0 z m 228 0 l 228 -546 l 254 -546 l 254 0 l 228 0 z m 381 0 l 381 -546 l 407 -546 l 407 0 l 381 0 z"},"॑":{"ha":0,"x_min":-291,"x_max":-265,"o":"m -291 -653 l -291 -864 l -265 -864 l -265 -653 l -291 -653 z"},"॒":{"ha":0,"x_min":-447,"x_max":-110,"o":"m -110 132 l -110 157 l -447 157 l -447 132 l -110 132 z"},"।":{"ha":264,"x_min":159,"x_max":185,"o":"m 185 49 l 159 49 l 159 -595 l 185 -595 l 185 49 z"},"॥":{"ha":431,"x_min":159,"x_max":352,"o":"m 352 49 l 326 49 l 326 -595 l 352 -595 l 352 49 z m 185 49 l 159 49 l 159 -595 l 185 -595 l 185 49 z"},"᳚":{"ha":0,"x_min":-341,"x_max":-216,"o":"m -341 -653 l -341 -864 l -315 -864 l -315 -653 l -341 -653 z m -242 -653 l -242 -864 l -216 -864 l -216 -653 l -242 -653 z"},"̇":{"ha":0,"x_min":-304,"x_max":-252,"o":"m -304 -701 l -304 -701 q -304 -713 -299 -722 q -294 -732 -279 -732 l -279 -732 q -261 -732 -256 -722 q -252 -713 -252 -701 l -252 -701 q -252 -688 -256 -679 q -261 -670 -279 -670 l -279 -670 q -294 -670 -299 -679 q -304 -688 -304 -701 z"},"̣":{"ha":0,"x_min":-304,"x_max":-252,"o":"m -304 135 l -304 135 q -304 123 -299 114 q -294 104 -279 104 l -279 104 q -261 104 -256 114 q -252 123 -252 135 l -252 135 q -252 148 -256 157 q -261 166 -279 166 l -279 166 q -294 166 -299 157 q -304 148 -304 135 z"},"‐":{"ha":309,"x_min":39,"x_max":270,"o":"m 270 -256 l 39 -256 l 39 -282 l 270 -282 l 270 -256 z"},"​":{"ha":0,"x_min":0,"x_max":0,"o":""},"‌":{"ha":0,"x_min":0,"x_max":0,"o":""},"‍":{"ha":0,"x_min":-161,"x_max":161,"o":"m 29 244 l -29 244 l -29 -565 l -121 -474 l -161 -514 l -40 -631 l -161 -748 l -121 -788 l 0 -669 l 121 -788 l 161 -748 l 40 -631 l 161 -514 l 121 -474 l 29 -565 l 29 244 z"},"◌":{"ha":562,"x_min":57,"x_max":504,"o":"m 89 -231 l 89 -231 q 57 -231 57 -264 l 57 -264 q 57 -295 89 -295 l 89 -295 q 121 -295 121 -264 l 121 -264 q 121 -231 89 -231 z m 138 -95 l 138 -95 q 106 -95 106 -127 l 106 -127 q 106 -158 138 -158 l 138 -158 q 169 -158 169 -127 l 169 -127 q 169 -95 138 -95 z m 281 -40 l 281 -40 q 249 -40 249 -72 l 249 -72 q 249 -104 281 -104 l 281 -104 q 312 -104 312 -72 l 312 -72 q 312 -40 281 -40 z m 138 -369 l 138 -369 q 106 -369 106 -401 l 106 -401 q 106 -432 138 -432 l 138 -432 q 169 -432 169 -401 l 169 -401 q 169 -369 138 -369 z m 423 -95 l 423 -95 q 391 -95 391 -127 l 391 -127 q 391 -158 423 -158 l 423 -158 q 455 -158 455 -127 l 455 -127 q 455 -95 423 -95 z m 281 -424 l 281 -424 q 249 -424 249 -456 l 249 -456 q 249 -487 281 -487 l 281 -487 q 312 -487 312 -456 l 312 -456 q 312 -424 281 -424 z m 472 -231 l 472 -231 q 441 -231 441 -264 l 441 -264 q 441 -295 472 -295 l 472 -295 q 504 -295 504 -264 l 504 -264 q 504 -231 472 -231 z m 423 -369 l 423 -369 q 391 -369 391 -401 l 391 -401 q 391 -432 423 -432 l 423 -432 q 455 -432 455 -401 l 455 -401 q 455 -369 423 -369 z"},"«":{"ha":402,"x_min":36,"x_max":367,"o":"m 36 -271 l 36 -284 l 180 -463 l 197 -452 l 70 -278 l 198 -105 l 180 -95 l 36 -271 z m 206 -271 l 206 -284 l 350 -463 l 367 -452 l 239 -278 l 367 -105 l 350 -95 l 206 -271 z"},"»":{"ha":395,"x_min":36,"x_max":359,"o":"m 359 -285 l 359 -272 l 215 -95 l 198 -105 l 326 -279 l 198 -453 l 215 -463 l 359 -285 z m 198 -285 l 198 -272 l 53 -95 l 36 -105 l 164 -279 l 36 -453 l 53 -463 l 198 -285 z"},"̈":{"ha":0,"x_min":-102,"x_max":101,"o":"m -102 -667 l -102 -667 q -102 -680 -96 -690 q -90 -700 -78 -700 l -78 -700 q -65 -700 -59 -690 q -54 -681 -54 -667 l -54 -667 q -54 -654 -59 -645 q -65 -636 -78 -636 l -78 -636 q -90 -636 -96 -645 q -102 -654 -102 -667 z m 52 -668 l 52 -668 q 52 -681 59 -690 q 65 -700 76 -700 l 76 -700 q 89 -700 95 -691 q 101 -682 101 -668 l 101 -668 q 101 -654 95 -645 q 89 -636 76 -636 l 76 -636 q 65 -636 59 -645 q 52 -655 52 -668 z"},"̀":{"ha":0,"x_min":-414,"x_max":-262,"o":"m -414 -764 l -383 -764 q -366 -739 -346 -713 q -326 -687 -304 -662 q -282 -638 -262 -616 l -262 -616 l -262 -606 l -279 -606 q -295 -621 -313 -639 q -332 -658 -350 -678 q -368 -698 -385 -718 q -402 -738 -414 -757 l -414 -757 l -414 -764 z"},"́":{"ha":0,"x_min":-228,"x_max":-78,"o":"m -79 -764 l -79 -757 q -91 -739 -107 -719 q -124 -699 -142 -678 q -160 -658 -177 -639 q -195 -621 -212 -606 l -212 -606 l -228 -606 l -228 -616 q -205 -641 -184 -665 q -163 -690 -144 -714 q -125 -739 -109 -764 l -109 -764 l -79 -764 z"},"̋":{"ha":0,"x_min":-93,"x_max":164,"o":"m 164 -766 l 164 -759 q 156 -746 143 -726 q 130 -707 114 -684 q 97 -662 81 -642 q 64 -622 49 -606 l 49 -606 l 32 -606 l 32 -613 q 49 -634 69 -662 q 89 -691 107 -719 q 125 -748 135 -766 l 135 -766 l 164 -766 z m 39 -766 l 39 -759 q 31 -746 18 -726 q 5 -707 -11 -684 q -28 -662 -44 -642 q -61 -622 -76 -606 l -76 -606 l -93 -606 l -93 -613 q -75 -636 -55 -664 q -35 -692 -18 -720 q -1 -748 10 -766 l 10 -766 l 39 -766 z"},"̄":{"ha":0,"x_min":-116,"x_max":101,"o":"m -116 -640 l 102 -640 l 102 -616 l -116 -616 l -116 -640 z"},"˙":{"ha":131,"x_min":40,"x_max":91,"o":"m 66 -723 l 66 -723 q 81 -723 86 -713 q 91 -703 91 -691 l 91 -691 q 91 -676 85 -666 q 79 -657 65 -657 l 65 -657 q 51 -657 46 -667 q 40 -677 40 -690 l 40 -690 q 40 -702 46 -712 q 51 -723 66 -723 z"},"°":{"ha":379,"x_min":61,"x_max":317,"o":"m 189 -468 l 189 -468 q 154 -468 125 -483 q 96 -499 79 -528 q 61 -557 61 -596 l 61 -596 q 61 -636 79 -664 q 96 -693 125 -708 q 154 -723 189 -723 l 189 -723 q 224 -723 253 -707 q 282 -692 300 -664 q 317 -636 317 -596 l 317 -596 q 317 -557 301 -528 q 284 -499 255 -483 q 226 -468 189 -468 z m 188 -491 l 188 -491 q 233 -491 263 -520 q 292 -550 292 -596 l 292 -596 q 292 -643 263 -671 q 234 -700 188 -700 l 188 -700 q 142 -700 114 -671 q 86 -642 86 -596 l 86 -596 q 86 -549 116 -520 q 145 -491 188 -491 z"},"A":{"ha":437,"x_min":0,"x_max":437,"o":"m 437 0 l 410 0 l 332 -278 l 106 -278 l 27 0 l 0 0 l 204 -715 l 238 -715 l 437 0 z m 325 -303 l 243 -607 q 239 -622 236 -635 q 232 -648 228 -662 q 224 -676 220 -691 l 220 -691 q 217 -677 213 -663 q 209 -650 205 -636 q 201 -622 197 -606 l 197 -606 l 113 -303 l 325 -303 z"},"Á":{"ha":437,"x_min":0,"x_max":437,"o":"m 437 0 l 410 0 l 332 -278 l 106 -278 l 27 0 l 0 0 l 204 -715 l 238 -715 l 437 0 z m 325 -303 l 243 -607 q 239 -622 236 -635 q 232 -648 228 -662 q 224 -676 220 -691 l 220 -691 q 217 -677 213 -663 q 209 -650 205 -636 q 201 -622 197 -606 l 197 -606 l 113 -303 l 325 -303 z m 327 -951 l 327 -944 q 315 -926 299 -906 q 282 -886 264 -865 q 246 -845 229 -826 q 211 -808 194 -793 l 194 -793 l 178 -793 l 178 -803 q 201 -828 222 -852 q 243 -877 262 -901 q 281 -926 297 -951 l 297 -951 l 327 -951 z"},"Ă":{"ha":437,"x_min":0,"x_max":437,"o":"m 437 0 l 410 0 l 332 -278 l 106 -278 l 27 0 l 0 0 l 204 -715 l 238 -715 l 437 0 z m 325 -303 l 243 -607 q 239 -622 236 -635 q 232 -648 228 -662 q 224 -676 220 -691 l 220 -691 q 217 -677 213 -663 q 209 -650 205 -636 q 201 -622 197 -606 l 197 -606 l 113 -303 l 325 -303 z m 302 -902 l 326 -902 q 324 -870 311 -846 q 297 -822 274 -809 q 251 -796 219 -796 l 219 -796 q 175 -796 146 -822 q 116 -849 113 -902 l 113 -902 l 137 -902 q 138 -878 148 -859 q 158 -840 176 -830 q 194 -820 220 -820 l 220 -820 q 246 -820 264 -830 q 282 -840 292 -859 q 301 -878 302 -902 l 302 -902 z"},"Â":{"ha":437,"x_min":0,"x_max":437,"o":"m 437 0 l 410 0 l 332 -278 l 106 -278 l 27 0 l 0 0 l 204 -715 l 238 -715 l 437 0 z m 325 -303 l 243 -607 q 239 -622 236 -635 q 232 -648 228 -662 q 224 -676 220 -691 l 220 -691 q 217 -677 213 -663 q 209 -650 205 -636 q 201 -622 197 -606 l 197 -606 l 113 -303 l 325 -303 z m 205 -950 l 233 -950 q 245 -928 264 -897 q 283 -867 302 -840 q 320 -813 329 -800 l 329 -800 l 329 -793 l 312 -793 q 289 -820 264 -855 q 239 -890 219 -919 l 219 -919 q 199 -891 174 -855 q 148 -819 125 -793 l 125 -793 l 108 -793 l 108 -800 q 121 -817 139 -844 q 157 -871 175 -900 q 193 -929 205 -950 l 205 -950 z"},"Ä":{"ha":437,"x_min":0,"x_max":437,"o":"m 437 0 l 410 0 l 332 -278 l 106 -278 l 27 0 l 0 0 l 204 -715 l 238 -715 l 437 0 z m 325 -303 l 243 -607 q 239 -622 236 -635 q 232 -648 228 -662 q 224 -676 220 -691 l 220 -691 q 217 -677 213 -663 q 209 -650 205 -636 q 201 -622 197 -606 l 197 -606 l 113 -303 l 325 -303 z m 118 -854 l 118 -854 q 118 -867 124 -877 q 130 -887 142 -887 l 142 -887 q 155 -887 161 -877 q 166 -868 166 -854 l 166 -854 q 166 -841 161 -832 q 155 -823 142 -823 l 142 -823 q 130 -823 124 -832 q 118 -841 118 -854 z m 272 -855 l 272 -855 q 272 -868 279 -877 q 285 -887 296 -887 l 296 -887 q 309 -887 315 -878 q 321 -869 321 -855 l 321 -855 q 321 -841 315 -832 q 309 -823 296 -823 l 296 -823 q 285 -823 279 -832 q 272 -842 272 -855 z"},"À":{"ha":437,"x_min":0,"x_max":437,"o":"m 437 0 l 410 0 l 332 -278 l 106 -278 l 27 0 l 0 0 l 204 -715 l 238 -715 l 437 0 z m 325 -303 l 243 -607 q 239 -622 236 -635 q 232 -648 228 -662 q 224 -676 220 -691 l 220 -691 q 217 -677 213 -663 q 209 -650 205 -636 q 201 -622 197 -606 l 197 -606 l 113 -303 l 325 -303 z m 143 -951 l 174 -951 q 191 -926 211 -900 q 231 -874 253 -849 q 275 -825 295 -803 l 295 -803 l 295 -793 l 278 -793 q 262 -808 244 -826 q 225 -845 207 -865 q 189 -885 172 -905 q 155 -925 143 -944 l 143 -944 l 143 -951 z"},"Ā":{"ha":437,"x_min":0,"x_max":437,"o":"m 437 0 l 410 0 l 332 -278 l 106 -278 l 27 0 l 0 0 l 204 -715 l 238 -715 l 437 0 z m 325 -303 l 243 -607 q 239 -622 236 -635 q 232 -648 228 -662 q 224 -676 220 -691 l 220 -691 q 217 -677 213 -663 q 209 -650 205 -636 q 201 -622 197 -606 l 197 -606 l 113 -303 l 325 -303 z m 110 -827 l 328 -827 l 328 -803 l 110 -803 l 110 -827 z"},"Ą":{"ha":437,"x_min":0,"x_max":439,"o":"m 437 0 l 410 0 l 332 -278 l 106 -278 l 27 0 l 0 0 l 204 -715 l 238 -715 l 437 0 z m 325 -303 l 243 -607 q 239 -622 236 -635 q 232 -648 228 -662 q 224 -676 220 -691 l 220 -691 q 217 -677 213 -663 q 209 -650 205 -636 q 201 -622 197 -606 l 197 -606 l 113 -303 l 325 -303 z m 352 135 l 352 135 q 352 163 364 178 q 376 193 401 193 l 401 193 q 411 193 423 191 q 434 189 439 187 l 439 187 l 439 210 q 432 213 422 215 q 412 217 399 217 l 399 217 q 366 217 346 197 q 325 177 325 139 l 325 139 q 325 112 335 87 q 345 62 365 38 q 385 14 413 -10 l 413 -10 l 432 0 q 395 33 374 66 q 352 98 352 135 z"},"Å":{"ha":437,"x_min":0,"x_max":437,"o":"m 437 0 l 410 0 l 332 -278 l 106 -278 l 27 0 l 0 0 l 204 -715 l 238 -715 l 437 0 z m 325 -303 l 243 -607 q 239 -622 236 -635 q 232 -648 228 -662 q 224 -676 220 -691 l 220 -691 q 217 -677 213 -663 q 209 -650 205 -636 q 201 -622 197 -606 l 197 -606 l 113 -303 l 325 -303 z m 220 -698 l 220 -698 q 183 -698 156 -722 q 128 -746 128 -788 l 128 -788 q 128 -830 155 -854 q 181 -879 218 -879 l 218 -879 q 257 -879 284 -853 q 310 -828 310 -788 l 310 -788 q 310 -747 285 -722 q 259 -698 220 -698 z m 220 -721 l 220 -721 q 250 -721 269 -740 q 287 -759 287 -788 l 287 -788 q 287 -818 268 -837 q 249 -856 218 -856 l 218 -856 q 187 -856 169 -837 q 151 -818 151 -788 l 151 -788 q 151 -761 169 -741 q 187 -721 220 -721 z"},"Ã":{"ha":437,"x_min":0,"x_max":437,"o":"m 437 0 l 410 0 l 332 -278 l 106 -278 l 27 0 l 0 0 l 204 -715 l 238 -715 l 437 0 z m 325 -303 l 243 -607 q 239 -622 236 -635 q 232 -648 228 -662 q 224 -676 220 -691 l 220 -691 q 217 -677 213 -663 q 209 -650 205 -636 q 201 -622 197 -606 l 197 -606 l 113 -303 l 325 -303 z m 103 -804 l 79 -804 q 81 -829 88 -846 q 94 -863 104 -874 q 114 -885 127 -890 q 139 -895 154 -895 l 154 -895 q 176 -895 193 -884 q 209 -874 223 -861 q 236 -848 251 -837 q 265 -827 282 -827 l 282 -827 q 303 -827 318 -844 q 333 -861 336 -896 l 336 -896 l 358 -896 q 357 -849 335 -826 q 313 -804 282 -804 l 282 -804 q 260 -804 244 -814 q 227 -825 213 -838 q 199 -851 185 -861 q 171 -872 153 -872 l 153 -872 q 135 -872 120 -857 q 105 -842 103 -804 l 103 -804 z"},"Æ":{"ha":628,"x_min":0,"x_max":590,"o":"m 590 -25 l 590 0 l 268 0 l 268 -277 l 118 -277 l 29 0 l 0 0 l 233 -714 l 590 -714 l 590 -689 l 294 -689 l 294 -388 l 575 -388 l 575 -363 l 294 -363 l 294 -25 l 590 -25 z m 251 -688 l 125 -302 l 268 -302 l 268 -688 l 251 -688 z"}}}
